<svg width="58" height="59" viewBox="0 0 58 59" fill="none" xmlns="http://www.w3.org/2000/svg">
<path d="M40.8982 34.5017H41.7418C43.4939 34.5022 45.1856 35.1425 46.4989 36.3022C47.8122 37.462 48.6569 39.0614 48.8741 40.8L49.8112 48.287C49.8955 48.9615 49.8353 49.6462 49.6348 50.2956C49.4342 50.9451 49.0978 51.5444 48.6479 52.054C48.198 52.5635 47.6449 52.9715 47.0253 53.2509C46.4056 53.5303 45.7336 53.6747 45.0539 53.6746H12.7764C12.0967 53.6747 11.4247 53.5303 10.8051 53.2509C10.1855 52.9715 9.63233 52.5635 9.18242 52.054C8.73252 51.5444 8.39613 50.9451 8.19557 50.2956C7.99502 49.6462 7.93489 48.9615 8.01917 48.287L8.95385 40.8C9.17121 39.0606 10.0165 37.4605 11.3309 36.3006C12.6452 35.1408 14.338 34.501 16.0909 34.5017H16.9321" stroke="#00325A" stroke-width="4.79321" stroke-linecap="round" stroke-linejoin="round"/>
<path d="M21.7253 8.98965C23.5228 6.02385 25.3203 4.54395 28.9152 4.54395C33.3944 4.54395 36.105 7.50675 36.105 10.4696C36.105 13.4324 34.3075 14.9123 28.9152 17.8781V22.5185M28.9152 33.0036V34.5015" stroke="#00325A" stroke-width="4.79321" stroke-linecap="round"/>
</svg>
