<svg width="147" height="210" viewBox="0 0 147 210" fill="none" xmlns="http://www.w3.org/2000/svg">
<g filter="url(#filter0_d_492_820)">
<path d="M142.546 0.986328H20.1265V178.065H142.546V0.986328Z" fill="white"/>
<path d="M142.552 178.065C142.552 176.817 142.493 105.462 142.41 0.986588L142.552 1.12849H20.1679L20.3216 0.974765C20.3216 67.4996 20.3216 128.952 20.292 178.053L20.1679 177.929L142.593 178.053L20.1679 178.177H20.0437V178.053C20.0437 128.952 20.0437 67.4937 20.0142 0.974765V0.821045H20.1856H142.57H142.706V0.962938C142.605 105.462 142.552 176.817 142.552 178.065Z" fill="#093636"/>
<path d="M136.763 6.31348H25.9084V173.572H136.763V6.31348Z" fill="#E0E0E0"/>
<path d="M119.198 104.173C119.174 103.814 119.064 103.465 118.878 103.157C118.692 102.848 118.435 102.589 118.128 102.4C108.668 96.1326 101.52 82.2388 100.805 70.4734C100.805 69.8053 100.764 69.1254 100.74 68.4395C100.19 51.6191 97.7129 31.1922 95.4899 25.7884C91.3868 15.7376 77.4811 14.8034 77.4811 14.8034C59.0171 13.4791 55.7181 27.6685 53.832 40.5868C52.6496 48.6216 48.2095 77.3257 48.2095 77.3257L51.6031 78.6441C53.553 84.509 56.78 89.868 61.0516 94.3348C65.3231 98.8017 70.5327 102.265 76.3046 104.475C79.7041 105.758 82.5893 106.248 83.9373 105.167C89.3325 110.658 96.0088 114.722 103.365 116.991C106.327 117.993 109.456 118.408 112.576 118.215C114.592 118.026 116.715 117.364 117.897 115.732C118.419 115.026 118.729 114.185 118.791 113.31C118.853 112.434 118.665 111.559 118.249 110.786C117.832 110.013 117.204 109.374 116.439 108.945C115.673 108.515 114.801 108.312 113.924 108.359C114.669 106.059 119.275 106.727 119.198 104.173Z" fill="#093636"/>
<path d="M79.9348 20.0242L78.7523 18.9246L66.2715 23.9559C65.4002 24.0029 64.5783 24.3753 63.9684 24.9994C63.3586 25.6234 63.0053 26.4537 62.9784 27.3259L63.0907 67.9964C63.0907 70.7515 63.6228 73.1401 65.2901 75.3394L67.0638 77.657C71.0605 82.9308 79.2785 82.4992 82.4357 76.6815C82.6258 76.3529 82.7729 76.0012 82.8732 75.6351C82.953 75.3353 83.0162 75.0313 83.0624 74.7246C83.4289 71.4492 83.4526 68.6113 83.4526 68.6113C83.6772 65.0225 83.7482 63.5445 83.7482 63.5799C83.7482 63.6154 91.3928 62.699 93.462 52.8906C94.4908 48.007 94.2957 41.2966 94.006 34.6867C93.6276 25.5404 87.2719 20.0183 79.9348 20.0242Z" fill="#FFBE9D"/>
<path d="M77.3747 40.1672C77.3609 40.497 77.2193 40.8086 76.9799 41.0359C76.7404 41.2632 76.4219 41.3884 76.0918 41.3851C75.9318 41.3898 75.7725 41.363 75.6229 41.3061C75.4733 41.2492 75.3364 41.1634 75.22 41.0536C75.1036 40.9438 75.01 40.8121 74.9445 40.6661C74.879 40.5201 74.843 40.3626 74.8384 40.2026C74.8522 39.8717 74.9946 39.5593 75.2354 39.3318C75.4761 39.1043 75.7961 38.9798 76.1272 38.9847C76.2879 38.9759 76.4487 38.9999 76.5998 39.0553C76.7508 39.1108 76.889 39.1965 77.0057 39.3072C77.1225 39.4179 77.2155 39.5512 77.2789 39.6991C77.3424 39.847 77.375 40.0062 77.3747 40.1672V40.1672Z" fill="#093636"/>
<path d="M90.2814 40.5101C90.2691 40.8415 90.1271 41.1548 89.886 41.3826C89.645 41.6104 89.3241 41.7344 88.9925 41.728C88.8326 41.7327 88.6733 41.7059 88.5237 41.649C88.3741 41.5921 88.2372 41.5063 88.1208 41.3965C88.0044 41.2867 87.9108 41.155 87.8453 41.009C87.7798 40.863 87.7437 40.7055 87.7391 40.5455C87.753 40.2146 87.8954 39.9022 88.1361 39.6747C88.3768 39.4472 88.6968 39.3227 89.028 39.3276C89.1882 39.3221 89.3478 39.3484 89.4978 39.405C89.6477 39.4616 89.7849 39.5473 89.9014 39.6573C90.018 39.7673 90.1116 39.8993 90.1768 40.0456C90.242 40.192 90.2776 40.3499 90.2814 40.5101V40.5101Z" fill="#093636"/>
<path d="M92.7231 37.2996C92.5575 37.4592 91.6352 36.7084 90.2695 36.6315C88.9037 36.5547 87.8691 37.2227 87.7272 37.0276C87.5853 36.8325 87.8336 36.6552 88.3184 36.3595C88.9287 35.9806 89.6409 35.7989 90.3581 35.8393C91.0682 35.8747 91.7489 36.1333 92.3033 36.5783C92.6758 36.9212 92.8058 37.2286 92.7231 37.2996Z" fill="#093636"/>
<path d="M78.8706 37.4418C78.6873 37.5777 77.8477 36.7323 76.5057 36.5254C75.1636 36.3184 74.0639 36.8446 73.9397 36.6554C73.8806 36.5727 74.0816 36.3007 74.5664 36.0642C75.212 35.75 75.9387 35.6426 76.6476 35.7568C77.3514 35.8636 78.0034 36.1906 78.5099 36.6909C78.8646 37.0634 78.9592 37.3767 78.8706 37.4418Z" fill="#093636"/>
<path d="M83.6418 47.3802C84.3717 47.1902 85.1225 47.0929 85.8767 47.0905C86.2255 47.0905 86.5625 47.0195 86.6335 46.783C86.6807 46.4237 86.6167 46.0584 86.4502 45.7365L85.5515 43.0346C84.3099 39.1798 83.429 36.0227 83.5827 35.9754C83.7364 35.9281 84.8716 39.0084 86.1191 42.8573C86.4147 43.8111 86.6985 44.7177 86.9705 45.5769C87.1671 46.009 87.2068 46.4962 87.0828 46.9545C87.0266 47.0737 86.9443 47.1786 86.8419 47.2615C86.7396 47.3445 86.6198 47.4032 86.4916 47.4334C86.2977 47.4774 86.0989 47.4953 85.9003 47.4866C85.146 47.5463 84.3872 47.5106 83.6418 47.3802V47.3802Z" fill="#093636"/>
<path d="M83.7717 63.5798C79.11 63.4166 74.5849 61.9635 70.6997 59.3821C70.6997 59.3821 73.6736 66.3999 83.6358 65.9861L83.7717 63.5798Z" fill="#EB996E"/>
<path d="M82.8971 50.6141C82.6539 50.2743 82.3282 50.0021 81.9506 49.8232C81.573 49.6442 81.1561 49.5644 80.7391 49.5913C80.4358 49.6033 80.138 49.6766 79.8637 49.8066C79.5894 49.9367 79.3442 50.1208 79.1428 50.348C78.9508 50.567 78.8299 50.8393 78.7961 51.1286C78.7623 51.4179 78.8172 51.7106 78.9536 51.968C79.1617 52.2248 79.4415 52.4137 79.7575 52.5106C80.0734 52.6075 80.4111 52.608 80.7273 52.5119C81.3755 52.3118 81.9781 51.9864 82.501 51.5541C82.6631 51.4548 82.8038 51.3242 82.9149 51.1698C82.9654 51.0947 82.9925 51.0062 82.9925 50.9156C82.9925 50.825 82.9654 50.7365 82.9149 50.6614" fill="#EB996E"/>
<path d="M79.5861 48.1192C79.8108 48.1192 79.7398 49.6032 80.9518 50.7147C82.1638 51.8262 83.7542 51.7493 83.7542 51.9562C83.7542 52.0508 83.3877 52.2282 82.7196 52.2105C81.8432 52.1843 81.0048 51.8468 80.3547 51.2586C79.7378 50.6977 79.3608 49.9205 79.3023 49.0888C79.2905 48.468 79.4738 48.1074 79.5861 48.1192Z" fill="#093636"/>
<path d="M80.1773 32.1208C79.9881 32.4637 78.6637 32.0853 77.0497 32.0321C75.4356 31.9789 74.0935 32.2154 73.928 31.8547C73.857 31.6832 74.1349 31.3699 74.7084 31.0979C75.4648 30.7673 76.2866 30.6136 77.1113 30.6484C77.9361 30.6832 78.742 30.9057 79.4678 31.299C80.0117 31.6182 80.26 31.9552 80.1773 32.1208Z" fill="#093636"/>
<path d="M92.5279 31.4346C92.2737 31.7302 91.3455 31.3637 90.2162 31.2927C89.087 31.2218 88.1173 31.3932 87.9163 31.0562C87.8276 30.8966 87.9932 30.5951 88.4248 30.3231C89.005 30 89.668 29.8562 90.3299 29.9099C90.9918 29.9636 91.623 30.2123 92.1436 30.6247C92.5279 30.9617 92.6402 31.2868 92.5279 31.4346Z" fill="#093636"/>
<path d="M63.2563 44.702C63.2563 44.702 70.2505 46.8777 74.2058 29.6198C75.5597 23.7075 81.0286 18.9423 81.0286 18.9423L78.8115 18.2742C78.8115 18.2742 65.0241 22.1585 64.7935 22.33C64.5629 22.5014 61.3112 29.4661 61.3112 29.4661L63.2563 44.702Z" fill="#093636"/>
<path d="M64.9829 44.0397C65.0183 43.3065 64.2497 41.5269 63.5284 41.3732C61.601 40.9771 58.0951 40.9535 57.8113 45.8843C57.4329 52.6302 64.2793 51.6251 64.3148 51.43C64.3502 51.2349 64.8587 46.5819 64.9829 44.0397Z" fill="#FFBE9D"/>
<path d="M62.3874 48.7576C62.3874 48.7576 62.2632 48.8345 62.0622 48.9113C61.9207 48.9647 61.77 48.9896 61.6188 48.9845C61.4676 48.9795 61.3189 48.9445 61.1813 48.8818C60.4836 48.5802 59.9456 47.4155 59.9988 46.1976C60.0145 45.6196 60.1579 45.0523 60.4186 44.5363C60.4933 44.3291 60.6174 44.1432 60.7802 43.9949C60.943 43.8465 61.1395 43.7401 61.3527 43.6849C61.4905 43.6539 61.6347 43.6733 61.7594 43.7394C61.8841 43.8056 61.981 43.9142 62.0326 44.0455C62.1095 44.2406 62.0622 44.3707 62.0918 44.3825C62.1213 44.3944 62.2455 44.282 62.21 43.9982C62.1794 43.8298 62.0942 43.676 61.9676 43.5607C61.7883 43.4098 61.5568 43.3355 61.3232 43.3538C61.0434 43.392 60.7782 43.5019 60.5534 43.6728C60.3286 43.8437 60.1518 44.0699 60.0402 44.3293C59.7193 44.8967 59.5427 45.5342 59.5258 46.1858C59.4904 47.5456 60.1171 48.8581 61.0749 49.1951C61.2526 49.2572 61.442 49.2787 61.6292 49.2583C61.8164 49.2378 61.9966 49.1758 62.1568 49.0769C62.3637 48.9232 62.4406 48.7694 62.3874 48.7576Z" fill="#EB996E"/>
<path d="M67.9979 41.3852C68.3384 41.3343 68.6758 41.2652 69.0089 41.1783C69.9054 40.9061 70.7268 40.4307 71.4093 39.7889C71.8832 39.3488 72.3038 38.8547 72.6627 38.3167C73.0683 37.6971 73.4091 37.0374 73.6796 36.3479C74.2623 34.7448 74.748 33.1081 75.134 31.4467C75.568 29.79 76.085 28.1561 76.683 26.5513C77.1799 25.2384 77.7727 23.9638 78.4567 22.7379C78.9138 21.9137 79.4295 21.1234 79.9998 20.373C80.1949 20.101 80.3723 19.9118 80.4846 19.7818C80.5374 19.7113 80.5968 19.6459 80.662 19.5867C80.6183 19.6646 80.5668 19.7379 80.5083 19.8054C80.4078 19.9532 80.2422 20.1483 80.053 20.3966C79.5106 21.1552 79.0132 21.9448 78.5632 22.7616C77.9048 23.989 77.3338 25.2613 76.8545 26.5691C76.2988 28.0412 75.7903 29.6966 75.3173 31.4526C74.934 33.1225 74.4423 34.7657 73.8452 36.3716C73.5648 37.0676 73.2142 37.7333 72.7987 38.3581C72.4292 38.9001 71.9965 39.3963 71.5098 39.8362C70.8067 40.4833 69.9596 40.9535 69.0385 41.2078C68.7016 41.3151 68.3513 41.3748 67.9979 41.3852V41.3852Z" fill="#093636"/>
<path d="M58.7867 70.1543C58.748 70.0473 58.7222 69.9362 58.7099 69.8232L58.5443 68.8654C58.3965 68.0022 58.1955 66.7724 57.9531 65.2057H58.1186C58.1482 65.454 58.1896 65.726 58.2251 66.0038C58.2664 66.0925 58.3197 66.1989 58.3669 66.3054L58.1955 66.3645C56.5219 60.5532 55.6565 54.5391 55.6237 48.4917C55.6237 46.0263 55.6237 43.4072 56.2917 40.8058C56.5587 39.7359 56.9704 38.7076 57.5156 37.7491C58.0516 36.8243 58.6753 35.9532 59.378 35.1477C60.7496 33.5632 62.2277 32.1916 63.5757 30.8495L70.8182 23.7548L75.7135 18.9717L77.0556 17.6829L77.4104 17.3518L77.5404 17.2454C77.5404 17.2454 77.5109 17.2927 77.434 17.3754L77.1029 17.7243L75.8022 19.0545C74.6198 20.237 72.9939 21.8688 70.9719 23.9085L63.7767 31.0742C62.4346 32.434 60.9565 33.8056 59.6085 35.3724C58.1709 36.947 57.1345 38.8454 56.5874 40.9063C55.9429 43.4663 55.9488 46.0736 55.9193 48.5272C55.945 54.5514 56.7701 60.5455 58.3729 66.3527L58.2014 66.4177L58.0654 66.1103C58.03 65.8265 57.9945 65.5545 57.9649 65.3121H58.1245C58.3551 66.8789 58.5325 68.1145 58.6567 68.9836C58.7099 69.3916 58.7513 69.7108 58.7867 69.9473C58.7893 70.0163 58.7893 70.0853 58.7867 70.1543V70.1543Z" fill="#455A64"/>
<path d="M53.4774 38.979C53.5028 38.8791 53.5426 38.7835 53.5957 38.6952C53.7021 38.4823 53.8322 38.2222 53.9859 37.9029C54.3288 37.2171 54.8668 36.2475 55.5763 35.0709C56.2857 33.8944 57.1785 32.5228 58.2427 31.0506C59.3069 29.5784 60.5662 28.0235 61.9615 26.4568C63.3568 24.89 64.7935 23.5006 66.1297 22.2768C67.4659 21.053 68.7429 20.0183 69.8426 19.1965C70.9423 18.3747 71.8468 17.7303 72.4972 17.3164L73.2421 16.8375C73.3267 16.7811 73.4156 16.7317 73.5082 16.6897C73.5082 16.6897 73.4372 16.7666 73.2717 16.8907L72.5622 17.411C71.9355 17.8544 71.0487 18.5225 69.9786 19.368C68.9084 20.2134 67.655 21.2658 66.3248 22.4837C64.9945 23.7017 63.5874 25.1147 62.1862 26.6637C60.785 28.2127 59.5493 29.7736 58.4674 31.2161C57.3854 32.6587 56.4809 34.0245 55.7536 35.1833C55.0264 36.3421 54.4589 37.294 54.0864 37.962L53.643 38.7247C53.5965 38.8149 53.5411 38.9 53.4774 38.979V38.979Z" fill="#455A64"/>
<path d="M61.1987 67.6003C61.4352 67.2574 63.0079 64.2244 63.0079 64.2244L71.8999 71.8985C71.8999 71.8985 80.6383 79.212 80.6383 78.739L82.0336 71.7034L83.7481 65.2945L86.9526 70.1425C86.9526 70.1425 97.0034 89.8895 97.0034 90.126C97.0034 90.3625 103.241 110.819 103.241 110.819L101.899 119.096L101.739 148.451L82.9559 147.664L79.2489 141.752L72.905 104.103L61.1987 67.6003Z" fill="white"/>
<path d="M82.2463 142.136H102.969L109.076 173.619H67.5543L82.2463 142.136Z" fill="#093636"/>
<path d="M57.7991 72.4896L45.7026 77.0302L56.8768 126.794C56.8768 126.794 56.2206 140.238 53.8438 147.091C51.4671 153.943 45.8859 173.619 45.8859 173.619H83.0504C83.0504 173.619 84.629 146.612 84.0023 136.963C83.3756 127.314 83.6358 109.128 79.9406 99.6387C76.2454 90.1495 61.4352 66.8315 61.4352 66.8315L57.7991 72.4896Z" fill="#C6E1F6"/>
<path d="M84.3158 65.8618L89.7965 70.3906L104.849 72.6314C104.849 72.6314 111.973 98.4384 110.655 108.584C109.337 118.729 111.175 136.295 111.175 136.295L117.773 173.619H103.288C103.288 173.619 99.1497 129.969 98.9073 130.495C98.6649 131.021 97.8667 109.146 96.2881 102.051C94.7096 94.9561 86.7398 72.655 86.7398 72.655L84.3158 65.8618Z" fill="#C6E1F6"/>
<path d="M123.834 130.099C123.834 130.099 129.9 127.332 129.9 121.928C129.9 116.524 126.204 108.879 125.418 105.965C124.632 103.05 106.7 72.2234 104.855 72.6195L103.011 73.0156L112.5 114.668L99.5814 117.831L105.092 133.687L123.834 130.099Z" fill="#C6E1F6"/>
<path d="M105.34 116.636L108 108.028L108.456 102.163L114.717 98.0247C114.717 98.0247 116.396 98.2198 115.899 99.5205C115.403 100.821 112.843 103.162 112.843 103.162L111.347 107.342L113.777 103.097L117.324 101.324L120.842 101.584C120.842 101.584 121.492 103.145 119.866 103.21H118.093L115.42 105.362L113.753 109.394L116.266 105.492L119.979 104.173L122.344 104.765C122.344 104.765 122.994 105.805 121.823 105.947C120.653 106.089 119.872 106.077 119.872 106.077L117.726 107.325L115.834 111.286L119.157 108.548L123.449 108.034C123.449 108.034 124.17 109.069 123.059 109.459C121.927 109.924 120.82 110.447 119.742 111.026L117.33 113.952L105.34 116.636Z" fill="#FFBE9D"/>
<path d="M84.1503 142.136C84.1206 142.074 84.0987 142.008 84.0853 141.941C84.0498 141.799 83.9966 141.604 83.9375 141.35C83.8015 140.823 83.6182 140.078 83.3462 139.127C82.8673 137.17 82.1638 134.397 81.3242 130.92C80.4847 127.444 79.4382 123.341 78.2676 118.777C77.6764 116.494 77.0497 114.1 76.3638 111.623C76.0268 110.387 75.6721 109.134 75.2878 107.868C75.0986 107.236 74.8858 106.603 74.6966 105.965C74.4745 105.333 74.2159 104.715 73.9221 104.114C71.705 99.6622 69.4406 95.4704 67.4186 91.6038C65.3966 87.7372 63.4692 84.2253 61.8374 81.1864L61.796 81.1036L61.861 81.0445C62.2749 80.672 62.6828 80.3232 63.0908 79.9921C63.2916 79.8233 63.5029 79.6673 63.7234 79.525L63.818 79.4718H63.8771C63.8771 79.4718 63.8771 79.4718 63.8416 79.5132C63.8319 79.5391 63.8326 79.5678 63.8436 79.5932C63.8547 79.6186 63.8752 79.6387 63.9008 79.6492V79.6492H63.7352H63.3687C62.3872 79.6492 61.4649 79.6492 60.6136 79.6492H60.5485V79.5901C59.6853 77.3612 59.0054 75.5934 58.5324 74.3636L58.0062 72.9802L57.8762 72.6195L57.8407 72.4954C57.8407 72.4954 57.8407 72.5308 57.8998 72.6077L58.0535 72.9624L58.6448 74.3282C59.1355 75.552 59.8272 77.2843 60.7436 79.525L60.6549 79.4659C61.5122 79.4659 62.4286 79.4186 63.416 79.4186H63.7884C63.8593 79.4134 63.9304 79.4134 64.0013 79.4186V79.4186H64.0368C64.052 79.4338 64.0627 79.4528 64.0679 79.4737C64.0732 79.4945 64.0726 79.5163 64.0663 79.5369C64.0308 79.6019 64.0368 79.5783 64.0249 79.5901H63.9717H63.9422C63.9173 79.6017 63.8935 79.6155 63.8712 79.6315C63.6636 79.769 63.466 79.9212 63.28 80.0867C62.8839 80.4178 62.4759 80.7666 62.0975 81.1391V80.9972C63.7352 84.0302 65.6449 87.5421 67.726 91.391C69.8071 95.2399 72.0538 99.4376 74.2768 103.901C74.5767 104.514 74.8393 105.143 75.0631 105.787C75.2701 106.432 75.4829 107.064 75.6544 107.703C76.0485 108.976 76.4072 110.231 76.7304 111.469C77.4103 113.946 78.0252 116.341 78.6105 118.629C79.793 123.199 80.7744 127.326 81.608 130.796L83.5354 139.02C83.7483 139.978 83.9197 140.729 84.038 141.261C84.0853 141.503 84.1266 141.698 84.1562 141.852C84.17 141.946 84.168 142.042 84.1503 142.136Z" fill="#093636"/>
<path d="M103.288 112.864C103.273 112.711 103.273 112.557 103.288 112.403C103.288 112.066 103.33 111.629 103.365 111.079C103.365 110.789 103.401 110.488 103.424 110.121V108.986C103.424 108.164 103.424 107.212 103.365 106.213C103.058 100.861 102.007 95.5784 100.243 90.5161C99.5251 88.3999 98.6801 86.3289 97.713 84.3141V84.3141C96.851 82.3601 95.8737 80.4589 94.7865 78.6206C93.8228 76.9415 92.9359 75.4812 92.191 74.2751L90.4173 71.4549C90.2222 71.1475 90.0685 70.8637 89.9443 70.7041C89.8884 70.6172 89.839 70.5263 89.7965 70.4321C89.8694 70.5063 89.9347 70.5875 89.9916 70.6745L90.5001 71.4017C90.9376 72.0403 91.5643 72.9803 92.3329 74.1746C93.1015 75.3689 94.012 76.8233 94.9934 78.4965C96.097 80.3346 97.0843 82.2401 97.9495 84.2018V84.2018C98.9356 86.2341 99.7907 88.3274 100.51 90.4688C102.286 95.555 103.314 100.873 103.56 106.255C103.625 107.289 103.59 108.223 103.56 109.039C103.56 109.447 103.56 109.831 103.531 110.18C103.501 110.529 103.472 110.848 103.448 111.138C103.395 111.688 103.347 112.131 103.318 112.462C103.315 112.597 103.305 112.731 103.288 112.864V112.864Z" fill="#093636"/>
<path d="M124.283 129.868C124.162 129.914 124.037 129.947 123.91 129.969L122.828 130.217L118.743 131.11L104.459 134.143L104.335 134.172L104.293 134.048C103.111 130.501 101.775 126.622 100.397 122.549L98.9662 118.31L98.9071 118.15L99.0726 118.109L109.815 115.584L114.445 114.502L116.532 114.017C117.173 113.84 117.831 113.729 118.494 113.686C119.636 113.647 120.77 113.878 121.805 114.36C122.582 114.712 123.299 115.18 123.934 115.75C124.331 116.105 124.689 116.502 125.004 116.932C125.093 117.074 125.169 117.186 125.229 117.275C125.288 117.364 125.305 117.399 125.299 117.399C124.877 116.826 124.394 116.3 123.857 115.832C123.221 115.286 122.508 114.838 121.74 114.502C120.719 114.062 119.611 113.859 118.5 113.911C117.853 113.959 117.213 114.076 116.591 114.26L114.504 114.762L109.88 115.874C106.611 116.648 102.987 117.511 99.1436 118.434L99.25 118.233L100.687 122.472C102.058 126.551 103.371 130.436 104.565 133.983L104.4 133.888L118.707 130.968L122.81 130.152L123.898 129.945C124.024 129.911 124.153 129.885 124.283 129.868V129.868Z" fill="#093636"/>
<path d="M54.4589 150.543L74.2473 152.364L70.8418 158.419L50.0011 156.379L54.4589 150.543Z" fill="#C6E1F6"/>
<path d="M54.4587 150.532C54.4587 150.532 54.4587 150.579 54.3878 150.65L54.169 150.957L53.3058 152.14L50.0777 156.444L50.0068 156.278L70.1263 158.218L70.8594 158.288L70.7116 158.365L74.117 152.305L74.2294 152.524L60.0754 151.123L55.9368 150.703L54.8253 150.579C54.6937 150.571 54.5631 150.551 54.4351 150.52H54.8076L55.9013 150.597L60.0399 150.934L74.2648 152.217H74.4895L74.3772 152.418L70.9835 158.478L70.9303 158.56H70.8298L70.0967 158.49L49.995 156.473H49.8058L49.9181 156.326L53.2526 152.057L54.1513 150.922C54.2462 150.786 54.3488 150.656 54.4587 150.532V150.532Z" fill="#093636"/>
<path d="M107.728 152.577L110.82 158.418L117.466 157.059L113.942 151.678L107.728 152.577Z" fill="#C6E1F6"/>
<path d="M107.728 152.577C107.862 152.538 107.998 152.51 108.136 152.494L109.378 152.281C110.454 152.098 112.021 151.838 113.924 151.548H114.007L114.054 151.619C115.083 153.18 116.301 155.019 117.602 156.988L117.726 157.177L117.501 157.224L117.17 157.289L110.85 158.56H110.755L110.708 158.472C109.774 156.698 109.023 155.19 108.509 154.162C108.272 153.683 108.077 153.287 107.917 152.979C107.846 152.85 107.785 152.716 107.734 152.577C107.734 152.577 107.835 152.737 107.994 153.015L108.662 154.197C109.254 155.214 110.022 156.633 110.945 158.336L110.797 158.271L117.111 156.958L117.442 156.893L117.348 157.124C116.059 155.149 114.858 153.304 113.842 151.732L113.966 151.791C112.127 152.045 110.596 152.228 109.496 152.382L108.213 152.53C107.906 152.565 107.74 152.583 107.728 152.577Z" fill="#093636"/>
<g opacity="0.3">
<path opacity="0.3" d="M52.4135 156.621L51.5917 158.418L72.1486 160.304L73.6799 153.369L70.842 158.418L52.4135 156.621Z" fill="black"/>
</g>
<g opacity="0.3">
<path opacity="0.3" d="M56.6525 129.945C56.6525 129.945 59.8806 136.708 64.0724 138.689C69.7895 141.385 84.109 139.623 84.109 139.623L84.1504 135.514L67.5547 136.46L56.6525 129.945Z" fill="black"/>
</g>
<path d="M46.4775 76.7168C46.4775 76.7168 40.6776 77.113 40.5652 92.272C40.4529 107.431 58.2252 132.866 61.2582 135.372C64.2912 137.879 67.7617 139.558 76.8902 138.204C88.3482 136.508 96.3179 134.976 96.3179 134.976L94.7334 121.136L74.2652 120.213L57.6694 86.0878C57.6694 86.0878 52.1355 76.0369 46.4775 76.7168Z" fill="#C6E1F6"/>
<g opacity="0.3">
<path opacity="0.3" d="M99.6879 126.948C97.4412 126.013 94.9581 125.996 92.5045 125.99L82.832 125.96C80.7453 125.867 78.6552 126.04 76.6123 126.475C74.5511 126.923 72.7388 128.141 71.5455 129.88L66.4905 134.06C72.9628 135.628 79.7555 135.23 86.001 132.919C87.522 132.246 89.1065 131.727 90.7308 131.37C95.0999 130.684 99.5223 133.22 103.868 132.41C103.874 129.975 101.929 127.888 99.6879 126.948Z" fill="black"/>
</g>
<path d="M66.9219 112.865C68.8091 113.625 70.7472 114.254 72.7219 114.745C75.1907 115.258 77.6 116.024 79.9112 117.033C81.549 117.679 83.1497 118.415 84.7061 119.238L87.7568 129.88C87.7568 129.88 82.69 133.067 76.9728 132.901C71.2556 132.736 66.1888 134.586 65.4557 134.084C64.7226 133.581 64.6398 132.671 65.4557 132.263C66.2716 131.855 69.7362 131.364 69.7362 131.364L72.6923 130.14C72.6923 130.14 62.4818 131.039 61.6659 130.631C60.85 130.223 60.0341 129.649 60.3593 128.751C60.4357 128.503 60.5858 128.284 60.7897 128.123C60.9935 127.963 61.2414 127.868 61.5004 127.852C61.5004 127.852 59.2951 127.935 59.3779 127.036C59.4421 126.656 59.5838 126.292 59.7944 125.969C60.0049 125.646 60.2797 125.369 60.6017 125.156C60.9328 124.991 65.2133 123.252 65.2133 123.252L70.7235 122.153L65.4321 121.94L60.8087 123.229C60.8087 123.229 58.964 123.442 59.3779 121.887C59.7918 120.332 65.4557 118.605 65.4557 118.605L72.645 118.115C72.645 118.115 67.0875 117.299 66.514 115.584C66.3278 115.137 66.2674 114.647 66.3393 114.168C66.4112 113.688 66.6127 113.238 66.9219 112.865Z" fill="#FFBE9D"/>
<path d="M84.7061 119.238H85.0608L99.0906 118.617L103.288 130.867L87.7568 129.856L84.7061 119.238Z" fill="#FFBE9D"/>
<path d="M72.4913 126.203C71.9239 126.29 71.3508 126.335 70.7768 126.339C69.7185 126.398 68.2581 126.522 66.6382 126.764C65.0182 127.007 63.617 127.32 62.5883 127.574C62.0379 127.74 61.4769 127.869 60.9092 127.959C61.4251 127.701 61.9686 127.503 62.5291 127.367C65.2 126.585 67.9644 126.167 70.7472 126.126C71.3296 126.087 71.9145 126.113 72.4913 126.203Z" fill="#EB996E"/>
<path d="M61.9616 93.8032C61.7822 93.596 61.6256 93.37 61.4945 93.1293C61.2107 92.6918 60.8087 92.0473 60.3121 91.2669C58.9684 89.2345 57.5178 87.2748 55.9666 85.396C54.4348 83.5033 52.7 81.7844 50.7933 80.2701C49.9778 79.6774 49.1311 79.1287 48.257 78.6265C48.5187 78.7037 48.7722 78.8067 49.0137 78.9339C49.3052 79.0693 49.5876 79.2233 49.8592 79.3951C50.2273 79.6065 50.5827 79.8394 50.9234 80.0927C52.8865 81.5697 54.6598 83.2835 56.203 85.195C57.7655 87.0832 59.1995 89.0742 60.4954 91.1546C60.992 91.9468 61.3704 92.609 61.6246 93.0701C61.7599 93.3033 61.8727 93.5488 61.9616 93.8032V93.8032Z" fill="#093636"/>
<path d="M71.0428 113.994C70.9147 113.779 70.8097 113.551 70.7295 113.314L69.9609 111.428C69.3224 109.831 68.4178 107.632 67.3713 105.226C66.3248 102.819 65.3316 100.661 64.5985 99.1006C64.2555 98.3675 63.9659 97.7467 63.7412 97.256C63.6184 97.036 63.523 96.8017 63.4574 96.5583C63.6074 96.7604 63.7381 96.9762 63.8476 97.2028C64.0782 97.6226 64.4034 98.2374 64.7936 99.006C65.574 100.543 66.6027 102.689 67.6551 105.102C68.7075 107.514 69.5766 109.731 70.1678 111.345C70.4634 112.155 70.694 112.817 70.8418 113.272C70.9357 113.504 71.0031 113.746 71.0428 113.994V113.994Z" fill="#093636"/>
<path d="M80.4966 78.857C80.4966 78.857 80.3666 78.8156 80.1419 78.7033L79.1782 78.1948L75.7846 76.3206L75.9856 76.2201C75.82 77.7455 75.5422 79.5251 75.2584 81.4229C75.146 82.1974 75.0396 82.9483 74.9509 83.6696L74.9155 83.9474L74.7085 83.7701C72.8876 82.227 71.3149 80.8671 70.1916 79.8857L68.8909 78.7033C68.7261 78.5693 68.5755 78.4187 68.4415 78.2539C68.6286 78.3526 68.8016 78.4758 68.9559 78.6205L70.3216 79.7143C71.4745 80.6543 73.0768 81.9846 74.8977 83.5158L74.6553 83.6104C74.7381 82.8891 74.8386 82.1324 74.9569 81.3579C75.2347 79.4541 75.5481 77.6745 75.7195 76.161V75.96L75.891 76.0605L79.2314 78.0352L80.1537 78.6264C80.2786 78.6863 80.3941 78.7639 80.4966 78.857V78.857Z" fill="#093636"/>
<path d="M85.6819 70.1543C85.7196 70.4206 85.7295 70.69 85.7114 70.9584C85.7114 71.5496 85.7114 72.265 85.67 73.14C85.6227 74.9905 85.54 77.5387 85.4276 80.353C85.4276 80.4239 85.4276 80.4889 85.4276 80.5599V81.0506L85.1616 80.6367L81.7916 75.3157H81.9985C81.626 76.3385 81.3186 77.1958 81.0762 77.8521C80.9791 78.1715 80.8503 78.4805 80.6919 78.7744C80.749 78.4459 80.8361 78.1233 80.952 77.8107L81.7738 75.2388L81.8507 75.0024L81.9867 75.2093L85.4217 80.4889L85.1379 80.5658C85.1379 80.5008 85.1379 80.4298 85.1379 80.3648C85.2503 77.5505 85.3685 75.0024 85.469 73.1577C85.5281 72.2827 85.5695 71.5496 85.6109 70.9761C85.6071 70.7005 85.6309 70.4252 85.6819 70.1543V70.1543Z" fill="#093636"/>
<path d="M104.234 78.3369C104.067 78.2737 103.908 78.1903 103.761 78.0886L103.832 78.0413C104.205 79.3657 105.257 83.6875 106.452 88.8194C107.185 91.947 107.823 94.7789 108.273 96.8364C108.485 97.8238 108.657 98.6456 108.793 99.2723C108.869 99.5688 108.918 99.8715 108.941 100.177C108.829 99.8926 108.74 99.6 108.675 99.3018C108.515 98.6751 108.314 97.8652 108.083 96.8837C107.575 94.844 106.901 92.0179 106.174 88.8903C104.991 83.7585 104.01 79.4307 103.761 78.0591V77.9526L103.844 78.0118C103.986 78.1051 104.117 78.2142 104.234 78.3369V78.3369Z" fill="#093636"/>
<path d="M85.6817 136.762C85.5645 136.81 85.444 136.849 85.3211 136.88L84.2628 137.164C83.3405 137.406 81.9925 137.72 80.3193 138.027C78.3533 138.388 76.367 138.627 74.3716 138.742C71.9211 138.907 69.4595 138.744 67.0522 138.258C65.8033 137.993 64.5933 137.57 63.4516 136.998C62.9102 136.721 62.3887 136.407 61.8908 136.058C61.4314 135.698 61.0005 135.303 60.6019 134.876C59.2691 133.379 58.0329 131.8 56.9008 130.146C55.9194 128.751 55.1685 127.598 54.6541 126.794L54.0629 125.866C53.9917 125.759 53.9303 125.646 53.8796 125.529C53.9689 125.62 54.0481 125.722 54.1161 125.83C54.2758 126.061 54.4827 126.362 54.7428 126.729C55.2868 127.509 56.0672 128.644 57.0664 130.016C58.2171 131.635 59.4628 133.185 60.797 134.657C61.1832 135.073 61.6024 135.456 62.0504 135.804C62.5353 136.145 63.0452 136.45 63.5758 136.715C64.7001 137.276 65.8925 137.69 67.1231 137.944C69.503 138.427 71.9357 138.598 74.3597 138.453C76.341 138.346 78.3148 138.128 80.272 137.802C81.9452 137.519 83.2932 137.241 84.2214 137.04L85.2915 136.809C85.4188 136.775 85.5501 136.76 85.6817 136.762V136.762Z" fill="#093636"/>
<g opacity="0.3">
<path opacity="0.3" d="M58.3552 73.9026L59.922 81.3461L61.199 80.548L60.4659 82.3217L76.4822 111.369L74.4011 104.735L61.9321 81.1392L63.9068 79.5606H60.5901L58.3552 73.9026Z" fill="black"/>
</g>
<path d="M92.0019 103.417C91.8186 103.647 88.0229 114.141 88.0229 114.141L91.7654 111.776C91.7654 111.776 93.3263 116.341 93.2908 116.181C93.2553 116.021 96.2174 104.794 96.2174 104.794L92.0019 103.417Z" fill="#093636"/>
<path d="M98.9489 104.9C98.9489 104.9 101.757 115.507 101.834 115.389C101.911 115.271 103.359 111.918 103.359 111.918L106.984 114.218L103.164 103.417L98.9489 104.9Z" fill="#093636"/>
<path d="M97.506 106.107C102.551 106.107 106.641 102.017 106.641 96.9723C106.641 91.9275 102.551 87.8379 97.506 87.8379C92.4612 87.8379 88.3716 91.9275 88.3716 96.9723C88.3716 102.017 92.4612 106.107 97.506 106.107Z" fill="#455A64"/>
<path d="M104.654 96.6825C104.6 96.0995 104.507 95.5208 104.376 94.9502C103.963 93.4066 103.045 92.0456 101.769 91.0836C100.832 90.3769 99.7324 89.9167 98.5714 89.7453C97.4103 89.5738 96.2248 89.6965 95.1235 90.1021C94.4864 90.3254 93.888 90.6466 93.3498 91.054C92.7816 91.4695 92.2827 91.9724 91.8717 92.5439C90.9873 93.7425 90.5102 95.1929 90.5102 96.6825C90.5102 98.1721 90.9873 99.6225 91.8717 100.821C92.2795 101.395 92.7789 101.899 93.3498 102.311C93.888 102.72 94.4863 103.043 95.1235 103.269C96.2255 103.672 97.411 103.794 98.5719 103.621C99.7327 103.449 100.832 102.988 101.769 102.281C103.048 101.325 103.966 99.9644 104.376 98.4207C104.507 97.85 104.6 97.2713 104.654 96.6884C104.671 96.8397 104.671 96.9924 104.654 97.1436C104.656 97.3297 104.642 97.5156 104.613 97.6994C104.588 97.953 104.543 98.2041 104.477 98.4502C104.1 100.044 103.185 101.46 101.887 102.459C100.925 103.203 99.7895 103.692 98.5874 103.88C97.3852 104.068 96.1551 103.949 95.0111 103.535C94.3488 103.299 93.7251 102.966 93.1606 102.547C92.5682 102.118 92.0474 101.597 91.6175 101.004C90.6921 99.7557 90.1925 98.2426 90.1925 96.6884C90.1925 95.1342 90.6921 93.6211 91.6175 92.3724C92.0519 91.7725 92.5811 91.2473 93.1843 90.8175C93.7459 90.394 94.3703 90.0609 95.0348 89.8302C96.2598 89.3884 97.581 89.2843 98.86 89.5286C100.219 89.7886 101.474 90.435 102.474 91.3904C103.474 92.3457 104.178 93.5694 104.5 94.9147C104.566 95.1608 104.612 95.412 104.636 95.6656C104.665 95.8474 104.679 96.0313 104.678 96.2154C104.687 96.3715 104.679 96.5281 104.654 96.6825Z" fill="#093636"/>
<g opacity="0.2">
<path opacity="0.2" d="M99.6522 88.092L88.3716 98.2257L89.087 100.52L101.982 89.0025C101.292 88.5118 100.492 88.199 99.6522 88.092V88.092Z" fill="white"/>
</g>
<g opacity="0.2">
<path opacity="0.2" d="M103.005 89.6707C102.957 89.6353 89.8203 101.909 89.8203 101.909L90.6007 102.95C90.6303 102.979 103.815 90.3625 103.815 90.3625L103.005 89.6707Z" fill="white"/>
</g>
<path d="M98.5882 93.614V100.756H96.9327V94.9561H95.502V93.6317L98.5882 93.614Z" fill="white"/>
<g opacity="0.3">
<path opacity="0.3" d="M91.4933 96.6826C91.4933 92.9402 94.142 89.8717 97.5061 89.5583C97.3228 89.5583 97.1336 89.5583 96.9148 89.5583C93.2788 89.5583 90.3345 92.7569 90.3345 96.7063C90.3345 100.656 93.2906 103.854 96.9148 103.854C97.1099 103.854 97.2991 103.854 97.5061 103.825C94.142 103.488 91.4933 100.419 91.4933 96.6826Z" fill="black"/>
</g>
<g opacity="0.3">
<path opacity="0.3" d="M102.969 6.31348L104.654 65.8618L136.769 75.351V6.31348H102.969Z" fill="white"/>
</g>
<path d="M56.6523 120.048C56.7173 120.101 51.7215 126.191 45.4899 133.646C39.2584 141.101 34.1561 147.096 34.0911 147.043C34.026 146.99 39.0219 140.9 45.2534 133.445C51.485 125.99 56.5873 119.995 56.6523 120.048Z" fill="white"/>
<path d="M59.3483 108.448C59.4074 108.501 53.9563 114.727 47.169 122.348C40.3817 129.969 34.8242 136.106 34.7532 136.046C34.6823 135.987 40.1393 129.768 46.9266 122.147C53.7139 114.526 59.2833 108.389 59.3483 108.448Z" fill="white"/>
<path d="M129.19 49.0946C129.255 49.1478 123.219 56.0179 115.704 64.4251C108.19 72.8324 102.053 79.6138 101.994 79.5842C101.934 79.5546 107.965 72.6314 115.479 64.2123C122.994 55.7932 129.125 49.0355 129.19 49.0946Z" fill="white"/>
<path d="M39.0397 6.05322L39.8497 16.849C39.946 18.2636 40.541 19.5981 41.5288 20.6151C41.776 20.8674 42.0365 21.1062 42.3092 21.3305C43.36 22.1936 44.6491 22.7154 46.0044 22.8263L53.8913 23.4944L45.2949 24.3458C44.6718 24.41 44.0775 24.6407 43.5744 25.0139C43.3793 25.1617 43.1901 25.3095 42.9832 25.4691C41.3478 26.8949 40.3302 28.9003 40.1453 31.0621L39.5541 37.4533L38.9037 31.541C38.776 30.2601 38.3543 29.026 37.6713 27.9348C36.9883 26.8437 36.0625 25.925 34.9662 25.2504L34.913 25.2149C34.4739 24.96 33.9826 24.8084 33.4763 24.7715L24.0107 24.0502L32.2406 23.2875C33.8637 23.151 35.3794 22.4205 36.4975 21.2359C36.7221 20.9935 36.9409 20.7334 37.1478 20.4673C37.8556 19.5224 38.2672 18.3886 38.3303 17.2097L39.0397 6.05322Z" fill="white"/>
<path d="M14.3974 33.2085L14.9176 40.185C14.9817 41.0981 15.3671 41.959 16.0055 42.6149C16.1643 42.7797 16.3321 42.9356 16.508 43.082C17.1824 43.6322 18.0061 43.9678 18.8729 44.0457L23.9693 44.4773L18.4295 45.0271C18.0268 45.068 17.6427 45.2171 17.318 45.4587C17.1879 45.5533 17.0697 45.6479 16.9514 45.7484C15.8957 46.6698 15.2387 47.9648 15.1186 49.3608L14.7284 53.4994L14.3146 49.6919C14.2306 48.8646 13.957 48.0677 13.5151 47.3633C13.0731 46.6589 12.4747 46.0658 11.7664 45.6302H11.7309C11.4478 45.4646 11.13 45.3674 10.8027 45.3464L4.65393 44.8616L9.97497 44.3709C11.0231 44.2827 12.0019 43.8112 12.7242 43.0465C12.872 42.8869 13.0139 42.7213 13.1439 42.5499C13.6069 41.9416 13.8767 41.2084 13.9185 40.4451L14.3974 33.2085Z" fill="white"/>
<path d="M120.369 182.552H46.2822C44.519 182.552 43.0896 183.982 43.0896 185.745V198.149C43.0896 199.912 44.519 201.342 46.2822 201.342H120.369C122.132 201.342 123.562 199.912 123.562 198.149V185.745C123.562 183.982 122.132 182.552 120.369 182.552Z" fill="#C6E1F6"/>
<g opacity="0.3">
<path opacity="0.3" d="M80.4136 182.552L64.3086 201.342H69.8957L86.1367 182.552H80.4136Z" fill="white"/>
</g>
<path d="M68.1753 189.464V190.327H64.5688V185.668H68.1162V186.531H65.6626V187.542H67.8265V188.37H65.6626V189.452L68.1753 189.464Z" fill="white"/>
<path d="M73.2718 190.327V187.531L71.9001 189.836H71.4153L70.0496 187.59V190.327H69.0386V185.668H69.9313L71.705 188.565L73.4255 185.668H74.265V190.327H73.2718Z" fill="white"/>
<path d="M79.4321 187.359C79.4321 188.394 78.6516 189.044 77.4041 189.044H76.47V190.327H75.3881V185.668H77.4041C78.6516 185.668 79.4321 186.313 79.4321 187.359ZM78.3383 187.359C78.3383 186.845 78.0072 186.543 77.345 186.543H76.47V188.163H77.345C78.0072 188.163 78.3383 187.862 78.3383 187.359V187.359Z" fill="white"/>
<path d="M80.1771 185.668H81.2532V189.446H83.6181V190.327H80.1771V185.668Z" fill="white"/>
<path d="M83.8428 187.998C83.8132 187.487 83.9376 186.979 84.1999 186.54C84.4622 186.101 84.8504 185.751 85.314 185.535C85.7777 185.319 86.2956 185.247 86.8005 185.328C87.3055 185.41 87.7743 185.642 88.1462 185.993C88.5181 186.344 88.776 186.799 88.8864 187.298C88.9969 187.798 88.9549 188.319 88.7657 188.794C88.5766 189.269 88.2491 189.677 87.8257 189.964C87.4023 190.251 86.9025 190.404 86.391 190.404C86.0634 190.422 85.7356 190.374 85.4274 190.261C85.1193 190.149 84.8373 189.975 84.5988 189.749C84.3603 189.524 84.1702 189.253 84.0403 188.951C83.9103 188.65 83.8431 188.326 83.8428 187.998V187.998ZM87.8513 187.998C87.8455 187.71 87.7549 187.431 87.591 187.194C87.427 186.958 87.1969 186.776 86.9296 186.67C86.6623 186.564 86.3697 186.539 86.0884 186.599C85.8071 186.658 85.5496 186.8 85.3484 187.005C85.1471 187.21 85.0109 187.47 84.9569 187.753C84.9029 188.035 84.9335 188.327 85.0449 188.593C85.1562 188.858 85.3433 189.084 85.5828 189.243C85.8223 189.402 86.1034 189.487 86.391 189.487C86.5879 189.495 86.7842 189.462 86.9674 189.389C87.1507 189.317 87.3169 189.207 87.4553 189.067C87.5938 188.927 87.7016 188.759 87.7718 188.575C87.842 188.391 87.8731 188.194 87.8631 187.998H87.8513Z" fill="white"/>
<path d="M91.7891 188.678V190.327H90.7072V188.66L88.9039 185.668H90.0509L91.2925 187.738L92.54 185.668H93.5983L91.7891 188.678Z" fill="white"/>
<path d="M97.6126 189.464V190.327H94.0002V185.668H97.5476V186.531H95.0763V187.542H97.2402V188.37H95.0763V189.452L97.6126 189.464Z" fill="white"/>
<path d="M102.053 189.464V190.327H98.4463V185.668H101.964V186.531H99.5164V187.542H101.68V188.37H99.5164V189.452L102.053 189.464Z" fill="white"/>
<g opacity="0.3">
<path opacity="0.3" d="M121.119 185.148C121.121 185.365 121.057 185.577 120.938 185.758C120.818 185.939 120.647 186.08 120.447 186.163C120.247 186.247 120.026 186.269 119.814 186.227C119.601 186.185 119.406 186.081 119.252 185.927C119.099 185.774 118.995 185.578 118.953 185.366C118.911 185.153 118.933 184.933 119.016 184.733C119.1 184.532 119.241 184.362 119.422 184.242C119.602 184.122 119.815 184.059 120.032 184.06C120.32 184.06 120.597 184.175 120.801 184.379C121.005 184.583 121.119 184.859 121.119 185.148Z" fill="black"/>
</g>
<g opacity="0.3">
<path opacity="0.3" d="M121.119 198.285C121.121 198.502 121.057 198.714 120.938 198.895C120.818 199.076 120.647 199.217 120.447 199.3C120.247 199.384 120.026 199.406 119.814 199.364C119.601 199.322 119.406 199.218 119.252 199.064C119.099 198.911 118.995 198.715 118.953 198.503C118.911 198.29 118.933 198.07 119.016 197.87C119.1 197.669 119.241 197.499 119.422 197.379C119.602 197.259 119.815 197.196 120.032 197.197C120.32 197.197 120.597 197.312 120.801 197.516C121.005 197.72 121.119 197.996 121.119 198.285Z" fill="black"/>
</g>
<g opacity="0.3">
<path opacity="0.3" d="M46.7551 185.414C46.7551 185.629 46.6913 185.839 46.5717 186.018C46.4522 186.197 46.2823 186.337 46.0835 186.419C45.8847 186.501 45.666 186.523 45.455 186.481C45.2439 186.439 45.0501 186.335 44.898 186.183C44.7458 186.031 44.6422 185.837 44.6002 185.626C44.5583 185.415 44.5798 185.196 44.6622 184.997C44.7445 184.799 44.8839 184.629 45.0628 184.509C45.2417 184.39 45.4521 184.326 45.6672 184.326C45.9557 184.326 46.2324 184.441 46.4364 184.645C46.6404 184.849 46.7551 185.125 46.7551 185.414Z" fill="black"/>
</g>
<g opacity="0.3">
<path opacity="0.3" d="M47.1337 198.285C47.1337 198.5 47.0699 198.71 46.9504 198.889C46.8309 199.068 46.6609 199.208 46.4622 199.29C46.2634 199.372 46.0447 199.394 45.8336 199.352C45.6226 199.31 45.4288 199.206 45.2766 199.054C45.1245 198.902 45.0209 198.708 44.9789 198.497C44.9369 198.286 44.9585 198.067 45.0408 197.869C45.1232 197.67 45.2626 197.5 45.4415 197.38C45.6204 197.261 45.8307 197.197 46.0459 197.197C46.3344 197.197 46.6111 197.312 46.8151 197.516C47.0191 197.72 47.1337 197.996 47.1337 198.285Z" fill="black"/>
</g>
<g opacity="0.3">
<path opacity="0.3" d="M74.8561 182.552L58.3668 201.342H56.061L72.3257 182.552H74.8561Z" fill="white"/>
</g>
<path d="M53.4657 195.465C53.4277 194.874 53.5684 194.285 53.8693 193.774C54.1702 193.264 54.6175 192.856 55.1533 192.603C55.689 192.35 56.2884 192.263 56.8737 192.355C57.459 192.447 58.0033 192.713 58.4358 193.117C58.8684 193.522 59.1693 194.048 59.2995 194.626C59.4298 195.204 59.3834 195.808 59.1663 196.359C58.9492 196.91 58.5714 197.383 58.0821 197.717C57.5927 198.051 57.0143 198.231 56.4218 198.232C56.0428 198.258 55.6626 198.205 55.3047 198.078C54.9469 197.951 54.6191 197.751 54.3418 197.491C54.0645 197.232 53.8436 196.918 53.6928 196.569C53.5421 196.221 53.4648 195.845 53.4657 195.465V195.465ZM58.0654 195.465C58.0584 195.136 57.9544 194.816 57.7663 194.545C57.5783 194.275 57.3146 194.066 57.0083 193.945C56.702 193.823 56.3668 193.795 56.0446 193.864C55.7224 193.932 55.4276 194.094 55.1971 194.33C54.9667 194.565 54.8108 194.863 54.7491 195.187C54.6873 195.51 54.7225 195.845 54.8501 196.149C54.9777 196.452 55.1921 196.712 55.4665 196.894C55.7408 197.076 56.0628 197.173 56.3922 197.174C56.6164 197.179 56.8392 197.138 57.0468 197.053C57.2544 196.969 57.4425 196.842 57.5994 196.682C57.7562 196.522 57.8785 196.331 57.9587 196.122C58.0388 195.912 58.0752 195.689 58.0654 195.465V195.465Z" fill="white"/>
<path d="M61.4827 193.768V195.181H63.96V196.174H61.4827V198.125H60.2471V192.775H64.2911V193.768H61.4827Z" fill="white"/>
<path d="M68.4 193.786H66.6854V192.775H71.3443V193.786H69.6357V198.125H68.4V193.786Z" fill="white"/>
<path d="M76.9136 192.775V198.125H75.6779V195.932H73.248V198.125H72.0123V192.775H73.248V194.873H75.6779V192.763L76.9136 192.775Z" fill="white"/>
<path d="M82.3235 197.132V198.125H78.1849V192.775H82.223V193.768H79.4147V194.95H81.8978V195.914H79.4147V197.15L82.3235 197.132Z" fill="white"/>
<path d="M90.3343 198.125V194.915L88.7617 197.558H88.2L86.6333 194.986V198.125H85.4508V192.775H86.4736L88.4779 196.103L90.4467 192.775H91.4636V198.125H90.3343Z" fill="white"/>
<path d="M92.4274 195.465C92.3895 194.872 92.5308 194.282 92.833 193.771C93.1352 193.26 93.5843 192.852 94.1218 192.6C94.6593 192.347 95.2603 192.263 95.8465 192.357C96.4327 192.451 96.977 192.72 97.4084 193.128C97.8398 193.536 98.1385 194.064 98.2654 194.644C98.3923 195.224 98.3416 195.829 98.1199 196.38C97.8982 196.93 97.5157 197.402 97.0224 197.732C96.5291 198.062 95.9477 198.236 95.354 198.232C94.9775 198.254 94.6004 198.198 94.2461 198.069C93.8917 197.94 93.5675 197.739 93.2935 197.48C93.0194 197.221 92.8012 196.908 92.6522 196.562C92.5033 196.215 92.4268 195.842 92.4274 195.465V195.465ZM97.0272 195.465C97.0202 195.136 96.9162 194.816 96.7281 194.545C96.5401 194.275 96.2764 194.066 95.9701 193.945C95.6638 193.823 95.3286 193.795 95.0064 193.864C94.6842 193.932 94.3894 194.094 94.1589 194.33C93.9285 194.565 93.7726 194.863 93.7109 195.187C93.6491 195.51 93.6843 195.845 93.8119 196.149C93.9395 196.452 94.1539 196.711 94.4282 196.894C94.7026 197.076 95.0246 197.173 95.354 197.173C95.5784 197.179 95.8016 197.139 96.0096 197.055C96.2177 196.971 96.4061 196.844 96.5631 196.684C96.7202 196.524 96.8424 196.333 96.9223 196.123C97.0021 195.913 97.0378 195.689 97.0272 195.465V195.465Z" fill="white"/>
<path d="M104.116 192.775V198.125H103.099L100.433 194.874V198.119H99.209V192.769H100.238L102.892 196.021V192.769L104.116 192.775Z" fill="white"/>
<path d="M106.493 193.786H104.778V192.775H109.437V193.786H107.728V198.125H106.493V193.786Z" fill="white"/>
<path d="M115.007 192.775V198.125H113.771V195.932H111.341V198.125H110.105V192.775H111.341V194.873H113.771V192.763L115.007 192.775Z" fill="white"/>
<path d="M111.193 180.495L111.435 183.7C111.464 184.117 111.64 184.511 111.932 184.811C112.279 185.183 112.75 185.416 113.256 185.467L115.621 185.668L113.079 185.923C112.895 185.939 112.719 186.007 112.57 186.118L112.399 186.254C111.915 186.676 111.614 187.269 111.559 187.909L111.382 189.807L111.187 188.033C111.147 187.653 111.02 187.286 110.814 186.963C110.609 186.64 110.332 186.369 110.005 186.171V186.171C109.874 186.096 109.729 186.051 109.579 186.041L106.759 185.816L109.195 185.591C109.674 185.554 110.123 185.344 110.46 185L110.649 184.77C110.862 184.492 110.986 184.156 111.004 183.806L111.193 180.495Z" fill="white"/>
</g>
<defs>
<filter id="filter0_d_492_820" x="0.653931" y="0.821045" width="146.052" height="208.521" filterUnits="userSpaceOnUse" color-interpolation-filters="sRGB">
<feFlood flood-opacity="0" result="BackgroundImageFix"/>
<feColorMatrix in="SourceAlpha" type="matrix" values="0 0 0 0 0 0 0 0 0 0 0 0 0 0 0 0 0 0 127 0" result="hardAlpha"/>
<feOffset dy="4"/>
<feGaussianBlur stdDeviation="2"/>
<feComposite in2="hardAlpha" operator="out"/>
<feColorMatrix type="matrix" values="0 0 0 0 0 0 0 0 0 0 0 0 0 0 0 0 0 0 0.25 0"/>
<feBlend mode="normal" in2="BackgroundImageFix" result="effect1_dropShadow_492_820"/>
<feBlend mode="normal" in="SourceGraphic" in2="effect1_dropShadow_492_820" result="shape"/>
</filter>
</defs>
</svg>
