<svg width="40" height="54" viewBox="0 0 40 54" fill="none" xmlns="http://www.w3.org/2000/svg">
<path d="M3.13892 7.53543V9.93204C3.13892 13.8529 7.93213 19.5185 10.3287 21.9151L12.1262 43.5085C12.2886 45.4624 13.1796 47.2838 14.6225 48.6112C16.0654 49.9386 17.9546 50.6751 19.9152 50.6743C21.8758 50.6751 23.765 49.9386 25.2078 48.6112C26.6507 47.2838 27.5418 45.4624 27.7041 43.5085L29.5016 21.9151C31.8982 19.5185 36.6914 13.8529 36.6914 9.93204V7.53543" stroke="#00325A" stroke-width="4.79321" stroke-linecap="round" stroke-linejoin="round"/>
<path d="M19.9153 24.3117V29.1049" stroke="#00325A" stroke-width="4.79321" stroke-linecap="round" stroke-linejoin="round"/>
<path d="M19.9153 12.3286C29.1805 12.3286 36.6915 10.1826 36.6915 7.53543C36.6915 4.88821 29.1805 2.74222 19.9153 2.74222C10.65 2.74222 3.13904 4.88821 3.13904 7.53543C3.13904 10.1826 10.65 12.3286 19.9153 12.3286Z" stroke="#00325A" stroke-width="4.79321" stroke-linecap="round" stroke-linejoin="round"/>
</svg>
