<svg width="58" height="59" viewBox="0 0 58 59" fill="none" xmlns="http://www.w3.org/2000/svg">
<path d="M33.7084 46.4846C42.746 46.4846 47.266 46.4846 50.0724 43.6758C52.8812 40.8694 52.8812 36.3494 52.8812 27.3118C52.8812 18.2742 52.8812 13.7542 50.0724 10.9477C47.266 8.13892 42.746 8.13892 33.7084 8.13892H24.1219C15.0843 8.13892 10.5643 8.13892 7.75792 10.9477C4.9491 13.7542 4.9491 18.2742 4.9491 27.3118C4.9491 36.3494 4.9491 40.8694 7.75792 43.6758C9.3229 45.2432 11.4199 45.9358 14.5355 46.2402" stroke="#00325A" stroke-width="4.79321" stroke-linecap="round" stroke-linejoin="round"/>
<path d="M28.9152 27.3118V27.3353" stroke="#00325A" stroke-width="4.79321" stroke-linecap="round"/>
<path d="M19.3287 27.3118V27.3353" stroke="#00325A" stroke-width="4.79321" stroke-linecap="round"/>
<path d="M38.5016 27.3118V27.3353" stroke="#00325A" stroke-width="4.79321" stroke-linecap="round"/>
<path d="M33.7084 46.4846C30.7462 46.4846 27.482 47.6829 24.503 49.2287C19.7146 51.714 17.3204 52.9578 16.1413 52.1645C14.9622 51.3736 15.185 48.9171 15.6332 44.0065L15.7339 42.8896" stroke="#00325A" stroke-width="4.79321" stroke-linecap="round"/>
</svg>
