<svg width="58" height="59" viewBox="0 0 58 59" fill="none" xmlns="http://www.w3.org/2000/svg">
<path d="M12.1389 10.5354V12.932C12.1389 16.8529 16.9321 22.5185 19.3287 24.9151L21.1262 46.5085C21.2886 48.4624 22.1796 50.2838 23.6225 51.6112C25.0654 52.9386 26.9546 53.6751 28.9152 53.6743C30.8758 53.6751 32.765 52.9386 34.2078 51.6112C35.6507 50.2838 36.5418 48.4624 36.7041 46.5085L38.5016 24.9151C40.8982 22.5185 45.6914 16.8529 45.6914 12.932V10.5354" stroke="#00325A" stroke-width="4.79321" stroke-linecap="round" stroke-linejoin="round"/>
<path d="M28.9153 27.3117V32.1049" stroke="#00325A" stroke-width="4.79321" stroke-linecap="round" stroke-linejoin="round"/>
<path d="M28.9153 15.3286C38.1805 15.3286 45.6915 13.1826 45.6915 10.5354C45.6915 7.88821 38.1805 5.74222 28.9153 5.74222C19.65 5.74222 12.139 7.88821 12.139 10.5354C12.139 13.1826 19.65 15.3286 28.9153 15.3286Z" stroke="#00325A" stroke-width="4.79321" stroke-linecap="round" stroke-linejoin="round"/>
</svg>
