<svg width="139" height="202" viewBox="0 0 139 202" fill="none" xmlns="http://www.w3.org/2000/svg">
<path d="M138.546 0.986328H16.1265V178.065H138.546V0.986328Z" fill="white"/>
<path d="M138.552 178.065C138.552 176.817 138.493 105.462 138.41 0.986588L138.552 1.12849H16.1679L16.3216 0.974765C16.3216 67.4996 16.3216 128.952 16.292 178.053L16.1679 177.929L138.593 178.053L16.1679 178.177H16.0437V178.053C16.0437 128.952 16.0437 67.4937 16.0142 0.974765V0.821045H16.1856H138.57H138.706V0.962938C138.605 105.462 138.552 176.817 138.552 178.065Z" fill="#093636"/>
<path d="M132.763 6.31348H21.9084V173.572H132.763V6.31348Z" fill="#E0E0E0"/>
<path d="M115.198 104.173C115.174 103.814 115.064 103.465 114.878 103.157C114.692 102.848 114.435 102.589 114.128 102.4C104.668 96.1326 97.5204 82.2388 96.805 70.4734C96.805 69.8053 96.7636 69.1254 96.74 68.4395C96.1901 51.6191 93.7129 31.1922 91.4899 25.7884C87.3868 15.7376 73.4811 14.8034 73.4811 14.8034C55.0171 13.4791 51.7181 27.6685 49.832 40.5868C48.6496 48.6216 44.2095 77.3257 44.2095 77.3257L47.6031 78.6441C49.553 84.509 52.78 89.868 57.0516 94.3348C61.3231 98.8017 66.5327 102.265 72.3046 104.475C75.7041 105.758 78.5893 106.248 79.9373 105.167C85.3325 110.658 92.0088 114.722 99.365 116.991C102.327 117.993 105.456 118.408 108.576 118.215C110.592 118.026 112.715 117.364 113.897 115.732C114.419 115.026 114.729 114.185 114.791 113.31C114.853 112.434 114.665 111.559 114.249 110.786C113.832 110.013 113.204 109.374 112.439 108.945C111.673 108.515 110.801 108.312 109.924 108.359C110.669 106.059 115.275 106.727 115.198 104.173Z" fill="#093636"/>
<path d="M75.9348 20.0242L74.7523 18.9246L62.2715 23.9559C61.4002 24.0029 60.5783 24.3753 59.9684 24.9994C59.3586 25.6234 59.0053 26.4537 58.9784 27.3259L59.0907 67.9964C59.0907 70.7515 59.6228 73.1401 61.2901 75.3394L63.0638 77.657C67.0605 82.9308 75.2785 82.4992 78.4357 76.6815C78.6258 76.3529 78.7729 76.0012 78.8732 75.6351C78.953 75.3353 79.0162 75.0313 79.0624 74.7246C79.4289 71.4492 79.4526 68.6113 79.4526 68.6113C79.6772 65.0225 79.7482 63.5445 79.7482 63.5799C79.7482 63.6154 87.3928 62.699 89.462 52.8906C90.4908 48.007 90.2957 41.2966 90.006 34.6867C89.6276 25.5404 83.2719 20.0183 75.9348 20.0242Z" fill="#FFBE9D"/>
<path d="M73.3747 40.1672C73.3609 40.497 73.2193 40.8086 72.9799 41.0359C72.7404 41.2632 72.4219 41.3884 72.0918 41.3851C71.9318 41.3898 71.7725 41.363 71.6229 41.3061C71.4733 41.2492 71.3364 41.1634 71.22 41.0536C71.1036 40.9438 71.01 40.8121 70.9445 40.6661C70.879 40.5201 70.843 40.3626 70.8384 40.2026C70.8522 39.8717 70.9946 39.5593 71.2354 39.3318C71.4761 39.1043 71.7961 38.9798 72.1272 38.9847C72.2879 38.9759 72.4487 38.9999 72.5998 39.0553C72.7508 39.1108 72.889 39.1965 73.0057 39.3072C73.1225 39.4179 73.2155 39.5512 73.2789 39.6991C73.3424 39.847 73.375 40.0062 73.3747 40.1672Z" fill="#093636"/>
<path d="M86.2814 40.5101C86.2691 40.8415 86.1271 41.1548 85.886 41.3826C85.645 41.6104 85.3241 41.7344 84.9925 41.728C84.8326 41.7327 84.6733 41.7059 84.5237 41.649C84.3741 41.5921 84.2372 41.5063 84.1208 41.3965C84.0044 41.2867 83.9108 41.155 83.8453 41.009C83.7798 40.863 83.7437 40.7055 83.7391 40.5455C83.753 40.2146 83.8954 39.9022 84.1361 39.6747C84.3768 39.4472 84.6968 39.3227 85.028 39.3276C85.1882 39.3221 85.3478 39.3484 85.4978 39.405C85.6477 39.4616 85.7849 39.5473 85.9014 39.6573C86.018 39.7673 86.1116 39.8993 86.1768 40.0456C86.242 40.192 86.2776 40.3499 86.2814 40.5101Z" fill="#093636"/>
<path d="M88.7231 37.2996C88.5575 37.4592 87.6352 36.7084 86.2695 36.6315C84.9037 36.5547 83.8691 37.2227 83.7272 37.0276C83.5853 36.8325 83.8336 36.6552 84.3184 36.3595C84.9287 35.9806 85.6409 35.7989 86.3581 35.8393C87.0682 35.8747 87.7489 36.1333 88.3033 36.5783C88.6758 36.9212 88.8058 37.2286 88.7231 37.2996Z" fill="#093636"/>
<path d="M74.8706 37.4418C74.6873 37.5777 73.8477 36.7323 72.5057 36.5254C71.1636 36.3184 70.0639 36.8446 69.9397 36.6554C69.8806 36.5727 70.0816 36.3007 70.5664 36.0642C71.212 35.75 71.9387 35.6426 72.6476 35.7568C73.3514 35.8636 74.0034 36.1906 74.5099 36.6909C74.8646 37.0634 74.9592 37.3767 74.8706 37.4418Z" fill="#093636"/>
<path d="M79.6418 47.3802C80.3717 47.1902 81.1225 47.0929 81.8767 47.0905C82.2255 47.0905 82.5625 47.0195 82.6335 46.783C82.6807 46.4237 82.6167 46.0584 82.4502 45.7365L81.5515 43.0346C80.3099 39.1798 79.429 36.0227 79.5827 35.9754C79.7364 35.9281 80.8716 39.0084 82.1191 42.8573C82.4147 43.8111 82.6985 44.7177 82.9705 45.5769C83.1671 46.009 83.2068 46.4962 83.0828 46.9545C83.0266 47.0737 82.9443 47.1786 82.8419 47.2615C82.7396 47.3445 82.6198 47.4032 82.4916 47.4334C82.2977 47.4774 82.0989 47.4953 81.9003 47.4866C81.146 47.5463 80.3872 47.5106 79.6418 47.3802Z" fill="#093636"/>
<path d="M79.7717 63.5798C75.11 63.4166 70.5849 61.9635 66.6997 59.3821C66.6997 59.3821 69.6736 66.3999 79.6358 65.9861L79.7717 63.5798Z" fill="#EB996E"/>
<path d="M78.8971 50.6141C78.6539 50.2743 78.3282 50.0021 77.9506 49.8232C77.573 49.6442 77.1561 49.5644 76.7391 49.5913C76.4358 49.6033 76.138 49.6766 75.8637 49.8066C75.5894 49.9367 75.3442 50.1208 75.1428 50.348C74.9508 50.567 74.8299 50.8393 74.7961 51.1286C74.7623 51.4179 74.8172 51.7106 74.9536 51.968C75.1617 52.2248 75.4415 52.4137 75.7575 52.5106C76.0734 52.6075 76.4111 52.608 76.7273 52.5119C77.3755 52.3118 77.9781 51.9864 78.501 51.5541C78.6631 51.4548 78.8038 51.3242 78.9149 51.1698C78.9654 51.0947 78.9925 51.0062 78.9925 50.9156C78.9925 50.825 78.9654 50.7365 78.9149 50.6614" fill="#EB996E"/>
<path d="M75.5861 48.1192C75.8108 48.1192 75.7398 49.6032 76.9518 50.7147C78.1638 51.8262 79.7542 51.7493 79.7542 51.9562C79.7542 52.0508 79.3877 52.2282 78.7196 52.2105C77.8432 52.1843 77.0048 51.8468 76.3547 51.2586C75.7378 50.6977 75.3608 49.9205 75.3023 49.0888C75.2905 48.468 75.4738 48.1074 75.5861 48.1192Z" fill="#093636"/>
<path d="M76.1773 32.1208C75.9881 32.4637 74.6637 32.0853 73.0497 32.0321C71.4356 31.9789 70.0935 32.2154 69.928 31.8547C69.857 31.6832 70.1349 31.3699 70.7084 31.0979C71.4648 30.7673 72.2866 30.6136 73.1113 30.6484C73.9361 30.6832 74.742 30.9057 75.4678 31.299C76.0117 31.6182 76.26 31.9552 76.1773 32.1208Z" fill="#093636"/>
<path d="M88.5279 31.4346C88.2737 31.7302 87.3455 31.3637 86.2162 31.2927C85.087 31.2218 84.1173 31.3932 83.9163 31.0562C83.8276 30.8966 83.9932 30.5951 84.4248 30.3231C85.005 30 85.668 29.8562 86.3299 29.9099C86.9918 29.9636 87.623 30.2123 88.1436 30.6247C88.5279 30.9617 88.6402 31.2868 88.5279 31.4346Z" fill="#093636"/>
<path d="M59.2563 44.702C59.2563 44.702 66.2505 46.8777 70.2058 29.6198C71.5597 23.7075 77.0286 18.9423 77.0286 18.9423L74.8115 18.2742C74.8115 18.2742 61.0241 22.1585 60.7935 22.33C60.5629 22.5014 57.3112 29.4661 57.3112 29.4661L59.2563 44.702Z" fill="#093636"/>
<path d="M60.9829 44.0397C61.0183 43.3065 60.2497 41.5269 59.5284 41.3732C57.601 40.9771 54.0951 40.9535 53.8113 45.8843C53.4329 52.6302 60.2793 51.6251 60.3148 51.43C60.3502 51.2349 60.8587 46.5819 60.9829 44.0397Z" fill="#FFBE9D"/>
<path d="M58.3874 48.7576C58.3874 48.7576 58.2632 48.8345 58.0622 48.9113C57.9207 48.9647 57.77 48.9896 57.6188 48.9845C57.4676 48.9795 57.3189 48.9445 57.1813 48.8818C56.4836 48.5802 55.9456 47.4155 55.9988 46.1976C56.0145 45.6196 56.1579 45.0523 56.4186 44.5363C56.4933 44.3291 56.6174 44.1432 56.7802 43.9949C56.943 43.8465 57.1395 43.7401 57.3527 43.6849C57.4905 43.6539 57.6347 43.6733 57.7594 43.7394C57.8841 43.8056 57.981 43.9142 58.0326 44.0455C58.1095 44.2406 58.0622 44.3707 58.0918 44.3825C58.1213 44.3944 58.2455 44.282 58.21 43.9982C58.1794 43.8298 58.0942 43.676 57.9676 43.5607C57.7883 43.4098 57.5568 43.3355 57.3232 43.3538C57.0434 43.392 56.7782 43.5019 56.5534 43.6728C56.3286 43.8437 56.1518 44.0699 56.0402 44.3293C55.7193 44.8967 55.5427 45.5342 55.5258 46.1858C55.4904 47.5456 56.1171 48.8581 57.0749 49.1951C57.2526 49.2572 57.442 49.2787 57.6292 49.2583C57.8164 49.2378 57.9966 49.1758 58.1568 49.0769C58.3637 48.9232 58.4406 48.7694 58.3874 48.7576Z" fill="#EB996E"/>
<path d="M63.9979 41.3852C64.3384 41.3343 64.6758 41.2652 65.0089 41.1783C65.9054 40.9061 66.7268 40.4307 67.4093 39.7889C67.8832 39.3488 68.3038 38.8547 68.6627 38.3167C69.0683 37.6971 69.4091 37.0374 69.6796 36.3479C70.2623 34.7448 70.748 33.1081 71.134 31.4467C71.568 29.79 72.085 28.1561 72.683 26.5513C73.1799 25.2384 73.7727 23.9638 74.4567 22.7379C74.9138 21.9137 75.4295 21.1234 75.9998 20.373C76.1949 20.101 76.3723 19.9118 76.4846 19.7818C76.5374 19.7113 76.5968 19.6459 76.662 19.5867C76.6183 19.6646 76.5668 19.7379 76.5083 19.8054C76.4078 19.9532 76.2422 20.1483 76.053 20.3966C75.5106 21.1552 75.0132 21.9448 74.5632 22.7616C73.9048 23.989 73.3338 25.2613 72.8545 26.5691C72.2988 28.0412 71.7903 29.6966 71.3173 31.4526C70.934 33.1225 70.4423 34.7657 69.8452 36.3716C69.5648 37.0676 69.2142 37.7333 68.7987 38.3581C68.4292 38.9001 67.9965 39.3963 67.5098 39.8362C66.8067 40.4833 65.9596 40.9535 65.0385 41.2078C64.7016 41.3151 64.3513 41.3748 63.9979 41.3852Z" fill="#093636"/>
<path d="M54.7867 70.1543C54.748 70.0473 54.7222 69.9362 54.7099 69.8232L54.5443 68.8654C54.3965 68.0022 54.1955 66.7724 53.9531 65.2057H54.1186C54.1482 65.454 54.1896 65.726 54.2251 66.0038C54.2664 66.0925 54.3197 66.1989 54.3669 66.3054L54.1955 66.3645C52.5219 60.5532 51.6565 54.5391 51.6237 48.4917C51.6237 46.0263 51.6237 43.4072 52.2917 40.8058C52.5587 39.7359 52.9704 38.7076 53.5156 37.7491C54.0516 36.8243 54.6753 35.9532 55.378 35.1477C56.7496 33.5632 58.2277 32.1916 59.5757 30.8495L66.8182 23.7548L71.7135 18.9717L73.0556 17.6829L73.4104 17.3518L73.5404 17.2454C73.5404 17.2454 73.5109 17.2927 73.434 17.3754L73.1029 17.7243L71.8022 19.0545C70.6198 20.237 68.9939 21.8688 66.9719 23.9085L59.7767 31.0742C58.4346 32.434 56.9565 33.8056 55.6085 35.3724C54.1709 36.947 53.1345 38.8454 52.5874 40.9063C51.9429 43.4663 51.9488 46.0736 51.9193 48.5272C51.945 54.5514 52.7701 60.5455 54.3729 66.3527L54.2014 66.4177L54.0654 66.1103C54.03 65.8265 53.9945 65.5545 53.9649 65.3121H54.1245C54.3551 66.8789 54.5325 68.1145 54.6567 68.9836C54.7099 69.3916 54.7513 69.7108 54.7867 69.9473C54.7893 70.0163 54.7893 70.0853 54.7867 70.1543Z" fill="#455A64"/>
<path d="M49.4774 38.979C49.5028 38.8791 49.5426 38.7835 49.5957 38.6952C49.7021 38.4823 49.8322 38.2222 49.9859 37.9029C50.3288 37.2171 50.8668 36.2475 51.5763 35.0709C52.2857 33.8944 53.1785 32.5228 54.2427 31.0506C55.3069 29.5784 56.5662 28.0235 57.9615 26.4568C59.3568 24.89 60.7935 23.5006 62.1297 22.2768C63.4658 21.053 64.7429 20.0183 65.8426 19.1965C66.9423 18.3747 67.8468 17.7303 68.4972 17.3164L69.2421 16.8375C69.3267 16.7811 69.4156 16.7317 69.5082 16.6897C69.5082 16.6897 69.4372 16.7666 69.2717 16.8907L68.5622 17.411C67.9355 17.8544 67.0487 18.5225 65.9786 19.368C64.9084 20.2134 63.655 21.2658 62.3248 22.4837C60.9945 23.7017 59.5874 25.1147 58.1862 26.6637C56.785 28.2127 55.5493 29.7736 54.4674 31.2161C53.3854 32.6587 52.4809 34.0245 51.7536 35.1833C51.0264 36.3421 50.4589 37.294 50.0864 37.962L49.643 38.7247C49.5965 38.8149 49.5411 38.9 49.4774 38.979Z" fill="#455A64"/>
<path d="M57.1987 67.6003C57.4352 67.2574 59.0079 64.2244 59.0079 64.2244L67.8999 71.8985C67.8999 71.8985 76.6383 79.212 76.6383 78.739L78.0336 71.7034L79.7481 65.2945L82.9526 70.1425C82.9526 70.1425 93.0034 89.8895 93.0034 90.126C93.0034 90.3625 99.2409 110.819 99.2409 110.819L97.8988 119.096L97.7392 148.451L78.9559 147.664L75.2489 141.752L68.905 104.103L57.1987 67.6003Z" fill="white"/>
<path d="M78.2463 142.136H98.9688L105.076 173.619H63.5543L78.2463 142.136Z" fill="#093636"/>
<path d="M53.7991 72.4896L41.7026 77.0302L52.8768 126.794C52.8768 126.794 52.2206 140.238 49.8438 147.091C47.4671 153.943 41.8859 173.619 41.8859 173.619H79.0504C79.0504 173.619 80.629 146.612 80.0023 136.963C79.3756 127.314 79.6358 109.128 75.9406 99.6387C72.2454 90.1495 57.4352 66.8315 57.4352 66.8315L53.7991 72.4896Z" fill="#C6E1F6"/>
<path d="M80.3158 65.8618L85.7965 70.3906L100.849 72.6314C100.849 72.6314 107.973 98.4384 106.655 108.584C105.337 118.729 107.175 136.295 107.175 136.295L113.773 173.619H99.2883C99.2883 173.619 95.1497 129.969 94.9073 130.495C94.6649 131.021 93.8667 109.146 92.2881 102.051C90.7096 94.9561 82.7398 72.655 82.7398 72.655L80.3158 65.8618Z" fill="#C6E1F6"/>
<path d="M119.834 130.099C119.834 130.099 125.9 127.332 125.9 121.928C125.9 116.524 122.204 108.879 121.418 105.965C120.632 103.05 102.7 72.2234 100.855 72.6195L99.0105 73.0156L108.5 114.668L95.5814 117.831L101.092 133.687L119.834 130.099Z" fill="#C6E1F6"/>
<path d="M101.34 116.636L104 108.028L104.456 102.163L110.717 98.0247C110.717 98.0247 112.396 98.2198 111.899 99.5205C111.403 100.821 108.843 103.162 108.843 103.162L107.347 107.342L109.777 103.097L113.324 101.324L116.842 101.584C116.842 101.584 117.492 103.145 115.866 103.21H114.093L111.42 105.362L109.753 109.394L112.266 105.492L115.979 104.173L118.344 104.765C118.344 104.765 118.994 105.805 117.823 105.947C116.653 106.089 115.872 106.077 115.872 106.077L113.726 107.325L111.834 111.286L115.157 108.548L119.449 108.034C119.449 108.034 120.17 109.069 119.059 109.459C117.927 109.924 116.82 110.447 115.742 111.026L113.33 113.952L101.34 116.636Z" fill="#FFBE9D"/>
<path d="M80.1503 142.136C80.1206 142.074 80.0987 142.008 80.0853 141.941C80.0498 141.799 79.9966 141.604 79.9375 141.35C79.8015 140.823 79.6182 140.078 79.3462 139.127C78.8673 137.17 78.1638 134.397 77.3242 130.92C76.4847 127.444 75.4382 123.341 74.2676 118.777C73.6764 116.494 73.0497 114.1 72.3638 111.623C72.0268 110.387 71.6721 109.134 71.2878 107.868C71.0986 107.236 70.8858 106.603 70.6966 105.965C70.4745 105.333 70.2159 104.715 69.9221 104.114C67.705 99.6622 65.4406 95.4704 63.4186 91.6038C61.3966 87.7372 59.4692 84.2253 57.8374 81.1864L57.796 81.1036L57.861 81.0445C58.2749 80.672 58.6828 80.3232 59.0908 79.9921C59.2916 79.8233 59.5029 79.6673 59.7234 79.525L59.818 79.4718H59.8771C59.8771 79.4718 59.8771 79.4718 59.8416 79.5132C59.8319 79.5391 59.8326 79.5678 59.8436 79.5932C59.8547 79.6186 59.8752 79.6387 59.9008 79.6492H59.7352H59.3687C58.3872 79.6492 57.4649 79.6492 56.6136 79.6492H56.5485V79.5901C55.6853 77.3612 55.0054 75.5934 54.5324 74.3636L54.0062 72.9802L53.8762 72.6195L53.8407 72.4954C53.8407 72.4954 53.8407 72.5308 53.8998 72.6077L54.0535 72.9624L54.6448 74.3282C55.1355 75.552 55.8272 77.2843 56.7436 79.525L56.6549 79.4659C57.5122 79.4659 58.4286 79.4186 59.416 79.4186H59.7884C59.8593 79.4134 59.9304 79.4134 60.0013 79.4186H60.0368C60.052 79.4338 60.0627 79.4528 60.0679 79.4737C60.0732 79.4945 60.0726 79.5163 60.0663 79.5369C60.0308 79.6019 60.0368 79.5783 60.0249 79.5901H59.9717H59.9422C59.9173 79.6017 59.8935 79.6155 59.8712 79.6315C59.6636 79.769 59.466 79.9212 59.28 80.0867C58.8839 80.4178 58.4759 80.7666 58.0975 81.1391V80.9972C59.7352 84.0302 61.6449 87.5421 63.726 91.391C65.8071 95.2399 68.0538 99.4376 70.2768 103.901C70.5767 104.514 70.8393 105.143 71.0631 105.787C71.2701 106.432 71.4829 107.064 71.6544 107.703C72.0485 108.976 72.4072 110.231 72.7304 111.469C73.4103 113.946 74.0252 116.341 74.6105 118.629C75.793 123.199 76.7744 127.326 77.608 130.796L79.5354 139.02C79.7483 139.978 79.9197 140.729 80.038 141.261C80.0853 141.503 80.1266 141.698 80.1562 141.852C80.17 141.946 80.168 142.042 80.1503 142.136Z" fill="#093636"/>
<path d="M99.2883 112.864C99.2727 112.711 99.2727 112.557 99.2883 112.403C99.2883 112.066 99.3297 111.629 99.3652 111.079C99.3652 110.789 99.4007 110.488 99.4243 110.121V108.986C99.4243 108.164 99.4243 107.212 99.3652 106.213C99.0575 100.861 98.0069 95.5784 96.2435 90.5161C95.5251 88.3999 94.6801 86.3289 93.713 84.3141C92.851 82.3601 91.8737 80.4589 90.7865 78.6206C89.8228 76.9415 88.9359 75.4812 88.191 74.2751L86.4173 71.4549C86.2222 71.1475 86.0685 70.8637 85.9443 70.7041C85.8884 70.6172 85.839 70.5263 85.7965 70.4321C85.8694 70.5063 85.9347 70.5875 85.9916 70.6745L86.5001 71.4017C86.9376 72.0403 87.5643 72.9803 88.3329 74.1746C89.1015 75.3689 90.012 76.8233 90.9934 78.4965C92.097 80.3346 93.0843 82.2401 93.9495 84.2018C94.9356 86.2341 95.7907 88.3274 96.5096 90.4688C98.2862 95.555 99.3139 100.873 99.5603 106.255C99.6253 107.289 99.5898 108.223 99.5603 109.039C99.5603 109.447 99.5603 109.831 99.5307 110.18C99.5012 110.529 99.4716 110.848 99.4479 111.138C99.3947 111.688 99.3474 112.131 99.3179 112.462C99.3148 112.597 99.3049 112.731 99.2883 112.864Z" fill="#093636"/>
<path d="M120.283 129.868C120.162 129.914 120.037 129.947 119.91 129.969L118.828 130.217L114.743 131.11L100.459 134.143L100.335 134.172L100.293 134.048C99.1107 130.501 97.7746 126.622 96.397 122.549L94.9662 118.31L94.9071 118.15L95.0726 118.109L105.815 115.584L110.445 114.502L112.532 114.017C113.173 113.84 113.831 113.729 114.494 113.686C115.636 113.647 116.77 113.878 117.805 114.36C118.582 114.712 119.299 115.18 119.934 115.75C120.331 116.105 120.689 116.502 121.004 116.932C121.093 117.074 121.169 117.186 121.229 117.275C121.288 117.364 121.305 117.399 121.299 117.399C120.877 116.826 120.394 116.3 119.857 115.832C119.221 115.286 118.508 114.838 117.74 114.502C116.719 114.062 115.611 113.859 114.5 113.911C113.853 113.959 113.213 114.076 112.591 114.26L110.504 114.762L105.88 115.874C102.611 116.648 98.9866 117.511 95.1436 118.434L95.25 118.233L96.6867 122.472C98.0583 126.551 99.3709 130.436 100.565 133.983L100.4 133.888L114.707 130.968L118.81 130.152L119.898 129.945C120.024 129.911 120.153 129.885 120.283 129.868Z" fill="#093636"/>
<path d="M50.4589 150.543L70.2473 152.364L66.8418 158.419L46.0011 156.379L50.4589 150.543Z" fill="#C6E1F6"/>
<path d="M50.4587 150.532C50.4587 150.532 50.4587 150.579 50.3878 150.65L50.169 150.957L49.3058 152.14L46.0777 156.444L46.0068 156.278L66.1263 158.218L66.8594 158.288L66.7116 158.365L70.117 152.305L70.2294 152.524L56.0754 151.123L51.9368 150.703L50.8253 150.579C50.6937 150.571 50.5631 150.551 50.4351 150.52H50.8076L51.9013 150.597L56.0399 150.934L70.2648 152.217H70.4895L70.3772 152.418L66.9835 158.478L66.9303 158.56H66.8298L66.0967 158.49L45.995 156.473H45.8058L45.9181 156.326L49.2526 152.057L50.1513 150.922C50.2462 150.786 50.3488 150.656 50.4587 150.532Z" fill="#093636"/>
<path d="M103.728 152.577L106.82 158.418L113.466 157.059L109.942 151.678L103.728 152.577Z" fill="#C6E1F6"/>
<path d="M103.728 152.577C103.862 152.538 103.998 152.51 104.136 152.494L105.378 152.281C106.454 152.098 108.021 151.838 109.924 151.548H110.007L110.054 151.619C111.083 153.18 112.301 155.019 113.602 156.988L113.726 157.177L113.501 157.224L113.17 157.289L106.85 158.56H106.755L106.708 158.472C105.774 156.698 105.023 155.19 104.509 154.162C104.272 153.683 104.077 153.287 103.917 152.979C103.846 152.85 103.785 152.716 103.734 152.577C103.734 152.577 103.835 152.737 103.994 153.015L104.662 154.197C105.254 155.214 106.022 156.633 106.945 158.336L106.797 158.271L113.111 156.958L113.442 156.893L113.348 157.124C112.059 155.149 110.858 153.304 109.842 151.732L109.966 151.791C108.127 152.045 106.596 152.228 105.496 152.382L104.213 152.53C103.906 152.565 103.74 152.583 103.728 152.577Z" fill="#093636"/>
<g opacity="0.3">
<path opacity="0.3" d="M48.4135 156.621L47.5917 158.418L68.1486 160.304L69.6799 153.369L66.842 158.418L48.4135 156.621Z" fill="black"/>
</g>
<g opacity="0.3">
<path opacity="0.3" d="M52.6525 129.945C52.6525 129.945 55.8806 136.708 60.0724 138.689C65.7895 141.385 80.109 139.623 80.109 139.623L80.1504 135.514L63.5547 136.46L52.6525 129.945Z" fill="black"/>
</g>
<path d="M42.4775 76.7168C42.4775 76.7168 36.6776 77.113 36.5652 92.272C36.4529 107.431 54.2252 132.866 57.2582 135.372C60.2912 137.879 63.7617 139.558 72.8902 138.204C84.3482 136.508 92.3179 134.976 92.3179 134.976L90.7334 121.136L70.2652 120.213L53.6694 86.0878C53.6694 86.0878 48.1355 76.0369 42.4775 76.7168Z" fill="#C6E1F6"/>
<g opacity="0.3">
<path opacity="0.3" d="M95.6879 126.948C93.4412 126.013 90.9581 125.996 88.5045 125.99L78.832 125.96C76.7453 125.867 74.6552 126.04 72.6123 126.475C70.5511 126.923 68.7388 128.141 67.5455 129.88L62.4905 134.06C68.9628 135.628 75.7555 135.23 82.001 132.919C83.522 132.246 85.1065 131.727 86.7308 131.37C91.1 130.684 95.5223 133.22 99.8678 132.41C99.8738 129.975 97.9286 127.888 95.6879 126.948Z" fill="black"/>
</g>
<path d="M62.9219 112.865C64.8091 113.625 66.7472 114.254 68.7219 114.745C71.1907 115.258 73.6 116.024 75.9112 117.033C77.549 117.679 79.1497 118.415 80.7061 119.238L83.7568 129.88C83.7568 129.88 78.69 133.067 72.9728 132.901C67.2556 132.736 62.1888 134.586 61.4557 134.084C60.7226 133.581 60.6398 132.671 61.4557 132.263C62.2716 131.855 65.7362 131.364 65.7362 131.364L68.6923 130.14C68.6923 130.14 58.4818 131.039 57.6659 130.631C56.85 130.223 56.0341 129.649 56.3593 128.751C56.4357 128.503 56.5858 128.284 56.7897 128.123C56.9935 127.963 57.2414 127.868 57.5004 127.852C57.5004 127.852 55.2951 127.935 55.3779 127.036C55.4421 126.656 55.5838 126.292 55.7944 125.969C56.0049 125.646 56.2797 125.369 56.6017 125.156C56.9328 124.991 61.2133 123.252 61.2133 123.252L66.7235 122.153L61.4321 121.94L56.8087 123.229C56.8087 123.229 54.964 123.442 55.3779 121.887C55.7918 120.332 61.4557 118.605 61.4557 118.605L68.645 118.115C68.645 118.115 63.0875 117.299 62.514 115.584C62.3278 115.137 62.2674 114.647 62.3393 114.168C62.4112 113.688 62.6127 113.238 62.9219 112.865Z" fill="#FFBE9D"/>
<path d="M80.7061 119.238H81.0608L95.0906 118.617L99.2883 130.867L83.7568 129.856L80.7061 119.238Z" fill="#FFBE9D"/>
<path d="M68.4913 126.203C67.9239 126.29 67.3508 126.335 66.7768 126.339C65.7185 126.398 64.2581 126.522 62.6382 126.764C61.0182 127.007 59.617 127.32 58.5883 127.574C58.0379 127.74 57.4769 127.869 56.9092 127.959C57.4251 127.701 57.9686 127.503 58.5291 127.367C61.2 126.585 63.9644 126.167 66.7472 126.126C67.3296 126.087 67.9145 126.113 68.4913 126.203Z" fill="#EB996E"/>
<path d="M57.9616 93.8032C57.7822 93.596 57.6256 93.37 57.4945 93.1293C57.2107 92.6918 56.8087 92.0473 56.3121 91.2669C54.9684 89.2345 53.5178 87.2748 51.9666 85.396C50.4348 83.5033 48.7 81.7844 46.7933 80.2701C45.9778 79.6774 45.1311 79.1287 44.257 78.6265C44.5187 78.7037 44.7722 78.8067 45.0137 78.9339C45.3052 79.0693 45.5876 79.2233 45.8592 79.3951C46.2273 79.6065 46.5827 79.8394 46.9234 80.0927C48.8865 81.5697 50.6598 83.2835 52.203 85.195C53.7655 87.0832 55.1995 89.0742 56.4954 91.1546C56.992 91.9468 57.3704 92.609 57.6246 93.0701C57.7599 93.3033 57.8727 93.5488 57.9616 93.8032Z" fill="#093636"/>
<path d="M67.0428 113.994C66.9147 113.779 66.8097 113.551 66.7295 113.314L65.9609 111.428C65.3224 109.831 64.4178 107.632 63.3713 105.226C62.3248 102.819 61.3316 100.661 60.5985 99.1006C60.2555 98.3675 59.9659 97.7467 59.7412 97.256C59.6184 97.036 59.523 96.8017 59.4574 96.5583C59.6074 96.7604 59.7381 96.9762 59.8476 97.2028C60.0782 97.6226 60.4034 98.2374 60.7936 99.006C61.574 100.543 62.6027 102.689 63.6551 105.102C64.7075 107.514 65.5766 109.731 66.1678 111.345C66.4634 112.155 66.694 112.817 66.8418 113.272C66.9357 113.504 67.0031 113.746 67.0428 113.994Z" fill="#093636"/>
<path d="M76.4966 78.857C76.4966 78.857 76.3666 78.8156 76.1419 78.7033L75.1782 78.1948L71.7846 76.3206L71.9856 76.2201C71.82 77.7455 71.5422 79.5251 71.2584 81.4229C71.146 82.1974 71.0396 82.9483 70.9509 83.6696L70.9155 83.9474L70.7085 83.7701C68.8876 82.227 67.3149 80.8671 66.1916 79.8857L64.8909 78.7033C64.7261 78.5693 64.5755 78.4187 64.4415 78.2539C64.6286 78.3526 64.8016 78.4758 64.9559 78.6205L66.3216 79.7143C67.4745 80.6543 69.0768 81.9846 70.8977 83.5158L70.6553 83.6104C70.7381 82.8891 70.8386 82.1324 70.9569 81.3579C71.2347 79.4541 71.5481 77.6745 71.7195 76.161V75.96L71.891 76.0605L75.2314 78.0352L76.1537 78.6264C76.2786 78.6863 76.3941 78.7639 76.4966 78.857Z" fill="#093636"/>
<path d="M81.6819 70.1543C81.7196 70.4206 81.7295 70.69 81.7114 70.9584C81.7114 71.5496 81.7114 72.265 81.67 73.14C81.6227 74.9905 81.54 77.5387 81.4276 80.353C81.4276 80.4239 81.4276 80.4889 81.4276 80.5599V81.0506L81.1616 80.6367L77.7916 75.3157H77.9985C77.626 76.3385 77.3186 77.1958 77.0762 77.8521C76.9791 78.1715 76.8503 78.4805 76.6919 78.7744C76.749 78.4459 76.8361 78.1233 76.952 77.8107L77.7738 75.2388L77.8507 75.0024L77.9867 75.2093L81.4217 80.4889L81.1379 80.5658C81.1379 80.5008 81.1379 80.4298 81.1379 80.3648C81.2503 77.5505 81.3685 75.0024 81.469 73.1577C81.5281 72.2827 81.5695 71.5496 81.6109 70.9761C81.6071 70.7005 81.6309 70.4252 81.6819 70.1543Z" fill="#093636"/>
<path d="M100.234 78.3369C100.067 78.2737 99.9084 78.1903 99.7615 78.0886L99.8324 78.0413C100.205 79.3657 101.257 83.6875 102.452 88.8194C103.185 91.947 103.823 94.7789 104.273 96.8364C104.485 97.8238 104.657 98.6456 104.793 99.2723C104.869 99.5688 104.918 99.8715 104.941 100.177C104.829 99.8926 104.74 99.6 104.675 99.3018C104.515 98.6751 104.314 97.8652 104.083 96.8837C103.575 94.844 102.901 92.0179 102.174 88.8903C100.991 83.7585 100.01 79.4307 99.7615 78.0591V77.9526L99.8442 78.0118C99.9861 78.1051 100.117 78.2142 100.234 78.3369Z" fill="#093636"/>
<path d="M81.6817 136.762C81.5645 136.81 81.444 136.849 81.3211 136.88L80.2628 137.164C79.3405 137.406 77.9925 137.72 76.3193 138.027C74.3533 138.388 72.367 138.627 70.3716 138.742C67.9211 138.907 65.4595 138.744 63.0522 138.258C61.8033 137.993 60.5933 137.57 59.4516 136.998C58.9102 136.721 58.3887 136.407 57.8908 136.058C57.4314 135.698 57.0005 135.303 56.6019 134.876C55.2691 133.379 54.0329 131.8 52.9008 130.146C51.9194 128.751 51.1685 127.598 50.6541 126.794L50.0629 125.866C49.9917 125.759 49.9303 125.646 49.8796 125.529C49.9689 125.62 50.0481 125.722 50.1161 125.83C50.2758 126.061 50.4827 126.362 50.7428 126.729C51.2868 127.509 52.0672 128.644 53.0664 130.016C54.2171 131.635 55.4628 133.185 56.797 134.657C57.1832 135.073 57.6024 135.456 58.0504 135.804C58.5353 136.145 59.0452 136.45 59.5758 136.715C60.7001 137.276 61.8925 137.69 63.1231 137.944C65.503 138.427 67.9357 138.598 70.3597 138.453C72.341 138.346 74.3148 138.128 76.272 137.802C77.9452 137.519 79.2932 137.241 80.2214 137.04L81.2915 136.809C81.4188 136.775 81.5501 136.76 81.6817 136.762Z" fill="#093636"/>
<g opacity="0.3">
<path opacity="0.3" d="M54.3552 73.9026L55.922 81.3461L57.199 80.548L56.4659 82.3217L72.4822 111.369L70.4011 104.735L57.9321 81.1392L59.9068 79.5606H56.5901L54.3552 73.9026Z" fill="black"/>
</g>
<path d="M88.0019 103.417C87.8186 103.647 84.0229 114.141 84.0229 114.141L87.7654 111.776C87.7654 111.776 89.3263 116.341 89.2908 116.181C89.2553 116.021 92.2174 104.794 92.2174 104.794L88.0019 103.417Z" fill="#093636"/>
<path d="M94.9489 104.9C94.9489 104.9 97.7572 115.507 97.834 115.389C97.9109 115.271 99.3594 111.918 99.3594 111.918L102.984 114.218L99.1643 103.417L94.9489 104.9Z" fill="#093636"/>
<path d="M93.506 106.107C98.5509 106.107 102.641 102.017 102.641 96.9723C102.641 91.9275 98.5509 87.8379 93.506 87.8379C88.4612 87.8379 84.3716 91.9275 84.3716 96.9723C84.3716 102.017 88.4612 106.107 93.506 106.107Z" fill="#455A64"/>
<path d="M100.654 96.6825C100.6 96.0995 100.507 95.5208 100.376 94.9502C99.9625 93.4066 99.0448 92.0456 97.7689 91.0836C96.8318 90.3769 95.7324 89.9167 94.5714 89.7453C93.4103 89.5738 92.2248 89.6965 91.1235 90.1021C90.4864 90.3254 89.888 90.6466 89.3498 91.054C88.7816 91.4695 88.2827 91.9724 87.8717 92.5439C86.9873 93.7425 86.5102 95.1929 86.5102 96.6825C86.5102 98.1721 86.9873 99.6225 87.8717 100.821C88.2795 101.395 88.7789 101.899 89.3498 102.311C89.888 102.72 90.4863 103.043 91.1235 103.269C92.2255 103.672 93.411 103.794 94.5719 103.621C95.7327 103.449 96.8319 102.988 97.7689 102.281C99.0478 101.325 99.9664 99.9644 100.376 98.4207C100.507 97.85 100.6 97.2713 100.654 96.6884C100.671 96.8397 100.671 96.9924 100.654 97.1436C100.656 97.3297 100.642 97.5156 100.613 97.6994C100.588 97.953 100.543 98.2041 100.477 98.4502C100.1 100.044 99.1851 101.46 97.8871 102.459C96.9246 103.203 95.7895 103.692 94.5874 103.88C93.3852 104.068 92.1551 103.949 91.0111 103.535C90.3488 103.299 89.7251 102.966 89.1606 102.547C88.5682 102.118 88.0474 101.597 87.6175 101.004C86.6921 99.7557 86.1925 98.2426 86.1925 96.6884C86.1925 95.1342 86.6921 93.6211 87.6175 92.3724C88.0519 91.7725 88.5811 91.2473 89.1843 90.8175C89.7459 90.394 90.3703 90.0609 91.0348 89.8302C92.2598 89.3884 93.581 89.2843 94.86 89.5286C96.2187 89.7886 97.4735 90.435 98.474 91.3904C99.4744 92.3457 100.178 93.5694 100.5 94.9147C100.566 95.1608 100.612 95.412 100.636 95.6656C100.665 95.8474 100.679 96.0313 100.678 96.2154C100.687 96.3715 100.679 96.5281 100.654 96.6825Z" fill="#093636"/>
<g opacity="0.2">
<path opacity="0.2" d="M95.6522 88.092L84.3716 98.2257L85.087 100.52L97.9816 89.0025C97.292 88.5118 96.4918 88.199 95.6522 88.092Z" fill="white"/>
</g>
<g opacity="0.2">
<path opacity="0.2" d="M99.0047 89.6707C98.9574 89.6353 85.8203 101.909 85.8203 101.909L86.6007 102.95C86.6303 102.979 99.8147 90.3625 99.8147 90.3625L99.0047 89.6707Z" fill="white"/>
</g>
<path d="M94.5882 93.614V100.756H92.9327V94.9561H91.502V93.6317L94.5882 93.614Z" fill="white"/>
<g opacity="0.3">
<path opacity="0.3" d="M87.4933 96.6826C87.4933 92.9402 90.142 89.8717 93.5061 89.5583C93.3228 89.5583 93.1336 89.5583 92.9148 89.5583C89.2788 89.5583 86.3345 92.7569 86.3345 96.7063C86.3345 100.656 89.2906 103.854 92.9148 103.854C93.1099 103.854 93.2991 103.854 93.5061 103.825C90.142 103.488 87.4933 100.419 87.4933 96.6826Z" fill="black"/>
</g>
<g opacity="0.3">
<path opacity="0.3" d="M98.969 6.31348L100.654 65.8618L132.769 75.351V6.31348H98.969Z" fill="white"/>
</g>
<path d="M52.6523 120.048C52.7173 120.101 47.7215 126.191 41.4899 133.646C35.2584 141.101 30.1561 147.096 30.0911 147.043C30.026 146.99 35.0219 140.9 41.2534 133.445C47.485 125.99 52.5873 119.995 52.6523 120.048Z" fill="white"/>
<path d="M55.3483 108.448C55.4074 108.501 49.9563 114.727 43.169 122.348C36.3817 129.969 30.8242 136.106 30.7532 136.046C30.6823 135.987 36.1393 129.768 42.9266 122.147C49.7139 114.526 55.2833 108.389 55.3483 108.448Z" fill="white"/>
<path d="M125.19 49.0946C125.255 49.1478 119.219 56.0179 111.704 64.4251C104.19 72.8324 98.0527 79.6138 97.9936 79.5842C97.9345 79.5546 103.965 72.6314 111.479 64.2123C118.994 55.7932 125.125 49.0355 125.19 49.0946Z" fill="white"/>
<path d="M35.0397 6.05322L35.8497 16.849C35.946 18.2636 36.541 19.5981 37.5288 20.6151C37.776 20.8674 38.0365 21.1062 38.3092 21.3305C39.36 22.1936 40.6491 22.7154 42.0044 22.8263L49.8913 23.4944L41.2949 24.3458C40.6718 24.41 40.0775 24.6407 39.5744 25.0139C39.3793 25.1617 39.1901 25.3095 38.9832 25.4691C37.3478 26.8949 36.3302 28.9003 36.1453 31.0621L35.5541 37.4533L34.9037 31.541C34.776 30.2601 34.3543 29.026 33.6713 27.9348C32.9883 26.8437 32.0625 25.925 30.9662 25.2504L30.913 25.2149C30.4739 24.96 29.9826 24.8084 29.4763 24.7715L20.0107 24.0502L28.2406 23.2875C29.8637 23.151 31.3794 22.4205 32.4975 21.2359C32.7221 20.9935 32.9409 20.7334 33.1478 20.4673C33.8556 19.5224 34.2672 18.3886 34.3303 17.2097L35.0397 6.05322Z" fill="white"/>
<path d="M10.3974 33.2085L10.9176 40.185C10.9817 41.0981 11.3671 41.959 12.0055 42.6149C12.1643 42.7797 12.3321 42.9356 12.508 43.082C13.1824 43.6322 14.0061 43.9678 14.8729 44.0457L19.9693 44.4773L14.4295 45.0271C14.0268 45.068 13.6427 45.2171 13.318 45.4587C13.1879 45.5533 13.0697 45.6479 12.9514 45.7484C11.8957 46.6698 11.2387 47.9648 11.1186 49.3608L10.7284 53.4994L10.3146 49.6919C10.2306 48.8646 9.957 48.0677 9.51507 47.3633C9.07313 46.6589 8.47474 46.0658 7.76638 45.6302H7.73091C7.44784 45.4646 7.12998 45.3674 6.80269 45.3464L0.653931 44.8616L5.97497 44.3709C7.0231 44.2827 8.00193 43.8112 8.72418 43.0465C8.87199 42.8869 9.01388 42.7213 9.14394 42.5499C9.60693 41.9416 9.87673 41.2084 9.91845 40.4451L10.3974 33.2085Z" fill="white"/>
<path d="M116.369 182.552H42.2822C40.519 182.552 39.0896 183.982 39.0896 185.745V198.149C39.0896 199.912 40.519 201.342 42.2822 201.342H116.369C118.132 201.342 119.562 199.912 119.562 198.149V185.745C119.562 183.982 118.132 182.552 116.369 182.552Z" fill="#C6E1F6"/>
<g opacity="0.3">
<path opacity="0.3" d="M76.4136 182.552L60.3086 201.342H65.8957L82.1367 182.552H76.4136Z" fill="white"/>
</g>
<path d="M64.1753 189.464V190.327H60.5688V185.668H64.1162V186.531H61.6626V187.542H63.8265V188.37H61.6626V189.452L64.1753 189.464Z" fill="white"/>
<path d="M69.2718 190.327V187.531L67.9001 189.836H67.4153L66.0496 187.59V190.327H65.0386V185.668H65.9313L67.705 188.565L69.4255 185.668H70.265V190.327H69.2718Z" fill="white"/>
<path d="M75.4321 187.359C75.4321 188.394 74.6516 189.044 73.4041 189.044H72.47V190.327H71.3881V185.668H73.4041C74.6516 185.668 75.4321 186.313 75.4321 187.359ZM74.3383 187.359C74.3383 186.845 74.0072 186.543 73.345 186.543H72.47V188.163H73.345C74.0072 188.163 74.3383 187.862 74.3383 187.359Z" fill="white"/>
<path d="M76.1771 185.668H77.2532V189.446H79.6181V190.327H76.1771V185.668Z" fill="white"/>
<path d="M79.8428 187.998C79.8132 187.487 79.9376 186.979 80.1999 186.54C80.4622 186.101 80.8504 185.751 81.314 185.535C81.7777 185.319 82.2956 185.247 82.8005 185.328C83.3055 185.41 83.7743 185.642 84.1462 185.993C84.5181 186.344 84.776 186.799 84.8864 187.298C84.9969 187.798 84.9549 188.319 84.7657 188.794C84.5766 189.269 84.2491 189.677 83.8257 189.964C83.4023 190.251 82.9025 190.404 82.391 190.404C82.0634 190.422 81.7356 190.374 81.4274 190.261C81.1193 190.149 80.8373 189.975 80.5988 189.749C80.3603 189.524 80.1702 189.253 80.0403 188.951C79.9103 188.65 79.8431 188.326 79.8428 187.998ZM83.8513 187.998C83.8455 187.71 83.7549 187.431 83.591 187.194C83.427 186.958 83.1969 186.776 82.9296 186.67C82.6623 186.564 82.3697 186.539 82.0884 186.599C81.8071 186.658 81.5496 186.8 81.3484 187.005C81.1471 187.21 81.0109 187.47 80.9569 187.753C80.9029 188.035 80.9335 188.327 81.0449 188.593C81.1562 188.858 81.3433 189.084 81.5828 189.243C81.8223 189.402 82.1034 189.487 82.391 189.487C82.5879 189.495 82.7842 189.462 82.9674 189.389C83.1507 189.317 83.3169 189.207 83.4553 189.067C83.5938 188.927 83.7016 188.759 83.7718 188.575C83.842 188.391 83.8731 188.194 83.8631 187.998H83.8513Z" fill="white"/>
<path d="M87.7891 188.678V190.327H86.7072V188.66L84.9039 185.668H86.0509L87.2925 187.738L88.54 185.668H89.5983L87.7891 188.678Z" fill="white"/>
<path d="M93.6126 189.464V190.327H90.0002V185.668H93.5476V186.531H91.0763V187.542H93.2402V188.37H91.0763V189.452L93.6126 189.464Z" fill="white"/>
<path d="M98.0528 189.464V190.327H94.4463V185.668H97.9641V186.531H95.5164V187.542H97.6803V188.37H95.5164V189.452L98.0528 189.464Z" fill="white"/>
<g opacity="0.3">
<path opacity="0.3" d="M117.119 185.148C117.121 185.365 117.057 185.577 116.938 185.758C116.818 185.939 116.647 186.08 116.447 186.163C116.247 186.247 116.026 186.269 115.814 186.227C115.601 186.185 115.406 186.081 115.252 185.927C115.099 185.774 114.995 185.578 114.953 185.366C114.911 185.153 114.933 184.933 115.016 184.733C115.1 184.532 115.241 184.362 115.422 184.242C115.602 184.122 115.815 184.059 116.032 184.06C116.32 184.06 116.597 184.175 116.801 184.379C117.005 184.583 117.119 184.859 117.119 185.148Z" fill="black"/>
</g>
<g opacity="0.3">
<path opacity="0.3" d="M117.119 198.285C117.121 198.502 117.057 198.714 116.938 198.895C116.818 199.076 116.647 199.217 116.447 199.3C116.247 199.384 116.026 199.406 115.814 199.364C115.601 199.322 115.406 199.218 115.252 199.064C115.099 198.911 114.995 198.715 114.953 198.503C114.911 198.29 114.933 198.07 115.016 197.87C115.1 197.669 115.241 197.499 115.422 197.379C115.602 197.259 115.815 197.196 116.032 197.197C116.32 197.197 116.597 197.312 116.801 197.516C117.005 197.72 117.119 197.996 117.119 198.285Z" fill="black"/>
</g>
<g opacity="0.3">
<path opacity="0.3" d="M42.7551 185.414C42.7551 185.629 42.6913 185.839 42.5717 186.018C42.4522 186.197 42.2823 186.337 42.0835 186.419C41.8847 186.501 41.666 186.523 41.455 186.481C41.2439 186.439 41.0501 186.335 40.898 186.183C40.7458 186.031 40.6422 185.837 40.6002 185.626C40.5583 185.415 40.5798 185.196 40.6622 184.997C40.7445 184.799 40.8839 184.629 41.0628 184.509C41.2417 184.39 41.4521 184.326 41.6672 184.326C41.9557 184.326 42.2324 184.441 42.4364 184.645C42.6405 184.849 42.7551 185.125 42.7551 185.414Z" fill="black"/>
</g>
<g opacity="0.3">
<path opacity="0.3" d="M43.1337 198.285C43.1337 198.5 43.0699 198.71 42.9504 198.889C42.8309 199.068 42.6609 199.208 42.4622 199.29C42.2634 199.372 42.0447 199.394 41.8336 199.352C41.6226 199.31 41.4288 199.206 41.2766 199.054C41.1245 198.902 41.0209 198.708 40.9789 198.497C40.9369 198.286 40.9585 198.067 41.0408 197.869C41.1232 197.67 41.2626 197.5 41.4415 197.38C41.6204 197.261 41.8307 197.197 42.0459 197.197C42.3344 197.197 42.6111 197.312 42.8151 197.516C43.0191 197.72 43.1337 197.996 43.1337 198.285Z" fill="black"/>
</g>
<g opacity="0.3">
<path opacity="0.3" d="M70.8561 182.552L54.3668 201.342H52.061L68.3257 182.552H70.8561Z" fill="white"/>
</g>
<path d="M49.4657 195.465C49.4277 194.874 49.5684 194.285 49.8693 193.774C50.1702 193.264 50.6175 192.856 51.1533 192.603C51.689 192.35 52.2884 192.263 52.8737 192.355C53.459 192.447 54.0033 192.713 54.4358 193.117C54.8684 193.522 55.1693 194.048 55.2995 194.626C55.4298 195.204 55.3834 195.808 55.1663 196.359C54.9492 196.91 54.5714 197.383 54.0821 197.717C53.5927 198.051 53.0143 198.231 52.4218 198.232C52.0428 198.258 51.6626 198.205 51.3047 198.078C50.9469 197.951 50.6191 197.751 50.3418 197.491C50.0645 197.232 49.8436 196.918 49.6928 196.569C49.5421 196.221 49.4648 195.845 49.4657 195.465ZM54.0654 195.465C54.0584 195.136 53.9544 194.816 53.7663 194.545C53.5783 194.275 53.3146 194.066 53.0083 193.945C52.702 193.823 52.3668 193.795 52.0446 193.864C51.7224 193.932 51.4276 194.094 51.1971 194.33C50.9667 194.565 50.8108 194.863 50.7491 195.187C50.6873 195.51 50.7225 195.845 50.8501 196.149C50.9777 196.452 51.1921 196.712 51.4665 196.894C51.7408 197.076 52.0628 197.173 52.3922 197.174C52.6164 197.179 52.8392 197.138 53.0468 197.053C53.2544 196.969 53.4425 196.842 53.5994 196.682C53.7562 196.522 53.8785 196.331 53.9587 196.122C54.0388 195.912 54.0752 195.689 54.0654 195.465Z" fill="white"/>
<path d="M57.4827 193.768V195.181H59.96V196.174H57.4827V198.125H56.2471V192.775H60.2911V193.768H57.4827Z" fill="white"/>
<path d="M64.4 193.786H62.6854V192.775H67.3443V193.786H65.6357V198.125H64.4V193.786Z" fill="white"/>
<path d="M72.9136 192.775V198.125H71.6779V195.932H69.248V198.125H68.0123V192.775H69.248V194.873H71.6779V192.763L72.9136 192.775Z" fill="white"/>
<path d="M78.3235 197.132V198.125H74.1849V192.775H78.223V193.768H75.4147V194.95H77.8978V195.914H75.4147V197.15L78.3235 197.132Z" fill="white"/>
<path d="M86.3343 198.125V194.915L84.7617 197.558H84.2L82.6333 194.986V198.125H81.4508V192.775H82.4736L84.4779 196.103L86.4467 192.775H87.4636V198.125H86.3343Z" fill="white"/>
<path d="M88.4274 195.465C88.3895 194.872 88.5308 194.282 88.833 193.771C89.1352 193.26 89.5843 192.852 90.1218 192.6C90.6593 192.347 91.2603 192.263 91.8465 192.357C92.4327 192.451 92.977 192.72 93.4084 193.128C93.8398 193.536 94.1385 194.064 94.2654 194.644C94.3923 195.224 94.3416 195.829 94.1199 196.38C93.8982 196.93 93.5157 197.402 93.0224 197.732C92.5291 198.062 91.9477 198.236 91.354 198.232C90.9775 198.254 90.6004 198.198 90.2461 198.069C89.8917 197.94 89.5675 197.739 89.2935 197.48C89.0194 197.221 88.8012 196.908 88.6522 196.562C88.5033 196.215 88.4268 195.842 88.4274 195.465ZM93.0272 195.465C93.0202 195.136 92.9162 194.816 92.7281 194.545C92.5401 194.275 92.2764 194.066 91.9701 193.945C91.6638 193.823 91.3286 193.795 91.0064 193.864C90.6842 193.932 90.3894 194.094 90.1589 194.33C89.9285 194.565 89.7726 194.863 89.7109 195.187C89.6491 195.51 89.6843 195.845 89.8119 196.149C89.9395 196.452 90.1539 196.711 90.4282 196.894C90.7026 197.076 91.0246 197.173 91.354 197.173C91.5784 197.179 91.8016 197.139 92.0096 197.055C92.2177 196.971 92.4061 196.844 92.5631 196.684C92.7202 196.524 92.8424 196.333 92.9223 196.123C93.0021 195.913 93.0378 195.689 93.0272 195.465Z" fill="white"/>
<path d="M100.116 192.775V198.125H99.0992L96.4328 194.874V198.119H95.209V192.769H96.2377L98.8923 196.021V192.769L100.116 192.775Z" fill="white"/>
<path d="M102.493 193.786H100.778V192.775H105.437V193.786H103.728V198.125H102.493V193.786Z" fill="white"/>
<path d="M111.007 192.775V198.125H109.771V195.932H107.341V198.125H106.105V192.775H107.341V194.873H109.771V192.763L111.007 192.775Z" fill="white"/>
<path d="M107.193 180.495L107.435 183.7C107.464 184.117 107.64 184.511 107.932 184.811C108.279 185.183 108.75 185.416 109.256 185.467L111.621 185.668L109.079 185.923C108.895 185.939 108.719 186.007 108.57 186.118L108.399 186.254C107.915 186.676 107.614 187.269 107.559 187.909L107.382 189.807L107.187 188.033C107.147 187.653 107.02 187.286 106.814 186.963C106.609 186.64 106.332 186.369 106.005 186.171C105.874 186.096 105.729 186.051 105.579 186.041L102.759 185.816L105.195 185.591C105.674 185.554 106.123 185.344 106.46 185L106.649 184.77C106.862 184.492 106.986 184.156 107.004 183.806L107.193 180.495Z" fill="white"/>
</svg>
