<svg width="140" height="210" viewBox="0 0 140 210" fill="none" xmlns="http://www.w3.org/2000/svg">
<path d="M44.9624 152.571C48.2511 135.993 51.5605 119.312 51.9522 102.415C52.0862 96.3016 51.3336 89.2086 46.2408 85.8374C43.6428 84.126 40.4262 83.7755 37.3333 83.4972C34.2405 83.2188 30.8383 83.0332 28.0548 84.5281C24.9619 86.2086 23.1887 89.6829 21.9412 92.9922C19.2505 100.209 17.9102 108.054 13.9514 114.642C10.1678 120.962 4.12642 125.983 1.85833 133.024C-0.409758 140.065 1.7037 147.921 6.34297 153.571C10.9822 159.22 17.8999 162.695 25.0753 164.128C29.4981 165.004 34.3539 165.097 38.2612 162.88C42.7046 160.365 44.1582 157.818 44.9521 152.571" fill="#455A64"/>
<path d="M31.56 87.8066C31.2404 87.9715 30.1888 86.7757 29.0341 84.4045C28.7455 83.8203 28.4568 83.1708 28.1681 82.456C28.0341 82.1054 27.8898 81.7343 27.7557 81.3528C27.5417 80.8467 27.4263 80.3043 27.4155 79.7549C27.4323 79.294 27.5868 78.8488 27.8588 78.4765C28.0941 78.1607 28.3925 77.8974 28.7351 77.7033C29.2066 77.4525 29.7001 77.2454 30.2094 77.0847C31.2081 76.7447 32.2488 76.5435 33.3023 76.4868C34.4268 76.4003 35.5566 76.5622 36.6116 76.961C37.6584 77.3737 38.5566 78.0922 39.189 79.0229C40.135 80.4782 40.5535 82.214 40.3746 83.9405C40.29 85.0028 40.0431 86.0459 39.6426 87.0334C39.3642 87.7035 39.1168 88.0643 38.9312 88.0643C38.7457 88.0643 38.6529 87.6107 38.6116 86.8994C38.5704 86.188 38.6116 85.1674 38.4776 84.0127C38.3897 82.7582 37.9423 81.5556 37.1889 80.5487C36.7962 80.0519 36.2708 79.6766 35.6734 79.4662C34.9543 79.2396 34.1979 79.1556 33.4466 79.2188C32.619 79.2689 31.7996 79.4107 31.0032 79.6415C30.6519 79.7344 30.3074 79.8515 29.9723 79.992L29.8692 80.0539L29.7455 79.9508C29.6733 79.9508 29.6115 79.8786 29.663 79.9508H29.7867H29.8898C29.8872 80.2212 29.9326 80.49 30.0238 80.7446C30.1063 81.1157 30.1991 81.4766 30.2816 81.8374L30.8074 83.7859C31.4775 86.1158 31.9002 87.621 31.56 87.8066Z" fill="#455A64"/>
<path d="M25.7868 164.623C25.6027 164.399 25.4372 164.161 25.2919 163.911C24.8291 163.23 24.4354 162.505 24.1167 161.746C23.0153 158.897 22.6604 155.813 23.0857 152.787C23.4569 148.931 25.1476 144.612 27.0858 139.983C28.1404 137.572 29.0594 135.104 29.8384 132.591C30.6165 129.897 31.1411 127.135 31.4055 124.343C31.8284 118.899 31.856 113.431 31.4879 107.982C31.2714 102.941 31.0034 98.3943 31.2302 94.5798C31.2896 91.526 32.1461 88.5407 33.7148 85.9198C34.173 85.2317 34.7169 84.6046 35.3334 84.0538C35.5515 83.8663 35.7823 83.694 36.0241 83.5383C35.2124 84.2786 34.4956 85.1166 33.8901 86.0332C32.4196 88.6509 31.6358 91.5982 31.6117 94.6004C31.4364 98.3943 31.7354 102.941 31.9828 108.003C32.3947 113.473 32.3947 118.966 31.9828 124.436C31.7148 127.277 31.1798 130.087 30.3848 132.828C29.5882 135.354 28.6556 137.836 27.591 140.261C25.5909 144.88 23.9208 149.127 23.4672 152.911C23.0154 155.882 23.3131 158.919 24.3332 161.746C24.7342 162.745 25.2206 163.707 25.7868 164.623Z" fill="#093636"/>
<path d="M27.8589 138.21C27.7764 138.344 22.7866 135.591 16.704 132.075C10.6214 128.56 5.75529 125.601 5.82745 125.477C5.89962 125.354 10.8997 128.096 16.9823 131.612C23.0649 135.127 27.931 138.137 27.8589 138.21Z" fill="#093636"/>
<path d="M32.3126 83.353C32.3126 83.353 31.6734 83.7345 30.6012 84.518C29.0966 85.6413 27.8195 87.0409 26.8383 88.6418C25.44 91.0107 24.5614 93.6499 24.2609 96.3842C23.8849 99.7695 23.7127 103.174 23.7454 106.58C23.7334 110.012 23.4299 113.437 22.8382 116.818C22.3445 119.577 21.6344 122.294 20.7144 124.942C20.1019 126.729 19.3824 128.478 18.5597 130.179C18.2814 130.787 18.0339 131.21 17.8587 131.55C17.6834 131.89 17.6009 132.014 17.5803 132.004C17.8086 131.353 18.0736 130.717 18.3742 130.096C18.8896 128.869 19.6216 127.086 20.3536 124.828C21.2147 122.182 21.8832 119.478 22.3536 116.735C22.912 113.375 23.1981 109.976 23.2093 106.57C23.179 103.142 23.3684 99.7158 23.7763 96.3121C24.1103 93.4986 25.0645 90.7944 26.5702 88.3944C27.6077 86.7909 28.9576 85.413 30.5394 84.3427C30.9674 84.0565 31.4115 83.7949 31.8693 83.5592C32.0055 83.468 32.1551 83.3985 32.3126 83.353Z" fill="white"/>
<path d="M97.8398 85.5593L111.067 91.1677L121.851 65.4558L131.696 67.2909C131.696 67.2909 126.541 97.2812 125.016 102.168C123.016 108.529 114.119 112.477 108.582 110.044C103.046 107.611 90.7778 103.436 90.7778 103.436L97.8398 85.5593Z" fill="#FFBE9D"/>
<path d="M86.6846 75.4248L104.685 87.4148L99.7983 110.735L89.2619 105.632L86.6846 75.4248Z" fill="#C5CBF1"/>
<g opacity="0.3">
<path opacity="0.3" d="M87.2312 77.8164C88.25 87.7056 89.882 97.522 92.1179 107.209L92.5612 107.126C93.7979 102.142 93.9623 96.9517 93.0434 91.899C92.1246 86.8464 90.1435 82.0463 87.2312 77.8164Z" fill="black"/>
</g>
<path d="M60.3956 62.1877C60.1216 61.9074 59.7734 61.711 59.3918 61.6216C59.0102 61.5321 58.6109 61.5533 58.2409 61.6826C55.1481 62.3321 53.014 64.9301 51.2408 67.4765C45.0386 76.3209 40.764 86.3698 38.6941 96.972L38.4673 98.0751C39.428 99.6352 40.7372 100.951 42.2921 101.921C43.921 102.756 46.1788 102.653 47.2819 101.199C47.9077 100.145 48.1989 98.9266 48.117 97.704C48.2219 91.8233 49.0705 85.9795 50.6428 80.3118C52.2432 74.6273 55.2213 69.4254 59.3131 65.1672C60.1379 64.3527 61.0657 63.1259 60.3956 62.1877Z" fill="#455A64"/>
<path d="M70.3134 7.08296C70.5711 5.24787 72.6949 3.16534 74.3135 2.25811C75.9647 1.40665 77.7864 0.938001 79.6435 0.886942C84.4351 0.648292 89.2003 1.72955 93.4197 4.01284C97.639 6.29614 101.151 9.69386 103.572 13.8357C104.661 15.5222 105.215 17.4989 105.16 19.5059C104.964 21.4853 103.52 23.4647 101.541 23.6297C102.142 24.115 102.599 24.7547 102.864 25.4801C103.13 26.2055 103.192 26.9894 103.046 27.7478C102.9 28.5062 102.55 29.2105 102.035 29.7854C101.519 30.3603 100.856 30.7841 100.118 31.0113C100.665 33.7846 98.7882 36.4547 96.7366 38.4032C88.7468 45.991 76.7981 48.29 65.9009 46.6508C62.1792 46.0941 58.3647 45.0322 55.5914 42.527C51.5913 38.8053 50.7459 32.8464 50.6222 27.3927C50.3358 27.9485 49.8414 28.3686 49.2467 28.5617C48.6521 28.7547 48.0052 28.7051 47.4469 28.4236C46.907 28.1061 46.4701 27.6396 46.1885 27.0801C45.9069 26.5206 45.7926 25.8917 45.8592 25.2689C46.0173 24.0209 46.6084 22.868 47.5294 22.0111C46.7141 22.2198 45.8642 22.2549 45.0345 22.1142C44.6227 22.0341 44.2453 21.8303 43.9524 21.53C43.6595 21.2298 43.4651 20.8473 43.3953 20.4338C43.407 20.0171 43.5322 19.6116 43.7575 19.261C43.9828 18.9103 44.2996 18.6278 44.6736 18.444C45.3953 18.0316 46.2201 17.8151 46.952 17.4131C49.6634 15.9285 50.3336 12.4336 51.8594 9.74282C52.7485 8.1812 53.9829 6.84359 55.4683 5.83233C56.9538 4.82106 58.6508 4.16292 60.4296 3.90823C62.2085 3.65354 64.022 3.80906 65.7315 4.36289C67.441 4.91672 69.0012 5.85417 70.2928 7.10357" fill="#093636"/>
<path d="M97.4584 25.331C97.1182 17.9906 89.3448 10.5368 81.9942 11.1863L58.2205 15.3101V19.2587L58.8493 68.1257C58.8493 68.1257 60.6123 83.9199 73.9218 83.2497C85.8808 82.6415 85.4375 70.0123 85.4375 70.002L85.2313 60.7853C85.2313 60.7853 94.8913 60.5688 97.0357 48.4139C98.1801 42.2592 97.8502 33.4858 97.4584 25.331Z" fill="#FFBE9D"/>
<path d="M94.18 34.1664C94.1748 34.5741 94.0119 34.9639 93.7255 35.2542C93.4391 35.5444 93.0515 35.7125 92.6439 35.7231C92.444 35.7342 92.2438 35.7056 92.055 35.6389C91.8663 35.5722 91.6926 35.4688 91.544 35.3346C91.3954 35.2004 91.2749 35.0381 91.1894 34.857C91.1039 34.676 91.0551 34.4798 91.0459 34.2798C91.0511 33.8721 91.214 33.4822 91.5004 33.192C91.7867 32.9017 92.1744 32.7337 92.582 32.723C92.7819 32.7119 92.9821 32.7405 93.1708 32.8072C93.3596 32.8739 93.5333 32.9773 93.6819 33.1115C93.8305 33.2458 93.951 33.4081 94.0365 33.5891C94.122 33.7702 94.1708 33.9664 94.18 34.1664Z" fill="#093636"/>
<path d="M95.211 30.9186C95.0151 31.1248 93.8399 30.2278 92.1182 30.1969C90.3965 30.166 89.18 31.0011 89.0253 30.7846C88.8707 30.5681 89.149 30.3309 89.6954 29.9495C90.4307 29.4531 91.3036 29.2006 92.1903 29.2278C93.0685 29.2367 93.9209 29.5256 94.6234 30.0526C95.1389 30.465 95.3141 30.8464 95.211 30.9186Z" fill="#093636"/>
<path d="M79.0867 34.5685C79.0815 34.9762 78.9187 35.366 78.6323 35.6563C78.3459 35.9465 77.9582 36.1146 77.5506 36.1252C77.3507 36.1363 77.1506 36.1077 76.9618 36.041C76.773 35.9743 76.5993 35.8709 76.4507 35.7367C76.3021 35.6025 76.1816 35.4402 76.0961 35.2591C76.0106 35.0781 75.9619 34.8819 75.9526 34.6819C75.9578 34.2742 76.1207 33.8843 76.4071 33.5941C76.6935 33.3038 77.0811 33.1358 77.4888 33.1251C77.6887 33.114 77.8888 33.1426 78.0776 33.2093C78.2664 33.276 78.4401 33.3794 78.5887 33.5136C78.7372 33.6479 78.8578 33.8102 78.9433 33.9912C79.0287 34.1723 79.0775 34.3685 79.0867 34.5685Z" fill="#093636"/>
<path d="M78.9012 31.1971C78.695 31.393 77.53 30.496 75.8083 30.4754C74.0866 30.4548 72.8701 31.2692 72.7155 31.0631C72.5608 30.8569 72.8289 30.5991 73.3753 30.2177C74.1126 29.7257 74.984 29.4736 75.8702 29.496C76.7483 29.5048 77.6007 29.7938 78.3032 30.3208C78.8187 30.7331 78.9837 31.1043 78.9012 31.1971Z" fill="#093636"/>
<path d="M84.5509 43.1459C85.4517 42.9168 86.3745 42.7854 87.3035 42.7541C87.7365 42.7541 88.1489 42.651 88.221 42.4036C88.2932 42.1562 88.1592 41.7438 87.9633 41.3726L86.7571 38.5788C85.0869 34.6096 83.891 31.3621 84.0869 31.2796C84.2828 31.1972 85.7777 34.3725 87.4478 38.3726C87.8499 39.352 88.2314 40.2901 88.6025 41.1768C88.8527 41.6144 88.9194 42.1334 88.7881 42.6201C88.7149 42.7562 88.612 42.8741 88.4871 42.9652C88.3622 43.0562 88.2184 43.1179 88.0664 43.1459C87.8251 43.192 87.5801 43.2162 87.3344 43.218C86.4066 43.2933 85.4735 43.2691 84.5509 43.1459Z" fill="#093636"/>
<path d="M85.3754 60.8163C79.6211 60.8069 73.9822 59.2009 69.0864 56.177C69.0864 56.177 73.2102 64.7133 85.4373 63.7751L85.3754 60.8163Z" fill="#FFBE9D"/>
<path d="M80.0043 46.6113C80.2827 46.6113 80.2518 48.436 81.7982 49.7041C83.3446 50.9722 85.2931 50.8691 85.3034 51.1268C85.3137 51.3846 84.8601 51.467 84.0353 51.4773C82.9697 51.4818 81.9353 51.1175 81.1075 50.4464C80.3243 49.7773 79.8295 48.832 79.726 47.8072C79.6641 47.0546 79.9322 46.6009 80.0043 46.6113Z" fill="#093636"/>
<path d="M79.4373 27.4856C79.2002 28.0733 77.5609 27.6093 75.5609 27.7124C73.5608 27.8155 71.8907 28.3516 71.6845 27.7846C71.602 27.5063 71.9319 26.9702 72.6433 26.4547C73.5101 25.8266 74.5429 25.468 75.6124 25.4237C76.6474 25.376 77.6713 25.6536 78.5403 26.2176C79.2208 26.6918 79.5404 27.2073 79.4373 27.4856Z" fill="#093636"/>
<path d="M95.2728 27.3311C94.9223 27.9084 93.3759 27.4136 91.5511 27.4857C89.7263 27.5579 88.2211 28.0528 87.8294 27.4857C87.6541 27.2074 87.8294 26.6403 88.5098 26.063C89.3529 25.3764 90.4014 24.9912 91.4886 24.9688C92.5757 24.9464 93.6392 25.288 94.5099 25.9393C95.1903 26.4754 95.3965 27.0424 95.2728 27.3311Z" fill="#093636"/>
<path d="M59.138 33.4961C58.9112 33.4033 49.8079 30.9291 50.2718 40.1561C50.7357 49.3831 59.9112 47.0119 59.9112 46.7438C59.9112 46.4758 59.138 33.4961 59.138 33.4961Z" fill="#FFBE9D"/>
<path d="M57.7255 43.3728C57.7255 43.3728 57.5708 43.4965 57.3131 43.6305C56.9376 43.816 56.5041 43.8456 56.1069 43.713C55.0759 43.414 54.2202 41.8985 54.045 40.2387C53.9859 39.4507 54.0985 38.6593 54.3749 37.919C54.4467 37.6247 54.5895 37.3524 54.7907 37.126C54.992 36.8996 55.2457 36.7259 55.5296 36.62C55.7116 36.5653 55.9068 36.5743 56.083 36.6455C56.2592 36.7168 56.4058 36.846 56.4986 37.0118C56.6327 37.2695 56.5811 37.4551 56.6327 37.4654C56.6842 37.4757 56.8286 37.3005 56.7255 36.9293C56.6638 36.701 56.5255 36.5008 56.3337 36.3623C56.0699 36.187 55.7485 36.1205 55.4368 36.1767C55.0613 36.2703 54.7162 36.4589 54.4345 36.7243C54.1529 36.9897 53.9442 37.323 53.8285 37.6922C53.478 38.5108 53.3329 39.4027 53.4058 40.2902C53.5604 42.1459 54.6017 43.8367 55.9522 44.1563C56.2029 44.2167 56.464 44.2193 56.7159 44.1639C56.9677 44.1085 57.2036 43.9966 57.4059 43.8367C57.7255 43.5996 57.7667 43.3831 57.7255 43.3728Z" fill="#FFBE9D"/>
<path d="M97.5202 15.8773C96.7425 14.6158 95.7179 13.5244 94.5079 12.6687C93.2978 11.813 91.9274 11.2107 90.4788 10.8978C87.5751 10.2943 84.6031 10.0862 81.6436 10.2792L56.4781 12.5576L55.7461 32.5477L57.9317 35.7849L59.8699 37.8468C62.3854 37.0221 65.0247 33.7849 65.2412 29.8879C66.5439 29.6789 67.7804 29.1707 68.8537 28.4033C69.9269 27.6359 70.8077 26.6302 71.4269 25.4651C72.6546 23.1217 73.0195 20.4213 72.4578 17.8361C72.8707 18.8944 73.4924 19.8588 74.2859 20.6718C75.0794 21.4848 76.0284 22.1297 77.0765 22.5681C77.9054 22.9341 78.8127 23.0865 79.7157 23.0115C80.3343 22.8953 80.9189 22.6417 81.4265 22.2696C81.9341 21.8974 82.3517 21.416 82.6485 20.861C82.9453 20.306 83.1138 19.6914 83.1415 19.0626C83.1692 18.4338 83.0554 17.8068 82.8085 17.2278C84.8928 19.8788 87.7001 21.8696 90.8912 22.9599C92.8088 23.6197 95.1078 23.8671 96.7367 22.6403C98.6646 21.1145 98.7058 18.0423 97.5202 15.8773Z" fill="#093636"/>
<path d="M58.8286 60.8162L85.7055 70.9195C85.7055 70.9195 89.9633 86.1157 91.0046 92.5694C92.6232 102.518 93.3861 173.107 93.3861 173.107C93.3861 173.107 40.5808 167.695 40.5808 163.612C40.5808 159.53 43.1994 153.509 43.1994 153.509C43.1994 153.509 41.1375 152.942 42.8489 146.478C44.5603 140.014 45.2407 106.539 45.2407 106.539C45.2407 106.539 45.5603 84.0229 48.3336 76.8784C51.1068 69.7339 58.8286 60.8162 58.8286 60.8162Z" fill="#C5CBF1"/>
<path d="M86.2314 72.1567C86.4825 72.7111 86.6927 73.2831 86.8603 73.8681C87.2315 74.9815 87.7469 76.6001 88.314 78.6311C89.8194 83.8985 90.9087 89.2759 91.5718 94.7139C92.1947 100.152 92.4942 105.622 92.4687 111.096C92.4687 113.158 92.4687 114.89 92.3965 116.065C92.4069 116.676 92.3656 117.286 92.2728 117.89C92.1898 117.285 92.1587 116.675 92.18 116.065C92.18 114.807 92.18 113.127 92.0872 111.106C91.9944 106.91 91.7986 101.116 91.0563 94.7758C90.398 89.36 89.3645 83.9965 87.9634 78.7239C87.448 76.662 86.9943 75.064 86.6747 73.93C86.4761 73.3528 86.3278 72.7595 86.2314 72.1567Z" fill="#093636"/>
<path d="M121.088 66.4969C121.088 66.4969 117.108 61.2803 117.139 59.1668L118.778 46.8882C118.778 46.8882 119.809 45.7542 121.036 47.7439C122.263 49.7336 121.036 52.5069 121.036 52.5069L121.737 55.3936L123.222 53.2079L124.912 44.9603C124.912 44.9603 125.943 39.0324 126.913 39.6509C127.882 40.2695 128.088 41.9912 127.624 44.548L126.593 50.3522C126.593 50.3522 126.469 51.3832 127.428 49.6718C128.387 47.9604 129.428 40.8159 129.789 39.8468C130.15 38.8777 130.304 36.3313 131.758 36.4756C133.212 36.62 132.366 39.8674 132.366 39.8674L130.944 50.5069C130.944 50.5069 132.315 46.2593 132.572 45.5377C132.83 44.816 133.232 42.4448 133.727 41.218C134.222 39.9912 134.954 39.3004 135.603 39.3829C135.912 39.4012 136.201 39.536 136.414 39.76C136.626 39.984 136.746 40.2804 136.748 40.5891L134.583 49.6305C134.583 49.6305 133.377 53.7543 133.459 54.0121C133.542 54.2698 135.057 52.2904 135.057 52.2904L136.222 49.3625C136.222 49.3625 137.191 45.2387 138.284 45.0841C139.377 44.9294 139.439 45.816 139.439 45.816L137.665 53.3832L134.294 61.9916L131.108 68.4969C131.108 68.4969 126.665 67.8062 126.5 68.033C126.335 68.2598 121.088 66.4969 121.088 66.4969Z" fill="#FFBE9D"/>
<path d="M128.964 62.8782C128.607 62.2684 128.3 61.6305 128.047 60.971C127.427 59.4328 126.253 58.1824 124.758 57.4657C124.024 57.1424 123.203 57.077 122.428 57.2802L122.17 57.3626L122.108 57.074C121.82 55.8162 121.428 54.6512 121.242 53.8574C121.08 53.441 121.009 52.9943 121.036 52.5481C121.243 52.9354 121.409 53.3431 121.531 53.7646C121.928 54.8293 122.273 55.9131 122.562 57.0121L122.242 56.8059C123.123 56.5444 124.068 56.5991 124.912 56.9606C125.831 57.3376 126.629 57.9578 127.222 58.7544C127.691 59.3871 128.073 60.0808 128.356 60.8163C128.677 61.4629 128.883 62.1607 128.964 62.8782Z" fill="#FFBE9D"/>
<path d="M71.7568 135.571L39.5911 158.231L38.4983 150.416L71.7568 124.003V135.571Z" fill="#455A64"/>
<path d="M42.4365 85.8686C45.1573 81.2374 49.1376 77.4744 53.9141 75.0177C58.6906 72.561 64.0668 71.5117 69.4165 71.992C73.5403 72.4147 77.6641 73.889 80.4167 76.9406C83.1694 79.9922 84.19 84.1572 84.7467 88.281C86.9816 105.071 82.8836 122.092 73.2516 136.024C72.4527 137.39 71.2936 138.51 69.901 139.262C68.4577 139.88 66.4783 139.54 65.7772 138.138C74.099 125.035 78.2608 109.721 77.7156 94.209C77.5507 89.7965 76.829 85.0232 73.6846 81.9201C71.0042 79.2808 68.9113 78.6416 65.1484 78.5282C60.406 78.3942 56.1378 80.9922 51.9625 85.0026C48.5397 88.2913 44.4263 95.7451 43.4056 100.374" fill="#455A64"/>
<path d="M56.3441 73.9094C55.3251 74.6506 54.2688 75.3388 53.1791 75.9713C50.6347 77.5726 48.1934 79.3321 45.8696 81.2395C43.5537 83.166 41.3571 85.2317 39.2922 87.4252C37.7148 89.1056 36.787 90.1984 36.7251 90.1469C36.8687 89.8396 37.0562 89.5548 37.2818 89.3015C37.6633 88.7757 38.2509 88.0541 39.0138 87.1778C41.0091 84.8964 43.1883 82.7827 45.5294 80.858C47.8655 78.9344 50.3588 77.2101 52.9832 75.7033C54.0141 75.1156 54.8183 74.6723 55.4059 74.4043C55.6954 74.1985 56.0108 74.0321 56.3441 73.9094Z" fill="#093636"/>
<path d="M60.241 78.3425C60.241 78.4147 59.0348 79.3013 57.0966 80.8684C54.5763 82.9162 52.2091 85.1455 50.014 87.5386C47.834 89.9405 45.8354 92.5008 44.0345 95.1986C42.653 97.2605 41.8798 98.611 41.8076 98.5698C41.9021 98.2056 42.0516 97.8579 42.2509 97.5388C42.5602 96.9099 43.0551 96.0336 43.7149 94.9614C45.4365 92.1784 47.4142 89.5622 49.6222 87.1468C51.8213 84.7286 54.2369 82.5166 56.8389 80.5385C57.8698 79.7859 58.674 79.2085 59.2719 78.8477C59.5707 78.6364 59.8967 78.4665 60.241 78.3425Z" fill="#093636"/>
<g opacity="0.3">
<path opacity="0.3" d="M79.4579 114.426C76.695 111.611 69.4165 115.57 65.7463 114.106C62.9215 132.728 62.9215 151.67 65.7463 170.293L70.035 170.014C72.4062 166.252 73.1279 161.695 73.7465 157.293C75.286 146.736 76.829 136.182 78.3754 125.632C78.8187 122.601 81.5714 116.539 79.4579 114.426Z" fill="black"/>
</g>
<path d="M91.4579 167.417H40.5908V204.077H91.4579V167.417Z" fill="#455A64"/>
<path d="M54.6223 167.478C52.4569 169.624 50.1677 171.641 47.7665 173.52C45.4735 175.536 43.0638 177.416 40.5498 179.149C42.7103 177.001 44.9961 174.984 47.3953 173.107C49.6937 171.093 52.1067 169.214 54.6223 167.478Z" fill="white"/>
<path d="M63.1381 167.479C63.2309 167.592 58.3133 172.283 52.1379 177.963C45.9625 183.644 40.8799 188.159 40.7974 188.046C40.7149 187.933 45.6223 183.252 51.7977 177.572C57.9731 171.891 63.035 167.375 63.1381 167.479Z" fill="white"/>
<path d="M74.4989 167.417C74.602 167.53 67.0864 174.633 57.7151 183.221C48.3437 191.809 40.6735 198.685 40.5704 198.624C40.4673 198.562 47.9829 191.407 57.3543 182.829C66.7256 174.252 74.3959 167.314 74.4989 167.417Z" fill="white"/>
<path d="M86.0249 167.479C86.128 167.592 77.3031 175.881 66.3131 186.036C55.3232 196.19 46.323 204.201 46.2302 204.118C46.1374 204.036 54.9521 195.727 65.9523 185.561C76.9525 175.396 85.9321 167.375 86.0249 167.479Z" fill="white"/>
<path d="M91.4584 174.221C91.5615 174.334 84.3242 181.149 75.2931 189.458C66.262 197.768 58.8701 204.407 58.7979 204.294C58.7257 204.18 65.9321 197.366 74.9632 189.056C83.9943 180.747 91.3553 174.087 91.4584 174.221Z" fill="white"/>
<path d="M91.4478 185.066C91.5509 185.18 86.9426 189.582 81.1383 194.891C75.3341 200.201 70.5917 204.428 70.4989 204.314C70.4062 204.201 74.9939 199.809 80.8084 194.5C86.623 189.19 91.3447 184.963 91.4478 185.066Z" fill="white"/>
<path d="M91.3962 194.211C89.8443 196.073 88.1595 197.82 86.3549 199.438C84.673 201.188 82.8639 202.811 80.9424 204.294C82.4893 202.424 84.1745 200.674 85.9837 199.057C87.6641 197.308 89.4733 195.689 91.3962 194.211Z" fill="white"/>
<path d="M61.8284 167.478C61.8009 167.897 61.7283 168.312 61.6119 168.716C61.5239 169.195 61.3999 169.667 61.2408 170.128C61.0609 170.751 60.8475 171.363 60.6016 171.963C59.9839 173.538 59.2175 175.05 58.3129 176.479C57.1831 178.217 55.8847 179.84 54.4365 181.324C52.9569 182.777 51.3334 184.076 49.591 185.2C48.1597 186.101 46.648 186.867 45.0755 187.489C44.4757 187.732 43.8631 187.942 43.2404 188.118C42.7782 188.275 42.3064 188.403 41.828 188.5C41.4236 188.61 41.0091 188.679 40.5908 188.706C40.5908 188.592 42.3125 188.252 44.9311 187.139C46.4604 186.48 47.9299 185.69 49.323 184.778C51.0171 183.651 52.6014 182.367 54.055 180.943C55.4796 179.487 56.7669 177.903 57.9005 176.211C58.8098 174.818 59.5963 173.348 60.251 171.819C61.3748 169.2 61.715 167.458 61.8284 167.478Z" fill="#093636"/>
<path d="M91.6436 188.747C91.2145 188.819 90.7781 188.836 90.3446 188.799C89.1664 188.754 87.9957 188.591 86.8497 188.314C83.0207 187.434 79.5447 185.423 76.8734 182.542C74.2021 179.661 72.4588 176.043 71.87 172.159C71.6793 170.997 71.6102 169.819 71.6638 168.643C71.6584 168.21 71.7068 167.777 71.8081 167.355C71.8528 168.943 71.9974 170.527 72.2411 172.097C72.9132 175.876 74.6556 179.383 77.2616 182.201C79.8676 185.019 83.2275 187.029 86.9425 187.994C88.4924 188.342 90.0625 188.594 91.6436 188.747Z" fill="#093636"/>
<path d="M68.2101 184.891L75.0453 192.448L77.2515 201.871C77.2515 201.871 75.8907 203.696 74.4061 201.397C74.4061 201.397 74.7257 209.16 73.9731 209.593C73.2205 210.026 70.7771 209.696 70.6225 207.778C70.3531 208.173 69.9982 208.503 69.5841 208.742C69.1701 208.981 68.7075 209.124 68.2307 209.16C66.7358 209.16 66.1688 208.314 65.9935 206.5C65.9935 206.5 64.6121 208.201 63.4368 207.531C63.0718 207.292 62.7605 206.98 62.5227 206.614C62.2848 206.249 62.1257 205.837 62.0553 205.407C62.0553 205.407 59.9315 206.046 59.3955 204.984C58.6946 203.213 58.2636 201.347 58.1171 199.448V192.953L57.7769 188.829L68.2101 184.891Z" fill="#FFBE9D"/>
<path d="M70.5195 201.943C70.3107 202.904 70.2516 203.892 70.3442 204.871C70.2829 205.849 70.3769 206.83 70.6226 207.778C70.8309 206.821 70.89 205.836 70.7978 204.861C70.864 203.879 70.7699 202.894 70.5195 201.943Z" fill="#FFBE9D"/>
<path d="M65.87 201.737C65.5606 203.282 65.5606 204.873 65.87 206.417C66.0984 205.66 66.1721 204.864 66.0865 204.077C66.1623 203.29 66.0888 202.496 65.87 201.737Z" fill="#FFBE9D"/>
<path d="M61.9731 201.469C61.8631 202.127 61.8631 202.8 61.9731 203.458C61.9263 204.119 61.954 204.783 62.0556 205.438C62.3988 204.831 62.5329 204.128 62.437 203.438C62.4672 202.751 62.3066 202.07 61.9731 201.469Z" fill="#FFBE9D"/>
<path d="M74.5095 196.118C74.3104 197.063 74.2308 198.029 74.2723 198.994C74.1616 199.951 74.1824 200.919 74.3342 201.871C74.6644 200.938 74.8148 199.952 74.7775 198.963C74.8601 198.006 74.7693 197.043 74.5095 196.118Z" fill="#FFBE9D"/>
<path d="M57.777 188.86C57.777 188.86 53.2615 151.066 53.6532 145.334C54.1069 139.364 55.7151 118.116 55.7151 118.116H75.0867L70.8083 147.519L70.2309 188.324L57.777 188.86Z" fill="#FFBE9D"/>
<path d="M69.1897 76.126C68.0969 75.8373 58.272 75.9816 56.0142 84.8684C53.5193 94.6521 53.6946 117.931 53.6946 117.931H80.7879L79.458 88.652C79.3846 86.4156 78.7922 84.2269 77.7276 82.2588C76.663 80.2906 75.1554 78.597 73.3238 77.3116C72.1486 76.5693 70.5918 76.4971 69.1897 76.126Z" fill="#C5CBF1"/>
<path d="M72.1071 76.6104L72.303 76.7031L72.8803 77.0227C73.5959 77.4559 74.266 77.9602 74.8804 78.5279C77.2038 80.6557 78.78 83.4755 79.3753 86.5693C79.5682 87.5895 79.6751 88.6241 79.6949 89.6622C79.7567 90.6931 79.8083 91.8684 79.8702 93.0334C79.9836 95.3633 80.1073 97.8685 80.231 100.518C80.4784 105.807 80.7568 111.673 81.0454 117.91V118.189H72.6329H53.6737H53.4263V117.941C53.4263 108.199 53.9005 99.8995 54.4572 94.054C54.7562 91.1364 55.1067 88.8271 55.4057 87.2601C55.5397 86.4765 55.7047 85.8786 55.7975 85.4765C55.832 85.271 55.8908 85.0702 55.9727 84.8786C55.9561 85.0866 55.9251 85.2933 55.8799 85.4971C55.8181 85.9095 55.6737 86.5281 55.5603 87.291C55.3129 88.858 55.0242 91.1674 54.7665 94.085C54.2717 99.9201 53.9108 108.219 53.9005 117.941L53.6531 117.694H72.6123H80.7465L80.4784 117.972C80.2104 111.735 79.9526 105.869 79.7258 100.58C79.6124 97.9304 79.5093 95.4252 79.4062 93.0952C79.4062 91.9303 79.3134 90.7962 79.2722 89.724C79.2603 88.6869 79.1637 87.6526 78.9835 86.6312C78.4332 83.5924 76.9398 80.8041 74.7154 78.6619C73.9036 77.9079 73.0312 77.2217 72.1071 76.6104Z" fill="#093636"/>
</svg>
