<svg width="58" height="59" viewBox="0 0 58 59" fill="none" xmlns="http://www.w3.org/2000/svg">
<path d="M45.6914 24.915H12.1389C9.4917 24.915 7.3457 27.061 7.3457 29.7083V48.8811C7.3457 51.5283 9.4917 53.6743 12.1389 53.6743H45.6914C48.3386 53.6743 50.4846 51.5283 50.4846 48.8811V29.7083C50.4846 27.061 48.3386 24.915 45.6914 24.915Z" stroke="#00325A" stroke-width="4.79321" stroke-linecap="round" stroke-linejoin="round"/>
<path d="M14.5355 15.3287C14.5355 13.4219 15.293 11.5931 16.6414 10.2448C17.9897 8.89641 19.8185 8.13892 21.7253 8.13892H36.105C38.0118 8.13892 39.8406 8.89641 41.189 10.2448C42.5373 11.5931 43.2948 13.4219 43.2948 15.3287V24.9152H14.5355V15.3287Z" stroke="#00325A" stroke-width="4.79321" stroke-linecap="round" stroke-linejoin="round"/>
</svg>
