<svg width="58" height="59" viewBox="0 0 58 59" fill="none" xmlns="http://www.w3.org/2000/svg">
<path d="M38.5016 15.3286C38.5016 10.0342 34.2096 5.74219 28.9152 5.74219C23.6207 5.74219 19.3287 10.0342 19.3287 15.3286V27.3116C19.3287 32.6061 23.6207 36.8981 28.9152 36.8981C34.2096 36.8981 38.5016 32.6061 38.5016 27.3116V15.3286Z" stroke="#00325A" stroke-width="4.79321" stroke-linecap="round" stroke-linejoin="round"/>
<path d="M43.2948 39.9945C41.4975 42.0368 39.2851 43.6722 36.8054 44.7913C34.3257 45.9105 31.6357 46.4877 28.9152 46.4845C26.1946 46.4877 23.5047 45.9105 21.025 44.7913C18.5453 43.6722 16.3329 42.0368 14.5355 39.9945" stroke="#00325A" stroke-width="4.79321" stroke-linecap="round" stroke-linejoin="round"/>
<path d="M28.9152 46.4845V53.6743" stroke="#00325A" stroke-width="4.79321" stroke-linecap="round" stroke-linejoin="round"/>
<path d="M24.1219 53.6743H33.7084" stroke="#00325A" stroke-width="4.79321" stroke-linecap="round" stroke-linejoin="round"/>
</svg>
