<svg width="58" height="59" viewBox="0 0 58 59" fill="none" xmlns="http://www.w3.org/2000/svg">
<path d="M4.94897 17.7253C4.94897 16.454 5.45397 15.2348 6.35287 14.3359C7.25178 13.437 8.47095 12.932 9.74219 12.932H48.0879C49.3591 12.932 50.5783 13.437 51.4772 14.3359C52.3761 15.2348 52.8811 16.454 52.8811 17.7253V41.6913C52.8811 42.9626 52.3761 44.1817 51.4772 45.0806C50.5783 45.9795 49.3591 46.4845 48.0879 46.4845H9.74219C8.47095 46.4845 7.25178 45.9795 6.35287 45.0806C5.45397 44.1817 4.94897 42.9626 4.94897 41.6913V17.7253Z" stroke="#00325A" stroke-width="4.79321" stroke-linecap="round" stroke-linejoin="round"/>
<path d="M28.9152 36.8981C32.886 36.8981 36.105 33.6791 36.105 29.7083C36.105 25.7375 32.886 22.5185 28.9152 22.5185C24.9443 22.5185 21.7253 25.7375 21.7253 29.7083C21.7253 33.6791 24.9443 36.8981 28.9152 36.8981Z" stroke="#00325A" stroke-width="4.79321" stroke-linecap="round" stroke-linejoin="round"/>
<path d="M4.94897 22.5185C7.49145 22.5185 9.9298 21.5085 11.7276 19.7107C13.5254 17.9129 14.5354 15.4745 14.5354 12.932" stroke="#00325A" stroke-width="4.79321" stroke-linecap="round" stroke-linejoin="round"/>
<path d="M43.2948 46.4845C43.2948 43.942 44.3048 41.5037 46.1026 39.7059C47.9004 37.9081 50.3387 36.8981 52.8812 36.8981" stroke="#00325A" stroke-width="4.79321" stroke-linecap="round" stroke-linejoin="round"/>
</svg>
