<svg width="58" height="59" viewBox="0 0 58 59" fill="none" xmlns="http://www.w3.org/2000/svg">
<path d="M28.9153 29.7083C35.5333 29.7083 40.8983 24.3433 40.8983 17.7252C40.8983 11.1072 35.5333 5.74219 28.9153 5.74219C22.2972 5.74219 16.9323 11.1072 16.9323 17.7252C16.9323 24.3433 22.2972 29.7083 28.9153 29.7083Z" stroke="#00325A" stroke-width="4.79321"/>
<path d="M40.8982 53.6744H12.7764C12.0967 53.6745 11.4247 53.5301 10.8051 53.2507C10.1855 52.9713 9.63233 52.5633 9.18242 52.0538C8.73252 51.5443 8.39613 50.9449 8.19557 50.2954C7.99502 49.646 7.93489 48.9613 8.01917 48.2868L8.95385 40.7998C9.17121 39.0604 10.0165 37.4603 11.3309 36.3005C12.6452 35.1406 14.338 34.5009 16.0909 34.5015H16.9322" stroke="#00325A" stroke-width="4.79321" stroke-linecap="round" stroke-linejoin="round"/>
<path d="M38.5016 39.2947L43.894 44.088L52.8812 34.5015" stroke="#00325A" stroke-width="4.79321" stroke-linecap="round" stroke-linejoin="round"/>
</svg>
