<svg width="707" height="622" viewBox="0 0 707 622" fill="none" xmlns="http://www.w3.org/2000/svg">
<path fill-rule="evenodd" clip-rule="evenodd" d="M340.102 7.77054C398.583 19.3551 438.918 71.6063 492.295 100.333C562.266 137.991 671.437 122.471 700.746 201.866C729.51 279.785 651.883 355.785 613.43 428.472C583.439 485.164 552.708 541.289 502.483 576.641C454.336 610.531 397.024 626.591 340.102 620.861C286.478 615.462 248.781 565.587 197.966 545.986C114.915 513.951 -2.12869 551.367 -50.2384 470.297C-95.6038 393.85 -38.4038 290.605 -2.39542 208.352C29.7053 135.026 76.7881 69.207 142.093 30.9616C202.153 -4.21246 273.138 -5.49439 340.102 7.77054Z" fill="#C6E1F6"/>
</svg>
