<svg width="184" height="210" viewBox="0 0 184 210" fill="none" xmlns="http://www.w3.org/2000/svg">
<path d="M142.637 93.4104C142.656 92.6273 142.459 91.854 142.068 91.1749C141.678 90.4959 141.108 89.9373 140.421 89.5599C139.735 89.1826 138.958 89.0011 138.175 89.0353C137.393 89.0695 136.634 89.318 135.983 89.7537C134.756 90.5233 133.762 91.6129 133.108 92.9054C131.303 96.2186 131.087 100.131 130.71 103.882C130.375 107.614 129.26 111.235 127.438 114.509L141.229 98.0773C142.17 96.7048 142.662 95.0742 142.637 93.4104Z" fill="#FFEEF2"/>
<g opacity="0.2">
<path opacity="0.2" d="M142.637 93.4104C142.656 92.6273 142.459 91.854 142.068 91.1749C141.678 90.4959 141.108 89.9373 140.421 89.5599C139.735 89.1826 138.958 89.0011 138.175 89.0353C137.393 89.0695 136.634 89.318 135.983 89.7537C134.756 90.5233 133.762 91.6129 133.108 92.9054C131.303 96.2186 131.087 100.131 130.71 103.882C130.375 107.614 129.26 111.235 127.438 114.509L141.229 98.0773C142.17 96.7048 142.662 95.0742 142.637 93.4104Z" fill="black"/>
</g>
<path d="M126.838 84.4338C127.653 85.1073 154.509 115.937 154.509 115.937L139.983 127.473L121.531 104.475L126.838 84.4338Z" fill="#FFBE9D"/>
<path d="M46.8079 94.8516C46.0941 95.6462 24.3962 124.482 24.3962 124.482L37.9793 139.203L54.6466 114.038L46.8079 94.8516Z" fill="#FFBE9D"/>
<path d="M47.0505 113.957C48.6331 114.684 49.5288 116.374 50.1281 117.997C50.7275 119.62 51.1719 121.364 52.2965 122.711C53.4212 124.058 55.5222 124.779 56.9364 123.755C58.3506 122.731 58.3507 120.758 57.7446 119.216C56.9402 117.367 55.5579 115.829 53.805 114.832C52.0564 113.85 50.1665 113.143 48.2021 112.738" fill="#FFEEF2"/>
<g opacity="0.2">
<path opacity="0.2" d="M47.0505 113.957C48.6331 114.684 49.5288 116.374 50.1281 117.997C50.7275 119.62 51.1719 121.364 52.2965 122.711C53.4212 124.058 55.5222 124.779 56.9364 123.755C58.3506 122.731 58.3507 120.758 57.7446 119.216C56.9402 117.367 55.5579 115.829 53.805 114.832C52.0564 113.85 50.1665 113.143 48.2021 112.738" fill="black"/>
</g>
<path d="M173.305 172.269C172.819 172.137 172.323 172.042 171.823 171.986L117.693 149.285H63.8861L10.8201 170.249C5.43264 172.04 -2.25117 182.552 2.10591 195.112C2.22713 195.462 2.35508 195.785 2.48303 196.129C5.97138 204.883 15.6485 209.409 24.7061 206.984C32.0398 205.025 42.5722 202.156 53.4143 199.186H54.6332L88.3922 189.61C93.6786 191.071 104.79 194.135 117.141 197.529C132.151 201.657 148.987 206.284 159.378 209.038C168.463 211.469 178.147 206.917 181.601 198.182C181.736 197.853 181.857 197.509 181.978 197.166C186.376 184.573 178.692 174.06 173.305 172.269Z" fill="#455A64"/>
<path d="M87.9746 189.69L88.1631 189.623L88.7086 189.455L90.8501 188.828L98.9312 186.525L98.8369 186.687L93.4495 166.888L93.6314 167.03H88.1294C86.2236 167.03 84.2707 167.205 82.2774 167.285L69.819 167.959C54.4244 168.855 40.5114 169.898 30.4437 170.713L18.4903 171.683L15.2444 171.946L14.4026 172.006C14.3064 172.017 14.2093 172.017 14.113 172.006C14.2051 171.978 14.2999 171.96 14.3959 171.952L15.2377 171.858L18.4701 171.508C21.285 171.225 25.3525 170.834 30.383 170.39C40.444 169.494 54.3638 168.403 69.7583 167.508L82.2235 166.834C84.2438 166.753 86.1765 166.612 88.0823 166.592H93.793V166.74C95.8873 174.619 97.6989 181.441 99.0592 186.572L99.0928 186.694L98.9716 186.727L90.8905 188.916L88.7288 189.475L88.1699 189.61C88.1108 189.649 88.0444 189.677 87.9746 189.69Z" fill="#263238"/>
<path d="M70.4454 167.535C70.3848 167.629 68.8898 166.774 67.2668 165.42C65.6439 164.067 64.5327 162.726 64.6135 162.673C64.6943 162.619 65.9604 163.75 67.5429 165.09C69.1255 166.43 70.5127 167.427 70.4454 167.535Z" fill="#263238"/>
<path d="M166.921 174.229C166.674 174.246 166.426 174.246 166.18 174.229L164.059 174.101L156.26 173.569L130.556 171.818L104.81 170.262L97.0054 169.804L94.8639 169.663C94.6177 169.657 94.3723 169.632 94.1299 169.589C94.3762 169.565 94.6243 169.565 94.8707 169.589L96.9987 169.656L104.804 169.979C111.403 170.282 120.508 170.767 130.562 171.414C140.617 172.06 149.708 172.727 156.287 173.266L164.079 173.939L166.193 174.141C166.438 174.147 166.681 174.177 166.921 174.229Z" fill="#263238"/>
<path d="M88.8703 173.192C88.7962 173.111 89.6851 172.296 91.0926 171.946C92.5 171.596 93.6718 171.865 93.6381 171.946C93.6045 172.027 92.5068 171.993 91.2003 172.336C89.8939 172.68 88.9443 173.293 88.8703 173.192Z" fill="#263238"/>
<path d="M90.3384 176.613C90.3384 176.491 91.3081 176.283 92.5337 176.134C93.7594 175.986 94.7695 175.966 94.783 176.081C94.7965 176.195 93.8133 176.417 92.5876 176.559C91.362 176.7 90.3518 176.727 90.3384 176.613Z" fill="#263238"/>
<path d="M90.9982 180.586C90.9982 180.458 92.2036 180.424 93.6043 180.007C95.0051 179.589 96.0354 178.996 96.1095 179.104C95.4638 179.78 94.6316 180.249 93.7188 180.451C92.244 180.855 90.9847 180.693 90.9982 180.586Z" fill="#263238"/>
<path d="M92.3184 184.855C92.3184 184.727 93.4699 184.64 94.7764 184.135C96.0828 183.63 97.0256 182.963 97.0997 183.064C97.1738 183.165 96.3253 184.027 94.9313 184.539C93.5373 185.051 92.3117 184.97 92.3184 184.855Z" fill="#263238"/>
<path d="M116.986 165.481C117.074 165.568 116.171 166.619 115.168 167.986C114.164 169.353 113.41 170.518 113.302 170.457C113.195 170.397 113.787 169.11 114.818 167.73C115.848 166.349 116.905 165.4 116.986 165.481Z" fill="#263238"/>
<path d="M93.8268 166.787L80.9306 164.834C80.9306 164.834 79.7589 161.797 77.7723 161.642C75.7857 161.488 73.9472 163.663 72.4993 163.548C71.0515 163.434 53.7309 157.588 52.741 165.434L59.9466 168.404" fill="#FFBE9D"/>
<path d="M136.138 173.892L97.7526 182.121L94.3047 168.942L108.507 168.269C108.507 168.269 110.211 165.487 112.191 165.696C114.171 165.905 115.558 168.39 117.04 168.511C118.521 168.632 136.569 165.999 136.138 173.892Z" fill="#FFBE9D"/>
<path d="M63.2128 150.618C63.2128 150.618 63.105 150.679 62.8828 150.78L61.8929 151.238C61.0241 151.642 59.7312 152.214 58.0611 152.935C54.6939 154.376 49.852 156.363 43.8113 158.767C37.7707 161.171 30.5718 163.986 22.6522 167.326C18.6925 168.989 14.4499 170.565 10.4093 172.888L9.6551 173.34C9.60675 173.366 9.56156 173.397 9.52041 173.434V173.387C9.62769 173.443 9.74394 173.479 9.86386 173.494C10.4387 173.585 11.0194 173.635 11.6013 173.643C12.7865 173.676 13.9785 173.643 15.1839 173.643C17.5948 173.582 20.0461 173.474 22.5176 173.346C32.4237 172.821 41.8449 172.114 50.4109 171.461L73.1728 169.649L88.5135 168.37L92.6887 168.033L93.7729 167.952C94.0154 167.952 94.1433 167.952 94.1433 167.952C94.1433 167.952 94.0154 167.952 93.7729 168.006L92.6954 168.121L88.5269 168.525L73.193 169.912C66.7213 170.478 59.0106 171.131 50.4379 171.804C41.8651 172.478 32.4439 173.191 22.5378 173.717C20.0596 173.845 17.6083 173.952 15.1974 174.006C13.9852 174.006 12.7865 174.047 11.5878 174.006C10.9879 174 10.3893 173.95 9.79651 173.858C9.62204 173.831 9.45481 173.77 9.30491 173.676C9.26993 173.649 9.24148 173.614 9.22167 173.575C9.20186 173.535 9.19118 173.492 9.19043 173.447C9.19288 173.369 9.22406 173.295 9.27798 173.239C9.34562 173.176 9.42018 173.122 9.50021 173.077L10.2544 172.626C14.3354 170.282 18.5915 168.72 22.5512 167.063C30.4775 163.737 37.6966 160.949 43.744 158.571C49.7914 156.194 54.6805 154.241 58.0274 152.84L61.8861 151.211L62.8828 150.787L63.2128 150.618Z" fill="white"/>
<path d="M116.306 150.618C116.392 150.636 116.476 150.665 116.555 150.706L117.275 151.009L120.023 152.194L130.124 156.497L163.6 170.478C166.828 171.721 169.977 173.16 173.028 174.787C173.399 174.989 173.762 175.198 174.113 175.414C174.302 175.518 174.485 175.635 174.658 175.764C174.707 175.81 174.752 175.86 174.793 175.912C174.821 175.951 174.84 175.994 174.851 176.041C174.861 176.087 174.862 176.135 174.853 176.181C174.853 176.303 174.773 176.343 174.712 176.41C174.658 176.448 174.602 176.482 174.544 176.511C173.738 176.726 172.906 176.828 172.072 176.814C170.456 176.848 168.88 176.814 167.358 176.727C161.223 176.431 155.715 175.926 151.088 175.501C146.462 175.077 142.731 174.666 140.152 174.383L137.182 174.04L136.407 173.939C136.321 173.931 136.235 173.915 136.152 173.892H136.414L137.189 173.952L140.165 174.235L151.115 175.239C155.742 175.629 161.25 176.114 167.378 176.39C168.907 176.451 170.476 176.505 172.092 176.464C172.882 176.477 173.67 176.384 174.436 176.188L174.53 176.134C174.53 176.134 174.571 176.101 174.53 176.134C174.49 176.168 174.53 176.087 174.449 176.033C174.369 175.979 174.133 175.825 173.951 175.717C173.601 175.508 173.244 175.299 172.88 175.097C169.838 173.487 166.703 172.056 163.493 170.814C150.415 165.359 138.576 160.403 130.05 156.74C125.788 154.908 122.346 153.372 119.949 152.329L117.255 151.09L116.548 150.753L116.306 150.618Z" fill="white"/>
<path d="M87.9477 73.3626C89.5192 73.4725 91.096 73.2461 92.5731 72.6987C94.0502 72.1512 95.3936 71.2952 96.5139 70.1877C97.6341 69.0802 98.5054 67.7466 99.0697 66.2759C99.6341 64.8051 99.8784 63.231 99.7866 61.6584C99.6249 58.8704 99.4835 56.7424 99.4835 56.7424C99.4835 56.7424 108.272 55.3955 108.38 46.5938C108.487 37.7921 106.965 17.6365 106.965 17.6365C101.972 15.4932 96.4963 14.722 91.1049 15.4028C85.7135 16.0835 80.6016 18.1914 76.2974 21.5087L74.991 22.5121L77.6847 63.0389C77.8628 65.7081 78.9996 68.2229 80.8856 70.12C82.7716 72.0172 85.2797 73.1687 87.9477 73.3626Z" fill="#FFBE9D"/>
<path d="M99.5037 56.6347C95.4495 56.7098 91.4645 55.5776 88.0554 53.3821C88.0554 53.3821 90.7491 59.7056 99.5037 58.9109V56.6347Z" fill="#EB996E"/>
<path d="M76.0752 31.6102C75.9271 31.5428 70.0143 29.8256 70.2366 35.8258C70.4588 41.8261 76.4119 40.3984 76.4186 40.23C76.4254 40.0617 76.0752 31.6102 76.0752 31.6102Z" fill="#FFBE9D"/>
<path d="M74.513 38.0279C74.513 38.0279 74.412 38.102 74.2369 38.1895C73.9912 38.3024 73.7117 38.3168 73.4557 38.23C72.7823 38.0145 72.2435 37.0245 72.1829 35.947C72.1524 35.4325 72.2351 34.9176 72.4254 34.4386C72.4769 34.2498 72.5728 34.0761 72.7052 33.9319C72.8376 33.7878 73.0026 33.6775 73.1863 33.6102C73.3057 33.5747 73.4338 33.5822 73.5483 33.6314C73.6627 33.6807 73.7563 33.7685 73.8126 33.8796C73.9002 34.0412 73.8665 34.1625 73.9002 34.1759C73.9338 34.1894 74.0214 34.0682 73.9675 33.8257C73.9328 33.6759 73.8441 33.544 73.7183 33.4554C73.6358 33.3952 73.542 33.3522 73.4425 33.3291C73.343 33.306 73.2398 33.3031 73.1392 33.3207C72.894 33.3761 72.6672 33.4939 72.4808 33.6626C72.2944 33.8313 72.1547 34.0452 72.0752 34.2837C71.835 34.8108 71.7286 35.3891 71.7654 35.9672C71.8395 37.1794 72.4994 38.2906 73.3749 38.5128C73.537 38.556 73.707 38.5615 73.8716 38.5288C74.0362 38.4962 74.1911 38.4262 74.3244 38.3242C74.5063 38.1693 74.5332 38.0347 74.513 38.0279Z" fill="#EB996E"/>
<path d="M87.2001 30.6875C87.355 30.5192 88.3045 31.2263 89.6581 31.2196C91.0117 31.2128 91.9949 30.5461 92.1431 30.7077C92.2912 30.8694 92.0555 31.0781 91.6245 31.3812C91.0332 31.7946 90.3256 32.0092 89.6043 31.994C88.9032 31.9984 88.219 31.779 87.6513 31.3677C87.2675 31.0512 87.126 30.7549 87.2001 30.6875Z" fill="#263238"/>
<path d="M100.467 30.4317C100.622 30.2701 101.571 30.9704 102.925 30.9704C104.278 30.9704 105.262 30.297 105.41 30.4586C105.477 30.526 105.322 30.8223 104.891 31.1321C104.297 31.5393 103.591 31.7533 102.871 31.7449C102.17 31.7423 101.487 31.521 100.918 31.1118C100.534 30.8021 100.393 30.5058 100.467 30.4317Z" fill="#263238"/>
<path d="M96.9312 40.2838C97.6433 40.0591 98.3809 39.9256 99.1266 39.8865C99.47 39.8528 99.8 39.7855 99.8539 39.5498C99.8835 39.1932 99.8036 38.8361 99.6249 38.5262L98.608 35.8998C97.1938 32.169 96.1635 29.0915 96.3184 29.0376C96.4733 28.9837 97.7393 31.967 99.1535 35.7045L100.13 38.3443C100.347 38.7581 100.409 39.2357 100.305 39.6912C100.257 39.8138 100.181 39.9233 100.082 40.0111C99.9841 40.0988 99.8666 40.1622 99.7394 40.1963C99.5487 40.2498 99.3516 40.2769 99.1535 40.2771C98.4158 40.3705 97.6695 40.3728 96.9312 40.2838Z" fill="#263238"/>
<path d="M92.9647 41.2132C93.1802 41.2132 93.1869 42.6678 94.4395 43.7049C95.6921 44.742 97.2544 44.5871 97.2612 44.7891C97.2612 44.8834 96.9177 45.0787 96.2578 45.0922C95.3992 45.1085 94.5631 44.8171 93.9008 44.2706C93.2603 43.7516 92.8492 43.002 92.7559 42.183C92.7021 41.5701 92.8435 41.2065 92.9647 41.2132Z" fill="#263238"/>
<path d="M92.3855 26.3573C92.2509 26.7276 90.904 26.5526 89.3214 26.7411C87.7389 26.9297 86.4594 27.3674 86.2439 27.0374C86.1563 26.8758 86.3786 26.5324 86.9173 26.1754C87.612 25.7362 88.3979 25.4617 89.215 25.373C90.032 25.2843 90.8586 25.3837 91.6313 25.6636C92.17 25.8993 92.4394 26.1822 92.3855 26.3573Z" fill="#263238"/>
<path d="M104.804 27.6504C104.568 27.9534 103.639 27.6504 102.521 27.6504C101.403 27.6504 100.453 27.8524 100.238 27.5359C100.144 27.3743 100.292 27.0713 100.702 26.7817C101.258 26.4322 101.906 26.2563 102.562 26.2767C103.218 26.2971 103.853 26.5128 104.386 26.8962C104.783 27.179 104.911 27.4955 104.804 27.6504Z" fill="#263238"/>
<path d="M111.242 12.121C111.303 11.5764 111.225 11.025 111.016 10.5186C110.806 10.0121 110.471 9.56713 110.043 9.22531C109.602 8.90161 109.059 8.74612 108.514 8.78687C107.968 8.82761 107.455 9.0619 107.066 9.44753C107.147 9.08059 107.15 8.70083 107.075 8.33266C107 7.96449 106.849 7.61605 106.632 7.30973C106.414 7.00341 106.135 6.74598 105.812 6.55398C105.489 6.36198 105.13 6.23967 104.757 6.19488C103.329 6.10734 102.103 7.18482 100.716 7.54174C99.3333 7.83144 97.8938 7.66363 96.6148 7.0636C95.3151 6.54507 94.1029 5.81776 92.783 5.33963C90.0031 4.32473 86.9349 4.44791 84.2452 5.6824C81.5556 6.91689 79.4618 9.16294 78.4188 11.9325C76.4995 11.3331 74.3176 12.3096 73.1324 13.9528C72.0119 15.6488 71.5651 17.7023 71.8798 19.7106C72.0692 21.0565 72.4057 22.3776 72.8832 23.6501C72.8832 23.7646 72.8832 23.8791 72.8832 23.9868C72.9708 28.8153 73.523 34.4923 75.5769 34.5192C79.173 34.5731 78.3178 27.785 78.3178 27.785C82.722 26.0812 81.0788 19.4749 82.1833 18.4782C83.2877 17.4815 85.5908 15.1111 94.8168 19.8655C98.3994 21.6972 103.161 21.6366 105.76 21.044L105.989 21.0035H106.043C106.071 20.9965 106.099 20.9851 106.124 20.9699C106.959 20.7617 107.757 20.4231 108.487 19.9665C109.351 19.4684 110.035 18.7092 110.44 17.798C110.63 17.3401 110.683 16.8371 110.593 16.3497C110.504 15.8623 110.275 15.4111 109.935 15.0505C110.645 14.2211 111.099 13.2034 111.242 12.121Z" fill="#263238"/>
<path d="M102.474 0.632568C102.474 0.632568 102.541 0.71338 102.642 0.875003C102.786 1.11063 102.903 1.3613 102.992 1.62251C103.33 2.59424 103.395 3.64 103.181 4.6462C102.891 6.16404 102.021 7.50936 100.756 8.39719C99.2884 9.37366 97.2748 9.56222 95.369 9.27264C93.4632 8.98307 91.6652 8.35678 90.0287 8.02007C88.5987 7.65476 87.1045 7.61792 85.6582 7.91232C84.6861 8.12965 83.7863 8.59348 83.0453 9.25917C82.5335 9.74404 82.3719 10.0942 82.3112 10.074C82.2506 10.0538 82.3112 9.97974 82.4392 9.81138C82.584 9.56839 82.7556 9.34249 82.951 9.13796C83.6836 8.41665 84.6022 7.91306 85.6043 7.68335C87.0806 7.32929 88.6197 7.32929 90.0961 7.68335C91.7594 8.0066 93.5171 8.63289 95.4161 8.90226C97.1818 9.26713 99.0198 8.9851 100.595 8.10761C101.8 7.27716 102.641 6.01685 102.945 4.58559C103.172 3.61888 103.146 2.6102 102.871 1.65618C102.655 0.982748 102.44 0.632568 102.474 0.632568Z" fill="#455A64"/>
<path d="M100.197 2.2688C100.377 2.44369 100.52 2.65312 100.617 2.88455C100.715 3.11598 100.764 3.36464 100.763 3.61565C100.808 4.16237 100.706 4.71116 100.467 5.20494C100.169 5.80714 99.7004 6.30836 99.1197 6.64608C98.541 6.98097 97.8888 7.1683 97.2206 7.19155C96.6825 7.21103 96.1449 7.13814 95.6314 6.97606C95.1506 6.86385 94.7059 6.63223 94.3384 6.30263C94.3384 6.25549 94.8502 6.52486 95.6852 6.73362C96.7781 7.02266 97.9403 6.8804 98.9312 6.3363C99.4586 6.03339 99.8921 5.59059 100.184 5.05679C100.412 4.61344 100.527 4.12088 100.52 3.62239C100.481 3.15752 100.372 2.70121 100.197 2.2688Z" fill="#263238"/>
<path d="M130.953 146.847C131.054 148.167 130.759 149.486 130.106 150.638C129.454 151.789 128.473 152.72 127.289 153.312L117.693 149.271L105.861 150.066L110.528 137.392C110.528 137.392 123.821 139.022 125.7 140.53C127.579 142.039 131.101 144.854 130.953 146.847Z" fill="#FFEEF2"/>
<g opacity="0.4">
<path opacity="0.4" d="M130.953 146.847C131.054 148.167 130.759 149.486 130.106 150.638C129.454 151.789 128.473 152.72 127.289 153.312L117.693 149.271L105.861 150.066L110.528 137.392C110.528 137.392 123.821 139.022 125.7 140.53C127.579 142.039 131.101 144.854 130.953 146.847Z" fill="black"/>
</g>
<path d="M130.953 146.847C131.054 148.167 130.759 149.486 130.106 150.638C129.454 151.789 128.473 152.72 127.289 153.312L117.693 149.271L105.861 150.066L110.528 137.392C110.528 137.392 123.821 139.022 125.7 140.53C127.579 142.039 131.101 144.854 130.953 146.847Z" fill="#FFEEF2"/>
<g opacity="0.4">
<path opacity="0.4" d="M130.953 146.847C131.054 148.167 130.759 149.486 130.106 150.638C129.454 151.789 128.473 152.72 127.289 153.312L117.693 149.271L105.861 150.066L110.528 137.392C110.528 137.392 123.821 139.022 125.7 140.53C127.579 142.039 131.101 144.854 130.953 146.847Z" fill="black"/>
</g>
<path d="M140.92 89.9018L139.983 89.0667L119.68 73.1671C113.41 66.5069 108.851 64.5001 100.036 63.4563C98.5946 63.2879 100.864 63.564 100.036 63.4563C93.3015 65.5372 84.217 65.7392 77.449 63.6516C74.3176 63.7795 71.7182 64.7493 69.0514 65.2611C60.647 66.8706 56.1553 72.8035 52.9228 78.6421L36.6663 105.909L37.3397 106.987C39.6111 110.496 42.9917 113.144 46.9428 114.509L48.0337 115.054C51.8603 116.875 55.1605 119.64 57.6233 123.088L64.7819 110.583L62.7616 130.624L61.3743 150.308C70.9202 153.035 80.8246 154.297 90.7492 154.052C104.891 154.12 124.596 136.887 130.953 146.847C131.04 141.742 124.616 134.725 122.831 131.358C117.302 120.832 118.34 116.576 117.942 108.677L127.438 114.502L129.141 111.169C130.582 108.354 133.33 102.084 134.354 97.2017C134.354 97.2085 135.472 88.0903 140.92 89.9018Z" fill="#FFEEF2"/>
<path d="M64.8222 90.387C64.8821 90.6565 64.907 90.9326 64.8963 91.2085C64.8963 91.7406 64.9367 92.5083 64.9502 93.4578C64.9502 95.3501 64.9906 97.9698 64.9502 100.865C64.9098 103.761 64.903 106.381 64.8559 108.273C64.8559 109.223 64.8088 109.99 64.7818 110.522C64.788 110.799 64.7609 111.074 64.701 111.344C64.6418 111.074 64.6169 110.798 64.6269 110.522C64.6269 109.99 64.5865 109.223 64.5731 108.273C64.5731 106.381 64.5394 103.761 64.5731 100.865C64.6067 97.9698 64.6202 95.3569 64.6606 93.4578C64.6606 92.515 64.7077 91.7473 64.7347 91.2153C64.7295 90.9366 64.7589 90.6584 64.8222 90.387Z" fill="#263238"/>
<path d="M119.107 122.173C119.016 121.754 118.96 121.328 118.939 120.9C118.858 120.011 118.757 118.839 118.629 117.418C118.38 114.482 118.07 110.415 117.753 105.923C117.437 101.431 117.167 97.3637 116.999 94.4208C116.918 92.9999 116.858 91.8214 116.811 90.9325C116.777 90.5044 116.777 90.0743 116.811 89.6462C116.902 90.0652 116.958 90.4909 116.979 90.919C117.06 91.808 117.167 92.9797 117.289 94.4006C117.538 97.3435 117.848 101.404 118.164 105.896C118.481 110.388 118.75 114.455 118.925 117.398C118.999 118.819 119.06 119.998 119.107 120.893C119.141 121.319 119.141 121.747 119.107 122.173Z" fill="#263238"/>
<g opacity="0.2">
<path opacity="0.2" d="M74.863 64.3522C79.1969 70.4317 84.784 75.5113 91.2475 79.2485C93.6045 80.5953 96.1433 81.8075 98.8573 82.0297C103.538 82.4068 107.949 79.8545 111.578 76.878C113.013 75.7062 114.434 74.3728 115.04 72.6219C115.646 70.871 115.174 68.5814 113.538 67.7463C112.954 67.4866 112.318 67.3627 111.679 67.3837C111.04 67.4046 110.414 67.5701 109.848 67.8675C108.719 68.4617 107.65 69.1631 106.656 69.9619C104.31 71.613 101.657 72.7766 98.8543 73.3839C96.0512 73.9911 93.1547 74.0296 90.3363 73.4971C87.518 72.9646 84.8353 71.8719 82.4469 70.2837C80.0586 68.6956 78.0133 66.6442 76.4321 64.2512" fill="black"/>
</g>
<path d="M102.945 112.772C102.872 111.819 102.728 110.874 102.514 109.943C102.239 108.86 101.801 107.824 101.214 106.872C100.447 105.61 99.4489 104.504 98.2715 103.613C96.7406 102.451 94.9419 101.694 93.0412 101.41C91.1406 101.127 89.199 101.326 87.3957 101.99C86.3538 102.359 85.3749 102.886 84.4932 103.552C83.5598 104.23 82.7413 105.053 82.0689 105.99C80.6252 107.955 79.8467 110.33 79.8467 112.768C79.8467 115.207 80.6252 117.581 82.0689 119.546C82.7413 120.483 83.5598 121.306 84.4932 121.984C85.3749 122.651 86.3538 123.178 87.3957 123.546C89.1935 124.203 91.1273 124.399 93.0202 124.115C94.9131 123.832 96.7047 123.078 98.2311 121.923C99.4085 121.032 100.407 119.926 101.174 118.664C101.76 117.712 102.198 116.677 102.474 115.593C102.687 114.665 102.831 113.721 102.905 112.772C102.912 112.834 102.912 112.897 102.905 112.96C102.905 113.102 102.905 113.283 102.905 113.512C102.906 113.815 102.881 114.117 102.831 114.415C102.787 114.824 102.713 115.229 102.608 115.627C102.355 116.73 101.93 117.787 101.349 118.758C100.505 120.198 99.3629 121.441 97.9994 122.404C96.6359 123.367 95.0825 124.027 93.4431 124.341C91.3712 124.736 89.2311 124.567 87.2475 123.849C86.1742 123.475 85.1656 122.937 84.2575 122.253C83.2932 121.561 82.4492 120.714 81.7591 119.748C80.2637 117.728 79.4565 115.281 79.4565 112.768C79.4565 110.255 80.2637 107.808 81.7591 105.788C82.1149 105.314 82.5018 104.864 82.9174 104.441C83.3422 104.034 83.792 103.654 84.2642 103.303C85.1731 102.621 86.1816 102.083 87.2543 101.707C89.2385 100.993 91.3778 100.823 93.4498 101.216C95.0892 101.529 96.6427 102.19 98.0061 103.152C99.3696 104.115 100.512 105.358 101.356 106.798C101.936 107.77 102.361 108.827 102.615 109.93C102.719 110.328 102.794 110.733 102.837 111.142C102.888 111.44 102.912 111.742 102.911 112.044C102.911 112.273 102.911 112.455 102.911 112.603C102.928 112.658 102.94 112.714 102.945 112.772Z" fill="white"/>
<path d="M90.9175 124.395C90.8165 124.395 90.7424 119.189 90.7424 112.765C90.7424 106.34 90.8165 101.142 90.9175 101.142C91.0185 101.142 91.0926 106.34 91.0926 112.765C91.0926 119.189 91.0118 124.395 90.9175 124.395Z" fill="white"/>
<path d="M100.5 119.829C100.224 119.674 99.9627 119.493 99.7193 119.29L97.699 117.728C95.9751 116.381 93.6181 114.529 91.0321 112.455L90.8233 112.293H91.0523C88.6818 114.522 86.5269 116.522 84.9578 117.95L83.0857 119.634C82.8678 119.85 82.6287 120.044 82.3718 120.213C82.5554 119.968 82.763 119.743 82.9914 119.539L84.7625 117.809C86.2844 116.334 88.4125 114.3 90.8233 112.071L90.9311 111.963L91.0523 112.058L91.2543 112.226C93.847 114.3 96.1771 116.192 97.8607 117.573C98.6486 118.246 99.3153 118.792 99.8338 119.223C100.073 119.405 100.297 119.608 100.5 119.829Z" fill="white"/>
<g opacity="0.2">
<path opacity="0.2" d="M81.3211 143.877C86.2682 144.75 91.3601 144.243 96.0382 142.413C100.716 140.582 104.8 137.498 107.841 133.5C108.81 132.2 109.699 130.604 109.295 129.035C108.891 127.466 107.086 126.375 105.396 126.415C103.694 126.562 102.096 127.292 100.871 128.483C97.7864 131.176 96.022 135.143 92.9444 137.857C90.1621 140.293 86.5359 141.543 82.843 141.338C82.2788 141.297 81.7118 141.319 81.1527 141.406C80.819 141.455 80.5112 141.614 80.2782 141.858C80.0452 142.102 79.9003 142.417 79.8665 142.753C79.8665 143.426 80.3917 143.709 81.3143 143.884" fill="black"/>
</g>
<g opacity="0.2">
<path opacity="0.2" d="M117.1 96.4207L117.935 108.684L127.437 114.502L129.424 110.805L117.1 96.4207Z" fill="black"/>
</g>
<path d="M141.101 90.0971C140.732 89.9802 140.35 89.9057 139.963 89.8749C138.904 89.8663 137.88 90.2501 137.088 90.9524C135.95 92.0427 135.169 93.451 134.845 94.9929C134.381 96.7102 133.936 98.6429 133.317 100.623C132.283 104.009 131.014 107.319 129.518 110.529C128.946 111.761 128.441 112.738 128.084 113.404C127.916 113.761 127.715 114.101 127.485 114.421C127.621 114.052 127.781 113.693 127.963 113.344C128.279 112.67 128.751 111.667 129.31 110.428C130.732 107.201 131.962 103.894 132.993 100.522C133.613 98.5486 134.057 96.6428 134.549 94.8986C134.903 93.3102 135.741 91.8705 136.946 90.7773C137.791 90.0626 138.878 89.6987 139.983 89.7604C140.281 89.7797 140.572 89.8503 140.845 89.9692C140.936 90.0013 141.022 90.0443 141.101 90.0971Z" fill="#263238"/>
<path d="M57.6165 123.088C57.3766 122.823 57.1518 122.544 56.9431 122.253C56.3262 121.49 55.6698 120.76 54.9767 120.065C53.9524 119.037 52.811 118.133 51.5759 117.371C50.1886 116.496 48.5656 115.701 46.8619 114.839C45.2554 114.036 43.6992 113.137 42.2017 112.145C40.9756 111.326 39.846 110.37 38.8346 109.297C38.1592 108.569 37.5757 107.762 37.0972 106.893C36.9639 106.657 36.8447 106.415 36.7403 106.165C36.6662 105.997 36.6325 105.909 36.646 105.903C37.3102 107.065 38.1056 108.147 39.0164 109.128C40.0371 110.162 41.166 111.083 42.3836 111.876C43.8797 112.844 45.4288 113.727 47.0235 114.522C48.7138 115.384 50.3502 116.193 51.7375 117.095C52.9817 117.883 54.122 118.824 55.1316 119.896C55.817 120.61 56.4516 121.37 57.0306 122.173C57.2327 122.455 57.3875 122.678 57.4818 122.846C57.5365 122.921 57.5817 123.002 57.6165 123.088Z" fill="#263238"/>
<path d="M111.45 127.163C111.429 127.295 111.39 127.424 111.336 127.547C111.235 127.796 111.12 128.173 110.905 128.631C110.342 129.944 109.666 131.206 108.885 132.402C106.322 136.398 102.752 139.647 98.5335 141.824C94.3153 144 89.5979 145.027 84.8567 144.8C83.4296 144.739 82.0102 144.556 80.6141 144.254C80.1225 144.16 79.7454 144.039 79.4895 143.978C79.3552 143.949 79.2243 143.907 79.0989 143.85C79.2357 143.852 79.3716 143.872 79.5029 143.911C79.7656 143.951 80.1764 144.052 80.641 144.126C82.0364 144.37 83.4476 144.511 84.8634 144.551C89.5517 144.71 94.2025 143.665 98.3715 141.515C102.541 139.364 106.088 136.18 108.676 132.267C109.467 131.091 110.17 129.858 110.777 128.577C111.006 128.126 111.141 127.762 111.262 127.52C111.313 127.395 111.376 127.275 111.45 127.163Z" fill="#263238"/>
<g opacity="0.2">
<path opacity="0.2" d="M58.2158 121.674C58.9949 111.871 61.2212 102.238 64.8221 93.0872V110.515L58.2158 121.674Z" fill="black"/>
</g>
<path d="M74.5195 64.0019C77.4691 70.3254 85.2944 73.9148 92.1229 75.2347C95.5662 75.8681 99.1096 75.6909 102.472 74.7173C105.835 73.7436 108.925 72.0001 111.497 69.625C115.807 65.5845 118.346 59.9748 122.36 55.6312C125.846 51.9541 130.277 49.3072 135.167 47.9804C140.057 46.6537 145.218 46.6981 150.085 48.109L150.617 38.5464C147.344 36.4251 138.919 35.6574 135.067 36.2365C127.392 37.4279 120.456 41.4883 115.659 47.5972C111.43 53.0385 108.925 60.0354 103.329 64.0356C99.2882 66.9246 94.2442 66.9448 89.3349 66.1165C84.4256 65.2882 81.1124 60.7964 77.321 57.5707L74.5195 64.0019Z" fill="#263238"/>
<path d="M77.2671 57.5774C78.5491 59.2061 80.1396 60.5661 81.9476 61.5796C83.7556 62.5932 85.7456 63.2405 87.804 63.4844C89.8623 63.7283 91.9485 63.5641 93.9433 63.0012C95.9381 62.4383 97.8024 61.4877 99.4296 60.2038C100.305 59.5303 101.45 58.6751 102.413 59.1936C103.181 59.5977 103.369 60.5876 103.47 61.4429C103.706 63.4227 103.894 65.6114 102.729 67.2276C101.564 68.8438 99.5778 69.322 97.6922 69.6452C93.2206 70.386 88.4729 70.3186 84.3246 68.4937C80.1763 66.6687 77.624 62.1028 77.2671 57.5774Z" fill="#263238"/>
<path d="M105.255 62.4194C105.192 62.5117 105.117 62.5954 105.033 62.6685C104.878 62.8167 104.662 63.0524 104.359 63.342C103.476 64.1028 102.511 64.7645 101.484 65.3151C99.9548 66.1351 98.304 66.7035 96.5945 66.9987C94.4954 67.3646 92.3436 67.2981 90.271 66.8034C88.2191 66.2547 86.262 65.3988 84.4661 64.2646C83.631 63.7662 82.8499 63.2881 82.1226 62.81C81.4527 62.3618 80.8138 61.8691 80.21 61.3352C79.3249 60.5758 78.5478 59.6989 77.9002 58.729C77.7268 58.4637 77.5716 58.1869 77.4355 57.9007C77.3412 57.7054 77.3008 57.5976 77.3143 57.5909C77.3278 57.5842 77.5433 57.9882 77.9877 58.6482C78.6676 59.5768 79.4593 60.4181 80.3447 61.1533C80.9559 61.6593 81.5944 62.1314 82.2572 62.5675C82.9778 63.0255 83.7725 63.4969 84.6075 63.9885C86.3827 65.0865 88.3088 65.9192 90.3249 66.4599C92.3524 66.946 94.4566 67.0216 96.5137 66.6822C98.1956 66.4047 99.8243 65.8686 101.342 65.0929C102.369 64.5717 103.342 63.949 104.245 63.2342C104.567 62.9451 104.904 62.6731 105.255 62.4194Z" fill="#455A64"/>
<path d="M116.831 62.4732C115.479 61.882 114.166 61.2072 112.898 60.4529C111.572 59.8061 110.288 59.0774 109.053 58.271C110.458 58.76 111.812 59.3871 113.094 60.1431C114.41 60.7998 115.662 61.58 116.831 62.4732Z" fill="#455A64"/>
<path d="M121.525 56.3584C120.037 55.7326 118.594 55.0035 117.208 54.1765C115.769 53.4443 114.382 52.6117 113.06 51.6848C114.551 52.3039 115.994 53.0332 117.376 53.8667C118.818 54.5959 120.204 55.4286 121.525 56.3584Z" fill="#455A64"/>
<path d="M126.064 51.2944C125.656 51.0143 125.281 50.689 124.946 50.3246L122.367 47.8734L119.781 45.4423C119.4 45.1277 119.055 44.7733 118.75 44.385C119.18 44.6279 119.58 44.9194 119.942 45.2537C120.616 45.8329 121.606 46.6612 122.636 47.6175C123.666 48.5737 124.535 49.4761 125.148 50.1495C125.499 50.492 125.807 50.8765 126.064 51.2944Z" fill="#455A64"/>
<path d="M126.75 38.6946C127.114 39.1259 127.437 39.5903 127.713 40.0818C128.387 41.0583 129.094 42.2166 129.922 43.4894C130.751 44.7622 131.518 45.907 132.165 46.8565C132.506 47.3077 132.799 47.7929 133.04 48.3044C132.632 47.9121 132.269 47.4763 131.956 47.0047C131.33 46.1696 130.501 44.9844 129.626 43.6375C128.751 42.2907 128.017 41.065 127.505 40.1627C127.197 39.7045 126.944 39.2118 126.75 38.6946Z" fill="#455A64"/>
<path d="M137.324 36.7014C137.504 37.1875 137.635 37.6906 137.714 38.2032C137.957 39.2739 138.233 40.4995 138.542 41.8599C138.852 43.2202 139.169 44.4324 139.431 45.4964C139.593 45.9905 139.699 46.5009 139.748 47.0183C139.505 46.5577 139.32 46.0692 139.196 45.5637C138.899 44.6479 138.522 43.3683 138.199 41.9407C137.876 40.513 137.62 39.1998 137.472 38.2503C137.356 37.7424 137.307 37.2219 137.324 36.7014Z" fill="#455A64"/>
<path d="M145.6 36.5798C145.701 36.5798 145.66 38.856 145.802 41.6507C145.943 44.4455 146.199 46.7014 146.098 46.7149C145.931 46.2436 145.827 45.7522 145.788 45.2536C145.654 44.3377 145.519 43.0717 145.452 41.6642C145.384 40.2568 145.391 38.9705 145.452 38.0681C145.438 37.5678 145.488 37.0677 145.6 36.5798Z" fill="#455A64"/>
<path d="M110.804 70.1368C109.553 69.1629 108.376 68.0983 107.282 66.9515C106.11 65.8845 105.016 64.7344 104.009 63.5103C105.259 64.4877 106.436 65.5545 107.531 66.7023C108.706 67.7638 109.8 68.9119 110.804 70.1368Z" fill="#455A64"/>
<path d="M101.295 75.0395C100.702 73.6571 100.214 72.2322 99.8337 70.7767C99.3421 69.3542 98.9638 67.895 98.7024 66.4128C99.3009 67.7938 99.7917 69.219 100.17 70.6756C100.659 72.0985 101.035 73.5576 101.295 75.0395Z" fill="#455A64"/>
<path d="M90.7156 74.898C90.8117 73.564 91.0258 72.2412 91.3553 70.945C91.5709 69.624 91.8999 68.3239 92.3385 67.0593C92.2384 68.3928 92.0244 69.7153 91.6988 71.0123C91.4832 72.3334 91.1542 73.6334 90.7156 74.898Z" fill="#455A64"/>
<path d="M82.7422 71.854C82.9948 70.6282 83.4259 69.4461 84.0217 68.3455C84.5193 67.1955 85.1792 66.1228 85.9814 65.1602C86.0689 65.2208 85.2271 66.6552 84.3382 68.5273C83.4493 70.3994 82.8297 71.8877 82.7422 71.854Z" fill="#455A64"/>
<path d="M80.5265 61.6785C80.1582 62.7627 79.639 63.7896 78.9844 64.7291C78.4361 65.7266 77.7566 66.6461 76.9641 67.4632C77.4833 66.4518 78.0682 65.4755 78.715 64.5405C79.2551 63.5476 79.8603 62.5915 80.5265 61.6785Z" fill="#455A64"/>
<path d="M89.436 63.7056C89.5302 63.7056 89.4696 64.2645 89.4023 64.9178C89.335 65.571 89.2811 66.103 89.1801 66.1097C89.0791 66.1165 88.978 65.5575 89.0521 64.8774C89.1262 64.1972 89.3417 63.6787 89.436 63.7056Z" fill="#455A64"/>
<path d="M96.0154 66.8438C95.7264 66.1587 95.5687 65.4254 95.5507 64.6821C95.4066 63.9551 95.4066 63.2069 95.5507 62.48C95.7524 63.186 95.8655 63.9144 95.8874 64.6484C96.0236 65.3717 96.0666 66.1095 96.0154 66.8438Z" fill="#455A64"/>
<path d="M100.743 59.719C100.97 60.6035 101.13 61.504 101.221 62.4127C101.429 63.2985 101.569 64.1991 101.638 65.1064C100.924 63.405 100.617 61.5601 100.743 59.719Z" fill="#455A64"/>
<path d="M39.6425 138.281L81.9001 113.768C83.4843 112.851 84.812 111.55 85.7606 109.985C86.7093 108.419 87.2483 106.64 87.3279 104.812L88.4458 79.08C88.4478 78.747 88.3264 78.4251 88.105 78.1764C87.8837 77.9276 87.578 77.7697 87.2471 77.7331C86.9396 77.7098 86.6334 77.7927 86.3797 77.968C86.126 78.1432 85.9401 78.4003 85.8531 78.6961L80.4657 98.0033L30.1539 119.311C28.8162 119.878 27.6091 120.714 26.6069 121.766C25.6048 122.818 24.8289 124.064 24.3272 125.428C23.8255 126.792 23.6087 128.244 23.69 129.695C23.7714 131.145 24.1492 132.564 24.8002 133.863C25.4517 135.159 26.3616 136.308 27.4737 137.239C28.5858 138.171 29.8767 138.865 31.267 139.278C32.6573 139.692 34.1175 139.817 35.5579 139.646C36.9982 139.474 38.3883 139.01 39.6425 138.281Z" fill="#FFBE9D"/>
<path d="M80.4524 97.9897C80.2962 98.085 80.1343 98.1704 79.9675 98.2456L78.5533 98.9191L73.314 101.316C68.8762 103.337 62.721 106.03 55.879 108.926C49.037 111.822 42.7943 114.314 38.2554 116.098C35.9927 116.98 34.1475 117.681 32.868 118.118L31.3932 118.657C31.2248 118.731 31.0485 118.785 30.8679 118.819C31.0297 118.733 31.1961 118.657 31.3663 118.59L32.8141 117.991C34.1138 117.472 35.9254 116.731 38.1611 115.829C42.6731 114.011 48.8956 111.458 55.7376 108.569C62.5796 105.68 68.7482 103 73.2063 101.054L78.4927 98.7575L79.9406 98.1446C80.1058 98.0767 80.2772 98.0248 80.4524 97.9897Z" fill="#EB996E"/>
<path d="M25.9856 136.079C25.9856 136.045 26.5513 135.985 27.5412 135.742C28.1425 135.591 28.7269 135.378 29.2854 135.109C30.0147 134.734 30.7089 134.295 31.3595 133.796C32.0936 133.244 32.9017 132.638 33.7435 131.971C34.5853 131.304 35.4675 130.55 36.39 129.762C38.3458 127.969 40.5202 126.431 42.8617 125.183C45.2511 124.007 47.834 123.275 50.4849 123.021C52.6468 122.821 54.8262 122.932 56.9565 123.351C58.3875 123.641 59.7845 124.079 61.125 124.657C61.5964 124.86 61.9466 125.055 62.1891 125.176C62.3181 125.227 62.4384 125.297 62.546 125.385C62.4141 125.346 62.2858 125.297 62.1621 125.237C61.9062 125.142 61.5493 124.961 61.0712 124.779C59.7232 124.258 58.33 123.864 56.9094 123.6C54.8016 123.216 52.6503 123.13 50.5186 123.344C47.91 123.613 45.3698 124.342 43.0166 125.499C40.7017 126.736 38.5465 128.252 36.5988 130.011C35.6695 130.792 34.7806 131.533 33.9051 132.2C33.0296 132.867 32.235 133.452 31.4808 133.991C30.8117 134.491 30.097 134.926 29.346 135.291C28.7703 135.546 28.1701 135.743 27.5547 135.877C27.0496 135.978 26.6523 136.032 26.3762 136.059C26.2473 136.081 26.1161 136.088 25.9856 136.079Z" fill="#263238"/>
<path d="M34.0938 132.106C34.0938 132.106 34.1342 132.348 34.2352 132.779C34.387 133.348 34.6761 133.87 35.077 134.301C35.6687 134.942 36.4087 135.427 37.2319 135.715C38.243 136.046 39.3392 136.006 40.323 135.601L40.6125 135.466L40.5317 135.688C40.1341 134.737 39.4931 133.908 38.6731 133.284C38.0039 132.777 37.2315 132.423 36.4103 132.247C35.6459 132.113 34.8677 132.074 34.0938 132.132C34.2865 132.042 34.4942 131.987 34.7066 131.971C35.2883 131.889 35.8793 131.9 36.4575 132.005C37.3267 132.157 38.1493 132.507 38.8616 133.028C39.7552 133.667 40.4544 134.541 40.8819 135.554L40.9492 135.708L40.8011 135.776L40.4846 135.924C39.413 136.371 38.214 136.407 37.1174 136.025C36.2505 135.705 35.4806 135.166 34.8817 134.463C34.4762 133.99 34.2042 133.418 34.0938 132.806C34.04 132.576 34.04 132.336 34.0938 132.106Z" fill="#263238"/>
<path d="M34.0938 132.105C34.8342 132.338 35.5373 132.676 36.1814 133.109C36.8831 133.445 37.5283 133.888 38.0939 134.422C37.3535 134.19 36.6504 133.852 36.0063 133.419C35.3045 133.083 34.6593 132.64 34.0938 132.105Z" fill="#263238"/>
<path d="M40.4575 126.873C40.5656 127.065 40.6623 127.263 40.7471 127.466C41.0261 127.984 41.4257 128.427 41.9121 128.759C42.6381 129.242 43.4694 129.545 44.3365 129.641C45.3969 129.73 46.4545 129.439 47.3197 128.819L47.5689 128.617V128.853C46.9633 128.021 46.1508 127.362 45.2119 126.94C44.4422 126.602 43.6082 126.434 42.7674 126.449C41.9912 126.49 41.2237 126.633 40.4845 126.873C40.6527 126.74 40.8446 126.639 41.0501 126.577C41.596 126.36 42.174 126.235 42.7606 126.206C43.6411 126.15 44.5224 126.303 45.3331 126.651C46.3448 127.079 47.2187 127.778 47.8585 128.671L47.9528 128.806L47.8248 128.907C47.7373 128.974 47.6497 129.055 47.5487 129.122C46.6164 129.792 45.4719 130.098 44.3297 129.984C43.4144 129.869 42.5432 129.524 41.7976 128.981C41.2957 128.613 40.9007 128.118 40.6528 127.547C40.5426 127.338 40.4762 127.108 40.4575 126.873Z" fill="#263238"/>
<path d="M40.4575 126.873C41.2349 126.923 42.0002 127.091 42.727 127.371C43.4849 127.541 44.2134 127.823 44.8887 128.206C43.3522 127.983 41.8582 127.529 40.4575 126.86V126.873Z" fill="#263238"/>
<path d="M29.2855 135.076C29.2855 135.076 29.4471 134.894 29.703 134.564C30.0549 134.095 30.2862 133.547 30.3765 132.968C30.5234 132.109 30.4563 131.228 30.1812 130.402C29.8272 129.398 29.1246 128.555 28.2013 128.025L27.9184 127.877L28.1407 127.803C27.6722 128.617 27.4084 129.532 27.372 130.471C27.3357 131.409 27.5278 132.342 27.9319 133.19C28.2984 133.88 28.751 134.52 29.2788 135.096C29.0876 134.998 28.9164 134.866 28.7737 134.705C27.7197 133.663 27.1092 132.254 27.0699 130.772C27.0414 129.679 27.3114 128.599 27.8511 127.648L27.9319 127.5L28.0801 127.58L28.3898 127.742C29.3842 128.314 30.136 129.228 30.5044 130.314C30.7747 131.187 30.8188 132.114 30.6324 133.008C30.5107 133.618 30.2268 134.183 29.8108 134.645C29.6672 134.823 29.4884 134.97 29.2855 135.076Z" fill="#263238"/>
<path d="M29.2854 135.075C29.0067 134.349 28.8431 133.583 28.8006 132.806C28.6425 132.044 28.5971 131.264 28.6659 130.489C28.9447 131.216 29.1083 131.982 29.1508 132.759C29.3089 133.52 29.3542 134.301 29.2854 135.075Z" fill="#263238"/>
<path d="M45.0301 124.543C45.0301 124.543 45.2322 124.462 45.5756 124.287C46.058 124.045 46.4723 123.686 46.781 123.243C47.2447 122.594 47.5408 121.839 47.643 121.048C47.7553 120.083 47.5162 119.11 46.9696 118.307C46.9157 118.219 46.8484 118.145 46.7945 118.065L47.0302 118.098C46.2511 118.633 45.6282 119.365 45.2254 120.22C44.8943 120.914 44.7196 121.673 44.7136 122.442C44.7295 123.153 44.8359 123.859 45.0301 124.543C45.0301 124.543 44.8954 124.375 44.7608 124.024C44.5763 123.516 44.474 122.982 44.4577 122.442C44.4265 121.631 44.5856 120.823 44.9224 120.085C45.3337 119.166 45.9909 118.378 46.8214 117.809L46.9561 117.714L47.0504 117.842C47.111 117.93 47.1851 118.011 47.2457 118.105C47.8438 118.977 48.1003 120.039 47.9663 121.088C47.8407 121.929 47.5023 122.724 46.9831 123.398C46.6339 123.852 46.1686 124.204 45.6362 124.415C45.4469 124.504 45.2394 124.548 45.0301 124.543Z" fill="#263238"/>
<path d="M45.0303 124.543C45.0793 123.832 45.2454 123.133 45.5219 122.476C45.7024 121.777 45.991 121.112 46.3771 120.502C46.329 121.216 46.1629 121.917 45.8855 122.577C45.7059 123.273 45.4172 123.937 45.0303 124.543Z" fill="#263238"/>
<path d="M50.4713 123.149C50.467 123.352 50.4512 123.554 50.4242 123.755C50.4068 124.294 50.5176 124.83 50.7475 125.318C51.0942 126.036 51.6094 126.66 52.2492 127.136C53.0422 127.702 54.0132 127.963 54.9833 127.87L55.2729 127.836L55.1315 128.025C55.043 127.084 54.7086 126.183 54.1617 125.412C53.7083 124.777 53.1195 124.25 52.4377 123.87C51.7969 123.542 51.1184 123.293 50.4175 123.129C50.6107 123.089 50.8101 123.089 51.0033 123.129C52.3512 123.351 53.5592 124.091 54.3705 125.19C54.97 125.996 55.3379 126.951 55.4345 127.951V128.119H55.2796L54.9564 128.159C53.9036 128.256 52.8519 127.964 52 127.338C51.3196 126.811 50.79 126.114 50.4646 125.318C50.2351 124.793 50.1536 124.215 50.2289 123.647C50.2715 123.465 50.3543 123.295 50.4713 123.149Z" fill="#263238"/>
<path d="M50.4717 123.149C51.0679 123.543 51.5975 124.03 52.0408 124.59C52.5648 125.074 53.0061 125.641 53.3472 126.267C52.7495 125.875 52.2196 125.388 51.7781 124.826C51.2508 124.345 50.809 123.778 50.4717 123.149Z" fill="#263238"/>
<path d="M54.3907 122.994C55.031 123.057 55.6762 122.943 56.2561 122.664C56.8608 122.342 57.3801 121.88 57.7713 121.317C58.2269 120.611 58.4178 119.767 58.31 118.933C58.31 118.846 58.2764 118.765 58.2629 118.684L58.4582 118.819C57.651 118.929 56.8869 119.25 56.2426 119.748C55.7145 120.154 55.2823 120.672 54.9766 121.263C54.7139 121.822 54.5172 122.41 54.3907 123.014C54.3545 122.846 54.3545 122.671 54.3907 122.503C54.4429 122.036 54.5703 121.581 54.7678 121.156C55.0645 120.513 55.5045 119.946 56.0541 119.499C56.7366 118.948 57.5558 118.592 58.4245 118.469H58.5929V118.63C58.6157 118.721 58.6314 118.813 58.64 118.906C58.7612 119.823 58.5432 120.752 58.0272 121.519C57.5958 122.122 57.019 122.607 56.3504 122.927C55.8969 123.14 55.3948 123.228 54.8958 123.183C54.559 123.095 54.384 123.014 54.3907 122.994Z" fill="#263238"/>
<path d="M54.3909 122.994C55.0855 121.967 55.9701 121.083 56.997 120.388C56.6957 120.946 56.2912 121.442 55.8051 121.85C55.1316 122.523 54.4582 123.068 54.3909 122.994Z" fill="#263238"/>
<path d="M37.279 129.082C37.279 129.082 37.4406 128.907 37.7033 128.577C38.0526 128.107 38.2835 127.559 38.3767 126.981C38.5209 126.12 38.4539 125.238 38.1814 124.409C37.8253 123.406 37.1233 122.563 36.2015 122.031L35.912 121.883L36.1409 121.809C35.6313 122.706 35.3666 123.721 35.3732 124.752C35.3828 125.591 35.5734 126.418 35.9322 127.176C36.2972 127.867 36.7499 128.508 37.279 129.082C37.0892 128.982 36.9182 128.85 36.7739 128.692C36.3526 128.283 36.0021 127.808 35.7369 127.284C35.3169 126.507 35.0862 125.642 35.0634 124.759C35.0325 123.665 35.3027 122.584 35.8446 121.634L35.9254 121.493L36.0668 121.567L36.3834 121.728C37.378 122.298 38.1283 123.214 38.4912 124.301C38.7723 125.183 38.8187 126.123 38.6259 127.028C38.5019 127.64 38.2132 128.206 37.7908 128.665C37.6535 128.84 37.4786 128.983 37.279 129.082Z" fill="#263238"/>
<path d="M37.279 129.082C37.0081 128.353 36.847 127.588 36.8008 126.812C36.6427 126.051 36.5973 125.27 36.6661 124.496C36.9375 125.225 37.1008 125.989 37.151 126.765C37.3131 127.526 37.3563 128.308 37.279 129.082Z" fill="#263238"/>
<path d="M141.647 131.082L98.5475 111.829C96.9314 111.104 95.5239 109.984 94.4552 108.571C93.3864 107.159 92.6909 105.5 92.4328 103.747L88.803 79.1808C88.757 78.8563 88.8366 78.5264 89.0256 78.2585C89.2146 77.9907 89.4987 77.8051 89.8199 77.7397C90.1127 77.681 90.4167 77.7271 90.679 77.8699C90.9412 78.0127 91.1448 78.2431 91.2543 78.5209L98.3859 96.5149L148.839 111.903C155.156 113.923 157.594 119.815 155.452 125.371C154.955 126.679 154.195 127.871 153.22 128.875C152.245 129.878 151.075 130.672 149.782 131.207C148.489 131.742 147.101 132.007 145.702 131.985C144.303 131.964 142.923 131.656 141.647 131.082Z" fill="#FFBE9D"/>
<path d="M98.3726 96.5149C98.5469 96.5409 98.7183 96.5838 98.8844 96.6428L100.332 97.0873L105.646 98.7574C110.124 100.172 116.319 102.125 123.155 104.205C129.99 106.286 136.246 108.111 140.765 109.411L146.112 110.946L147.566 111.377C147.736 111.423 147.902 111.48 148.065 111.546C147.889 111.531 147.715 111.497 147.546 111.445L146.078 111.081C144.805 110.758 142.967 110.266 140.691 109.647C136.159 108.414 129.916 106.63 123.047 104.542C116.178 102.455 110.003 100.468 105.538 98.9931L100.265 97.2153L98.8372 96.7102C98.6768 96.659 98.5213 96.5937 98.3726 96.5149Z" fill="#EB996E"/>
<path d="M154.509 127.594C154.377 127.611 154.244 127.611 154.112 127.594C153.729 127.598 153.347 127.58 152.967 127.54C152.36 127.478 151.761 127.349 151.182 127.156C150.424 126.885 149.694 126.542 149 126.132C148.226 125.688 147.391 125.203 146.495 124.651C145.6 124.099 144.677 123.479 143.707 122.819C141.659 121.332 139.436 120.101 137.087 119.156C134.718 118.27 132.209 117.814 129.68 117.809C127.613 117.822 125.557 118.121 123.572 118.698C122.232 119.092 120.934 119.613 119.693 120.253C119.248 120.476 118.925 120.684 118.689 120.799C118.58 120.875 118.459 120.934 118.333 120.974C118.434 120.887 118.542 120.808 118.656 120.738C118.878 120.604 119.194 120.375 119.625 120.132C120.855 119.442 122.152 118.883 123.498 118.462C125.5 117.846 127.579 117.517 129.673 117.486C132.248 117.473 134.804 117.929 137.215 118.832C139.591 119.794 141.836 121.052 143.896 122.577C144.866 123.25 145.781 123.87 146.657 124.429C147.532 124.988 148.374 125.486 149.128 125.937C149.805 126.351 150.517 126.705 151.256 126.994C151.818 127.194 152.397 127.339 152.987 127.425C153.964 127.553 154.516 127.56 154.509 127.594Z" fill="#263238"/>
<path d="M146.327 124.597C146.402 124.813 146.423 125.044 146.388 125.27C146.346 125.872 146.144 126.451 145.802 126.947C145.289 127.687 144.593 128.281 143.782 128.671C142.776 129.14 141.634 129.226 140.569 128.914L140.246 128.799L140.098 128.752L140.145 128.59C140.451 127.578 141.025 126.668 141.808 125.957C142.872 125 144.264 124.489 145.694 124.53C145.9 124.52 146.106 124.553 146.3 124.624C145.551 124.649 144.807 124.765 144.085 124.967C143.316 125.22 142.613 125.638 142.024 126.193C141.297 126.872 140.765 127.732 140.482 128.685L140.374 128.476L140.67 128.577C141.655 128.867 142.711 128.796 143.647 128.375C144.407 128.017 145.068 127.478 145.573 126.806C145.919 126.351 146.15 125.82 146.246 125.257C146.314 124.833 146.3 124.604 146.327 124.597Z" fill="#263238"/>
<path d="M146.327 124.597C145.841 125.17 145.266 125.661 144.624 126.052C144.054 126.539 143.41 126.935 142.718 127.223C143.206 126.652 143.781 126.162 144.422 125.769C144.994 125.284 145.636 124.889 146.327 124.597Z" fill="#263238"/>
<path d="M139.687 120.213C139.703 120.442 139.671 120.671 139.593 120.886C139.415 121.461 139.087 121.977 138.643 122.381C137.982 122.982 137.177 123.401 136.306 123.6C135.221 123.83 134.089 123.65 133.128 123.095C133.02 123.041 132.926 122.974 132.838 122.92L132.704 122.833L132.784 122.685C133.314 121.771 134.082 121.019 135.007 120.509C135.754 120.101 136.586 119.87 137.438 119.836C138.003 119.811 138.569 119.875 139.115 120.024C139.319 120.062 139.514 120.14 139.687 120.253C138.952 120.102 138.201 120.044 137.451 120.078C136.553 120.158 135.687 120.454 134.927 120.941C134.167 121.427 133.536 122.09 133.087 122.873L133.034 122.644C133.121 122.698 133.209 122.759 133.303 122.806C134.191 123.317 135.233 123.491 136.239 123.297C137.062 123.12 137.829 122.746 138.475 122.206C138.908 121.843 139.248 121.381 139.465 120.86C139.521 120.638 139.595 120.422 139.687 120.213Z" fill="#263238"/>
<path d="M139.687 120.213C139.071 120.658 138.39 121.003 137.667 121.237C136.998 121.573 136.28 121.801 135.539 121.91C136.814 121.124 138.205 120.542 139.66 120.186L139.687 120.213Z" fill="#263238"/>
<path d="M151.243 126.961C151.038 126.886 150.852 126.766 150.698 126.611C150.248 126.212 149.913 125.701 149.728 125.129C149.453 124.279 149.402 123.372 149.58 122.496C149.824 121.413 150.453 120.455 151.351 119.802L151.634 119.62L151.769 119.526L151.87 119.668C152.481 120.526 152.849 121.533 152.934 122.583C152.999 123.435 152.867 124.29 152.55 125.082C152.347 125.611 152.058 126.102 151.694 126.537C151.432 126.84 151.257 126.974 151.243 126.961C151.689 126.355 152.053 125.694 152.327 124.994C152.626 124.143 152.714 123.233 152.584 122.34C152.454 121.448 152.109 120.6 151.58 119.87L151.816 119.917C151.735 119.971 151.641 120.024 151.553 120.092C150.724 120.695 150.137 121.574 149.896 122.57C149.716 123.391 149.739 124.245 149.964 125.055C150.118 125.602 150.402 126.103 150.792 126.516C151.068 126.806 151.263 126.934 151.243 126.961Z" fill="#263238"/>
<path d="M151.243 126.961C151.091 126.226 151.055 125.471 151.135 124.725C151.1 123.974 151.18 123.223 151.371 122.496C151.527 123.23 151.566 123.985 151.486 124.732C151.52 125.483 151.439 126.235 151.243 126.961Z" fill="#263238"/>
<path d="M135.047 118.482C134.847 118.511 134.644 118.491 134.454 118.422C133.919 118.275 133.435 117.983 133.054 117.58C132.485 116.985 132.08 116.255 131.875 115.459C131.637 114.466 131.774 113.42 132.259 112.522C132.313 112.421 132.373 112.334 132.421 112.253L132.501 112.112L132.65 112.192C133.508 112.662 134.219 113.362 134.704 114.213C135.098 114.891 135.329 115.652 135.377 116.435C135.417 116.955 135.372 117.478 135.242 117.984C135.211 118.171 135.143 118.35 135.04 118.509C135.152 117.842 135.183 117.164 135.135 116.489C135.052 115.751 134.809 115.041 134.421 114.408C133.947 113.634 133.278 112.997 132.481 112.563L132.71 112.502C132.663 112.583 132.609 112.664 132.562 112.751C132.121 113.576 131.985 114.53 132.178 115.445C132.364 116.192 132.724 116.884 133.229 117.465C133.571 117.855 134.003 118.156 134.488 118.341C134.677 118.377 134.864 118.425 135.047 118.482Z" fill="#263238"/>
<path d="M135.047 118.482C134.281 117.34 133.714 116.076 133.37 114.745C134.136 115.887 134.703 117.151 135.047 118.482Z" fill="#263238"/>
<path d="M129.7 117.647C129.819 117.811 129.9 118 129.936 118.199C130.064 118.738 130.046 119.301 129.882 119.829C129.641 120.617 129.2 121.329 128.603 121.897C127.848 122.583 126.868 122.969 125.848 122.981C125.743 122.988 125.637 122.988 125.532 122.981H125.37V122.812C125.361 121.84 125.617 120.883 126.111 120.045C126.512 119.37 127.063 118.797 127.72 118.368C128.157 118.082 128.637 117.868 129.141 117.735C129.321 117.672 129.51 117.644 129.7 117.654C129.054 117.888 128.437 118.195 127.862 118.57C127.189 119.05 126.643 119.687 126.27 120.424C125.897 121.162 125.709 121.979 125.72 122.806L125.559 122.631C125.653 122.637 125.747 122.637 125.842 122.631C126.779 122.618 127.682 122.272 128.387 121.654C128.952 121.13 129.384 120.479 129.646 119.755C129.82 119.265 129.873 118.741 129.801 118.226C129.756 118.035 129.722 117.842 129.7 117.647Z" fill="#263238"/>
<path d="M129.7 117.647C129.44 118.288 129.074 118.88 128.616 119.398C128.258 119.983 127.803 120.503 127.269 120.934C127.533 120.297 127.899 119.708 128.353 119.189C128.714 118.605 129.17 118.084 129.7 117.647Z" fill="#263238"/>
<path d="M125.922 117.896C125.922 117.896 125.767 118.011 125.437 118.092C124.964 118.19 124.472 118.155 124.017 117.991C123.338 117.759 122.731 117.352 122.259 116.812C121.683 116.127 121.377 115.256 121.397 114.361C121.397 114.267 121.397 114.172 121.397 114.092V113.93H121.565C122.414 113.959 123.238 114.22 123.949 114.684C124.525 115.054 125.005 115.555 125.35 116.146C125.583 116.536 125.751 116.961 125.848 117.405C125.897 117.564 125.911 117.732 125.889 117.896C125.694 117.332 125.444 116.788 125.141 116.273C124.746 115.678 124.214 115.187 123.589 114.841C122.965 114.495 122.266 114.305 121.552 114.287L121.734 114.125C121.734 114.206 121.734 114.287 121.734 114.374C121.715 115.183 121.982 115.972 122.488 116.603C122.917 117.112 123.462 117.509 124.077 117.762C124.669 117.974 125.306 118.02 125.922 117.896Z" fill="#263238"/>
<path d="M125.922 117.896C125.365 117.669 124.857 117.335 124.427 116.913C123.659 116.294 123.08 115.728 123.154 115.654C123.711 115.883 124.218 116.217 124.649 116.637C125.41 117.257 125.983 117.809 125.922 117.896Z" fill="#263238"/>
<path d="M142.96 122.018C142.756 121.939 142.571 121.82 142.415 121.668C141.962 121.269 141.626 120.755 141.445 120.179C141.169 119.329 141.118 118.422 141.297 117.546C141.539 116.463 142.169 115.505 143.068 114.853L143.351 114.664L143.485 114.576L143.58 114.711C144.195 115.57 144.565 116.58 144.65 117.634C144.715 118.485 144.584 119.34 144.266 120.132C144.062 120.659 143.77 121.149 143.404 121.58C143.149 121.89 142.973 122.025 142.96 122.011C143.405 121.406 143.77 120.744 144.044 120.045C144.343 119.194 144.431 118.283 144.301 117.39C144.171 116.498 143.826 115.65 143.297 114.92L143.532 114.967L143.27 115.135C142.443 115.74 141.856 116.618 141.613 117.614C141.433 118.435 141.456 119.288 141.681 120.099C141.83 120.647 142.115 121.15 142.509 121.56C142.785 121.849 142.98 121.991 142.96 122.018Z" fill="#263238"/>
<path d="M142.96 122.018C142.809 121.283 142.772 120.528 142.852 119.782C142.816 119.031 142.896 118.28 143.088 117.553C143.24 118.288 143.279 119.042 143.202 119.789C143.233 120.54 143.151 121.291 142.96 122.018Z" fill="#263238"/>
</svg>
