<svg width="58" height="59" viewBox="0 0 58 59" fill="none" xmlns="http://www.w3.org/2000/svg">
<path d="M28.9149 29.7085C35.533 29.7085 40.8979 24.3435 40.8979 17.7255C40.8979 11.1074 35.533 5.74243 28.9149 5.74243C22.2969 5.74243 16.9319 11.1074 16.9319 17.7255C16.9319 24.3435 22.2969 29.7085 28.9149 29.7085Z" stroke="#00325A" stroke-width="4.79321"/>
<path d="M40.8982 53.6746H12.7764C12.0967 53.6747 11.4247 53.5303 10.8051 53.2509C10.1855 52.9715 9.63233 52.5635 9.18242 52.054C8.73252 51.5444 8.39613 50.9451 8.19557 50.2956C7.99502 49.6462 7.93489 48.9615 8.01917 48.287L8.95385 40.8C9.17121 39.0606 10.0165 37.4605 11.3309 36.3006C12.6452 35.1408 14.338 34.501 16.0909 34.5017H16.9322" stroke="#00325A" stroke-width="4.79321" stroke-linecap="round" stroke-linejoin="round"/>
<path d="M38.5015 39.2949L43.8938 44.0881L52.8811 34.5017" stroke="#00325A" stroke-width="4.79321" stroke-linecap="round" stroke-linejoin="round"/>
</svg>
