<svg width="218" height="161" viewBox="0 0 218 161" fill="none" xmlns="http://www.w3.org/2000/svg">
<path d="M86.342 72.7587C86.268 72.7587 86.197 72.7293 86.1447 72.677C86.0924 72.6247 86.063 72.5537 86.063 72.4797V62.7141C86.063 62.6401 86.0924 62.5691 86.1447 62.5168C86.197 62.4645 86.268 62.4351 86.342 62.4351C86.416 62.4351 86.487 62.4645 86.5393 62.5168C86.5916 62.5691 86.621 62.6401 86.621 62.7141V72.4685C86.6225 72.5061 86.6164 72.5436 86.6031 72.5787C86.5897 72.6139 86.5694 72.646 86.5434 72.6731C86.5173 72.7002 86.486 72.7217 86.4514 72.7364C86.4168 72.7512 86.3796 72.7587 86.342 72.7587Z" fill="#FFEEF2"/>
<path d="M71.9948 78.9867C71.9578 78.9877 71.921 78.9812 71.8865 78.9678C71.8521 78.9544 71.8206 78.9343 71.7939 78.9086L64.6734 71.7825C64.6467 71.7574 64.6255 71.7272 64.6109 71.6936C64.5964 71.66 64.5889 71.6238 64.5889 71.5872C64.5889 71.5506 64.5964 71.5144 64.6109 71.4808C64.6255 71.4472 64.6467 71.4169 64.6734 71.3919C64.6994 71.3657 64.7302 71.3449 64.7642 71.3308C64.7982 71.3166 64.8347 71.3093 64.8715 71.3093C64.9084 71.3093 64.9448 71.3166 64.9788 71.3308C65.0128 71.3449 65.0437 71.3657 65.0696 71.3919L72.1902 78.5124C72.2163 78.5383 72.2371 78.5692 72.2512 78.6032C72.2654 78.6372 72.2727 78.6737 72.2727 78.7105C72.2727 78.7473 72.2654 78.7838 72.2512 78.8178C72.2371 78.8518 72.2163 78.8826 72.1902 78.9086C72.1648 78.9344 72.1343 78.9546 72.1007 78.9681C72.0671 78.9815 72.031 78.9879 71.9948 78.9867Z" fill="#FFEEF2"/>
<path d="M100.678 78.9867C100.642 78.9872 100.606 78.9806 100.572 78.9672C100.539 78.9538 100.508 78.9339 100.482 78.9086C100.431 78.8555 100.402 78.7844 100.402 78.7105C100.402 78.6365 100.431 78.5655 100.482 78.5124L107.603 71.3919C107.629 71.3657 107.66 71.3449 107.694 71.3308C107.728 71.3166 107.764 71.3093 107.801 71.3093C107.838 71.3093 107.874 71.3166 107.908 71.3308C107.942 71.3449 107.973 71.3657 107.999 71.3919C108.026 71.4169 108.047 71.4472 108.062 71.4808C108.076 71.5144 108.084 71.5506 108.084 71.5872C108.084 71.6238 108.076 71.66 108.062 71.6936C108.047 71.7272 108.026 71.7574 107.999 71.7825L100.879 78.8974C100.853 78.9251 100.822 78.9473 100.787 78.9627C100.753 78.978 100.716 78.9862 100.678 78.9867Z" fill="#FFEEF2"/>
<path d="M143.886 85.4228C145.368 86.0168 146.592 87.1581 147.339 88.6429C148.085 90.1278 148.306 91.8595 147.962 93.5289C135.047 156.741 114.458 129.405 110.581 125.515C107.752 122.681 95.4578 101.001 94.3507 97.4146L100.897 93.0312C104.594 98.6578 119.615 114.002 121.919 115.833C122.606 116.396 124.884 125.059 134.962 90.1761C135.236 89.2227 135.691 88.3356 136.298 87.5706C136.905 86.8056 137.652 86.1793 138.491 85.7312C139.329 85.2831 140.242 85.0229 141.171 84.967C142.1 84.9111 143.025 85.0607 143.889 85.4063L143.886 85.4228Z" fill="#FFBE9D"/>
<path d="M152.398 74.7063C145.534 65.2197 133.62 69.3046 129.34 83.0769C126.873 91.1182 125.435 99.4396 125.06 107.842L132.286 110.03L149.853 115.365C149.853 115.365 154.786 97.3347 154.613 84.6728C154.563 80.4932 153.938 76.8883 152.398 74.7063Z" fill="#093636"/>
<path opacity="0.2" d="M139.479 91.8997C138.552 93.568 137.803 95.3301 137.247 97.1564C135.896 101.522 134.859 105.979 134.145 110.493L145.227 113.842L139.479 91.8997Z" fill="black"/>
<path d="M156.628 65.6498C164.932 64.4383 173.3 63.708 181.689 63.4623C188.367 63.2799 195.05 63.5334 201.695 64.2212C202.755 89.7179 206.254 151.057 206.639 160.153H146.494C131.617 81.8384 139.987 70.1978 139.987 70.1978C145.407 68.2496 150.971 66.7289 156.628 65.6498Z" fill="#093636"/>
<path opacity="0.2" d="M204.658 122.887L203.709 101.397L187.61 81.8662C186.304 108.68 200.378 116.286 204.658 122.887Z" fill="black"/>
<path d="M159.664 50.1194C161.935 56.6428 162.789 63.7354 153.408 66.8604C153.408 66.8604 149.77 75.9285 162.56 74.8459C178.536 73.4954 180.11 64.5334 180.11 64.5334C173.603 59.3158 173.899 43.4285 174.837 34.6897L159.664 50.1194Z" fill="#FFBE9D"/>
<path opacity="0.2" d="M169.256 45.6049C169.2 49.4665 164.524 53.9308 160.914 54.7846C160.641 53.1918 160.227 51.6268 159.675 50.1082L168.659 40.9844C169.133 42.4765 169.335 44.0414 169.256 45.6049Z" fill="black"/>
<path d="M172.939 14.556C170.993 10.7981 167.634 7.96685 163.601 6.68492C159.568 5.403 155.191 5.77536 151.433 7.72012C140.45 13.3451 140.378 30.767 143.787 41.0013C147.582 52.3685 162.404 56.4477 170.462 46.6821C175.808 40.1308 175.026 33.3674 174.725 21.6598C174.69 19.1853 174.078 16.7531 172.939 14.556Z" fill="#FFBE9D"/>
<path d="M155.093 25.7225C154.468 25.7839 154.027 26.593 154.111 27.5417C154.195 28.4903 154.781 29.2158 155.389 29.1656C155.997 29.1153 156.444 28.295 156.354 27.3464C156.265 26.3977 155.718 25.6667 155.093 25.7225Z" fill="#093636"/>
<path d="M144.234 26.4422C143.609 26.498 143.196 27.3072 143.269 28.2614C143.341 29.2156 143.905 29.9355 144.535 29.8797C145.166 29.8239 145.584 29.0092 145.501 28.0605C145.417 27.1119 144.859 26.4032 144.234 26.4422Z" fill="#093636"/>
<path d="M159.463 22.5359C159.008 22.0028 158.432 21.5857 157.784 21.3189C157.136 21.052 156.434 20.9432 155.735 21.0013C155.662 21.0124 155.588 21.0091 155.517 20.9915C155.446 20.9739 155.379 20.9425 155.32 20.8989C155.261 20.8554 155.211 20.8006 155.173 20.7377C155.135 20.6749 155.11 20.6051 155.099 20.5326C155.08 20.3878 155.118 20.2412 155.206 20.1243C155.293 20.0075 155.423 19.9297 155.568 19.9076C156.451 19.8221 157.342 19.9504 158.166 20.2815C158.989 20.6127 159.721 21.1371 160.3 21.8105C160.402 21.9148 160.459 22.055 160.459 22.2011C160.459 22.3471 160.402 22.4874 160.3 22.5917C160.182 22.6937 160.029 22.7466 159.873 22.7393C159.718 22.732 159.571 22.6652 159.463 22.5526V22.5359Z" fill="#093636"/>
<path d="M140.841 23.3674C140.729 23.2721 140.66 23.1367 140.647 22.9905C140.635 22.8443 140.68 22.699 140.774 22.5861C141.311 21.879 142.011 21.3129 142.815 20.9367C143.619 20.5605 144.502 20.3854 145.389 20.4265C145.462 20.4346 145.533 20.457 145.598 20.4925C145.662 20.528 145.719 20.5759 145.766 20.6334C145.812 20.6909 145.846 20.757 145.867 20.8277C145.887 20.8985 145.894 20.9727 145.886 21.046C145.878 21.1192 145.855 21.1902 145.82 21.2548C145.784 21.3195 145.736 21.3764 145.679 21.4226C145.621 21.4687 145.555 21.503 145.484 21.5236C145.414 21.5442 145.339 21.5507 145.266 21.5426C144.56 21.5332 143.861 21.6916 143.227 22.005C142.594 22.3183 142.044 22.7776 141.622 23.3451C141.556 23.4256 141.469 23.4861 141.37 23.5196C141.272 23.5531 141.166 23.5584 141.064 23.5348C140.974 23.5043 140.896 23.4456 140.841 23.3674Z" fill="#093636"/>
<path d="M217.643 124.879C213.737 139.745 187.878 128.227 183.664 125.789C179.805 123.63 176.171 121.092 172.816 118.211C169.513 115.421 165.004 111.392 162.214 108.077L171.237 106.286C177.325 110.75 182.281 111.101 189.25 113.964C192.286 115.198 195.501 115.933 198.77 116.14C199.662 116.17 200.554 116.106 201.432 115.951L193.464 87.3626L209.267 82.1338C209.267 82.1338 219.329 118.518 217.643 124.879Z" fill="#FFBE9D"/>
<path d="M185.902 83.5904C187.275 91.788 191.332 99.673 195.5 106.866L217.459 101.012C217.459 101.012 212.275 69.1485 203.458 65.192C193.999 60.951 184.072 70.6161 185.902 83.5904Z" fill="#093636"/>
<path d="M171.237 106.286L166.873 97.2789L164.686 92.6806C164.175 91.605 163.276 90.7619 162.17 90.3201C161.064 89.8783 159.832 89.8704 158.72 90.2978L155.668 91.4697C154.622 91.8722 153.754 92.6327 153.216 93.6157C152.679 94.5987 152.507 95.7405 152.733 96.838L153.642 101.101C153.894 102.274 154.575 103.311 155.551 104.009L163.72 109.79L171.237 106.286Z" fill="#FFBE9D"/>
<path d="M180.11 11.4756C183.419 13.105 185.132 21.989 185.266 24.0537C185.635 30.6497 180.11 31.5983 180.439 36.7713C180.651 40.1195 177.526 43.9811 174.346 45.0581C173.525 40.7278 176.773 34.6898 171.237 34.076C169.625 32.6642 169.954 26.5983 170.484 24.5224C167.638 23.797 165.886 20.8785 166.092 17.9488C165.384 18.2376 164.62 18.365 163.857 18.3215C163.093 18.2781 162.349 18.065 161.678 17.6977C160.344 16.9555 159.145 15.6608 158.888 14.1542C159.226 14.352 159.483 14.6645 159.611 15.035C159.739 15.4056 159.73 15.8097 159.586 16.1742C157.761 20.4153 153.358 17.999 152.259 15.9845C152.43 16.5604 152.433 17.1736 152.266 17.7508C152.098 18.3281 151.768 18.845 151.315 19.2398C150.862 19.6347 150.305 19.8907 149.71 19.9775C149.116 20.0642 148.509 19.9779 147.962 19.7289C147.422 19.4404 146.972 19.0096 146.66 18.4832C146.348 17.9569 146.187 17.3552 146.193 16.7434C145.986 17.9561 145.4 19.072 144.519 19.9298C144.076 20.351 143.548 20.6717 142.97 20.8701C142.392 21.0685 141.778 21.1399 141.17 21.0794C140.562 21.0045 139.986 20.7655 139.503 20.388C139.021 20.0105 138.65 19.5087 138.43 18.9365C138.034 17.7814 138.676 16.6542 139.714 16.0124C139.141 16.0128 138.578 15.8572 138.087 15.5623C137.595 15.2674 137.193 14.8443 136.924 14.3383C136.671 13.8243 136.588 13.2429 136.689 12.6787C136.789 12.1146 137.067 11.5973 137.482 11.2022C138.336 10.4488 140.367 10.1642 141.17 10.9734C143.358 6.4662 147.209 2.98364 151.912 1.25893C156.616 -0.465786 161.805 -0.298084 166.388 1.72672C167.091 2.0727 177.571 -2.72641 180.11 11.4756Z" fill="#093636"/>
<path d="M177.426 26.5201C173.648 26.1351 170.69 30.6105 169.853 33.8359C168.944 37.3906 170.902 40.6998 174.624 39.5223C177.425 38.624 179.755 36.6512 181.103 34.0368C182.727 30.8114 181.204 26.8996 177.426 26.5201Z" fill="#FFBE9D"/>
<path d="M148.14 41.0402C148.14 41.0402 151.148 39.5391 160.065 37.4019C159.675 40.3371 158.246 42.9822 153.67 44.0648C152.599 44.4307 151.426 44.3566 150.409 43.8586C149.392 43.3606 148.614 42.4794 148.246 41.4086C148.207 41.2858 148.168 41.163 148.14 41.0402Z" fill="#093636"/>
<path d="M155.261 41.4143C153.482 41.7403 151.851 42.619 150.601 43.9255C151.582 44.2714 152.645 44.3103 153.648 44.0371C155.426 43.7178 157.056 42.8401 158.302 41.5315C157.327 41.1698 156.261 41.1288 155.261 41.4143Z" fill="#FFBE9D"/>
<path d="M148.525 40.8675C148.693 41.1743 148.943 41.4292 149.246 41.6043C149.549 41.7795 149.894 41.8682 150.244 41.8608C152.888 41.2127 155.475 40.3486 157.978 39.2771C158.384 39.1368 158.748 38.8991 159.04 38.5848C159.332 38.2705 159.542 37.8892 159.652 37.4746C155.861 38.3171 152.141 39.4514 148.525 40.8675Z" fill="white"/>
<path d="M96.2603 80.8126C95.1108 81.2981 93.0516 83.0168 91.4836 84.4063C89.6588 86.0302 87.4769 87.1686 89.017 90.3494C89.6141 91.5882 90.1331 93.3963 91.3999 95.8851C91.3999 95.8851 94.3965 101.421 97.5382 103.759C97.5382 103.759 101.802 102.202 102.471 99.7411C102.76 97.421 102.922 95.0868 102.957 92.7489C103.036 90.7417 102.894 88.7318 102.533 86.7557C101.673 82.3974 98.9612 79.663 96.2603 80.8126Z" fill="#FFBE9D"/>
<path d="M94.9601 100.517C94.784 100.517 94.6103 100.476 94.4532 100.397C94.2961 100.317 94.16 100.201 94.0561 100.059L85.5294 88.2456C84.324 86.7334 85.853 84.4231 86.1711 83.9767C86.2561 83.8572 86.3638 83.7557 86.488 83.6779C86.6123 83.6 86.7507 83.5474 86.8952 83.5231C87.0398 83.4987 87.1878 83.5031 87.3306 83.5359C87.4735 83.5687 87.6086 83.6294 87.728 83.7144C87.8475 83.7994 87.949 83.9071 88.0268 84.0313C88.1046 84.1556 88.1572 84.294 88.1816 84.4385C88.2059 84.5831 88.2016 84.7311 88.1688 84.874C88.1359 85.0168 88.0753 85.1519 87.9903 85.2713C87.6117 85.7534 87.381 86.3349 87.3262 86.9454L95.8642 98.7646C95.9843 98.9312 96.0562 99.1277 96.0718 99.3325C96.0875 99.5373 96.0463 99.7425 95.9528 99.9254C95.8593 100.108 95.7172 100.262 95.542 100.369C95.3669 100.476 95.1655 100.533 94.9601 100.534V100.517Z" fill="#FFBE9D"/>
<path d="M48.7305 112.38L62.6368 105.906C63.8924 89.1207 57.7428 86.9332 49.5118 84.4556C30.7004 96.8049 48.7305 112.38 48.7305 112.38Z" fill="#FFBE9D"/>
<path d="M9.86888 158.696C18.1787 159.716 26.5368 160.294 34.9079 160.426H41.0463C48.7472 160.292 54.9972 159.595 57.0117 158.105C56.9056 143.15 61.3532 124.623 62.7762 113.948C63.2617 106.983 62.6143 105.912 60.3487 98.6073C57.1958 91.085 55.092 84.2993 46.476 83.1609C44.1155 82.854 41.6043 82.5638 39.2215 82.3629C31.9671 81.7435 25.3041 81.989 17.1457 82.3629C15.0474 82.4522 13.005 82.6084 11.0742 82.7926C3.85884 83.479 -0.644499 89.941 1.37001 96.6709C10.12 125.672 10.851 145.8 9.86888 158.696Z" fill="#FFEEF2"/>
<path opacity="0.1" d="M9.86888 158.696C18.1787 159.716 26.5368 160.294 34.9079 160.426H41.0463C48.7472 160.292 54.9972 159.595 57.0117 158.105C56.9056 143.15 61.3532 124.623 62.7762 113.948C63.2617 106.983 62.6143 105.912 60.3487 98.6073C57.1958 91.085 55.092 84.2993 46.476 83.1609C44.1155 82.854 41.6043 82.5638 39.2215 82.3629C31.9671 81.7435 25.3041 81.989 17.1457 82.3629C15.0474 82.4522 13.005 82.6084 11.0742 82.7926C3.85884 83.479 -0.644499 89.941 1.37001 96.6709C10.12 125.672 10.851 145.8 9.86888 158.696Z" fill="white"/>
<path d="M58.7808 160.42C58.8031 160.293 58.8031 160.163 58.7808 160.035C58.684 159.076 58.5892 158.105 58.4962 157.122C58.4748 156.847 58.3455 156.591 58.1366 156.41C57.9276 156.23 57.6558 156.139 57.3801 156.157C41.7673 157.881 26.012 157.881 10.3991 156.157C10.1784 156.136 9.9569 156.188 9.76847 156.305C9.58005 156.422 9.43505 156.597 9.35562 156.804C8.965 157.747 8.56879 158.679 8.16701 159.595C8.12815 159.686 8.10006 159.781 8.0833 159.879C8.05531 160.067 8.07449 160.259 8.13911 160.437L58.7808 160.42Z" fill="#093636"/>
<path d="M78.6635 85.7945C78.6635 85.7945 85.3041 90.8169 84.5285 92.7477C83.5631 95.136 83.2673 97.3235 77.8042 102.128C77.8042 102.128 72.9772 106.163 69.1937 107.19C69.1937 107.19 65.8064 104.171 66.0854 101.609C66.6747 99.3403 67.3863 97.1049 68.2171 94.9128C68.8783 93.0168 69.7506 91.201 70.8176 89.4999C73.2171 85.8001 76.091 84.3827 78.6635 85.7945Z" fill="#FFBE9D"/>
<path opacity="0.2" d="M1.88357 93.9082C1.88357 93.9082 -0.633168 102.279 10.8958 115.409C19.2664 124.896 26.186 131.274 32.8489 137.63C34.2382 138.958 36.0706 139.724 37.9919 139.78C39.9132 139.836 41.7868 139.177 43.2507 137.932L60.8288 125.8L62.4694 116.241L40.8623 131.548L1.88357 93.9082Z" fill="black"/>
<path d="M3.65247 99.9462C1.48729 96.8045 1.45939 91.6203 3.898 88.6795C5.145 87.18 6.9361 86.2368 8.87799 86.0568C10.8199 85.8769 12.7538 86.4749 14.2551 87.7197L14.5286 87.954L15.9292 89.1706C16.4538 89.5835 16.9672 90.0467 17.5029 90.4708C18.619 91.3357 37.6814 116.297 40.1647 117.329L38.7919 117.005C39.2831 117.145 39.8017 117.156 40.2986 117.039C41.2194 116.877 56.0743 107.625 57.1178 106.888L60.2316 104.695L66.0854 101.631C67.2852 100.789 72.6702 104.182 71.3923 105.934C66.6267 113.785 56.6881 124.751 45.0196 131.693C40.7618 134.226 35.9069 135.409 32.1848 132.167C24.1212 125.214 11.4929 111.308 3.65247 99.9462Z" fill="#FFBE9D"/>
<path d="M21.582 61.2751C22.486 65.918 24.5006 74.601 23.0776 80.0251C21.0575 87.7483 32.6813 100.17 43.7583 100.114C49.3387 98.5296 49.8242 88.3956 45.8287 85.8566C42.6813 83.8756 37.101 82.3856 37.6479 74.1379L21.582 61.2751Z" fill="#FFBE9D"/>
<path opacity="0.2" d="M29.5954 66.1292L37.6311 74.1314C37.2907 75.3702 38.0497 78.8356 38.0497 78.8356C35.0139 77.9428 29.1992 75.9785 28.7193 70.4651C28.7138 68.9753 29.0119 67.4999 29.5954 66.1292Z" fill="black"/>
<path d="M15.1479 51.4142C18.7193 62.7089 19.9805 67.5638 27.2907 72.0057C38.2171 78.7021 51.3588 71.8439 51.1802 59.729C51.0798 48.8194 45.2762 32.2011 32.8711 30.421C30.1483 30.0164 27.3674 30.3145 24.7923 31.287C22.2172 32.2595 19.9333 33.874 18.1577 35.9773C16.382 38.0806 15.1734 40.6029 14.6466 43.3046C14.1199 46.0064 14.2924 48.7979 15.1479 51.4142Z" fill="#FFBE9D"/>
<path d="M47.5083 59.8128C46.3677 60.387 45.106 60.6791 43.8291 60.6645C42.5521 60.65 41.2974 60.3292 40.1702 59.7291C40.1059 59.6898 40.0598 59.6266 40.042 59.5534C40.0242 59.4802 40.0362 59.4029 40.0753 59.3385C40.0936 59.3084 40.1177 59.2823 40.1461 59.2615C40.1745 59.2407 40.2067 59.2258 40.2409 59.2175C40.2752 59.2092 40.3107 59.2077 40.3454 59.2132C40.3802 59.2186 40.4136 59.2308 40.4436 59.2492C41.497 59.7902 42.6624 60.0771 43.8466 60.0868C45.0307 60.0965 46.2007 59.8287 47.2628 59.305C47.329 59.2755 47.4039 59.2723 47.4724 59.2961C47.5408 59.32 47.5976 59.3691 47.6311 59.4333C47.6476 59.4645 47.6579 59.4986 47.6612 59.5337C47.6646 59.5688 47.661 59.6042 47.6506 59.6379C47.6402 59.6716 47.6233 59.7029 47.6008 59.73C47.5783 59.7572 47.5507 59.7796 47.5195 59.7961L47.5083 59.8128Z" fill="#093636"/>
<path d="M29.9359 47.3298C29.9569 47.2149 30.0134 47.1094 30.0975 47.0283C30.1816 46.9472 30.2891 46.8946 30.4047 46.8778C33.0553 46.5095 34.562 43.5296 34.5732 43.5017C34.6413 43.3685 34.7595 43.2678 34.9018 43.2217C35.0441 43.1757 35.1989 43.1881 35.3321 43.2561C35.4653 43.3242 35.566 43.4424 35.6121 43.5847C35.6581 43.7271 35.6457 43.8819 35.5777 44.0151C35.5107 44.1657 33.725 47.5418 30.5553 47.9883C30.4828 47.9994 30.4088 47.996 30.3375 47.9785C30.2662 47.9609 30.1991 47.9294 30.14 47.8859C30.0809 47.8423 30.031 47.7876 29.9931 47.7247C29.9552 47.6618 29.9301 47.5921 29.9192 47.5195L29.9359 47.3298Z" fill="#093636"/>
<path d="M45.9123 40.3371C45.9964 40.2872 46.0659 40.2161 46.1139 40.1309C46.1619 40.0457 46.1867 39.9494 46.1857 39.8516C46.1857 39.7036 46.1269 39.5616 46.0223 39.457C45.9176 39.3523 45.7757 39.2935 45.6277 39.2935C44.7331 39.2887 43.8504 39.4973 43.0526 39.902C42.2548 40.3067 41.5651 40.8959 41.0406 41.6205C41.0003 41.6832 40.9728 41.7532 40.9595 41.8265C40.9462 41.8998 40.9475 41.975 40.9634 42.0478C40.9792 42.1206 41.0091 42.1896 41.0516 42.2508C41.0941 42.312 41.1482 42.3643 41.2108 42.4046C41.2735 42.4449 41.3435 42.4725 41.4168 42.4857C41.4901 42.499 41.5653 42.4977 41.6381 42.4819C41.7109 42.4661 41.7799 42.4361 41.8411 42.3936C41.9023 42.3511 41.9546 42.297 41.9949 42.2344C42.4173 41.6636 42.9698 41.2018 43.6064 40.8874C44.2431 40.5729 44.9456 40.4149 45.6556 40.4263C45.7459 40.4128 45.833 40.3825 45.9123 40.3371Z" fill="#093636"/>
<path d="M34.0263 51.0291C33.9539 51.0232 33.8836 51.0023 33.8198 50.9677C33.7256 50.9051 33.6599 50.8079 33.6369 50.6972C33.6139 50.5865 33.6355 50.4711 33.697 50.3762C34.0543 49.7966 34.5441 49.3101 35.1263 48.957C35.7084 48.6038 36.3661 48.3941 37.0452 48.345C37.1553 48.345 37.2609 48.3883 37.3392 48.4656C37.4175 48.5429 37.4623 48.6479 37.4637 48.7579C37.4645 48.8136 37.4542 48.8689 37.4336 48.9206C37.413 48.9724 37.3824 49.0195 37.3435 49.0595C37.3046 49.0994 37.2583 49.1312 37.2071 49.1532C37.1559 49.1752 37.1009 49.1869 37.0452 49.1876C36.5088 49.2348 35.991 49.4073 35.5335 49.6913C35.076 49.9753 34.6916 50.3629 34.4113 50.8226C34.3719 50.8888 34.3152 50.9429 34.2474 50.9793C34.1796 51.0157 34.1031 51.0329 34.0263 51.0291Z" fill="#093636"/>
<path d="M45.0867 44.1042C45.5471 44.0915 45.9982 43.9711 46.4036 43.7526C47.1681 43.3676 47.2574 43.1555 47.2574 43.1555C47.2574 43.1555 46.7329 44.5283 46.1748 44.5952C45.9698 44.5902 45.7679 44.5442 45.581 44.4599C45.3941 44.3755 45.226 44.2546 45.0867 44.1042Z" fill="#093636"/>
<path d="M45.0864 44.104C44.5284 44.3551 44.3554 45.2647 44.7405 46.1408C45.1255 47.0169 45.9123 47.5136 46.4704 47.2569C47.0284 47.0002 47.1902 46.0961 46.8052 45.22C46.4201 44.3439 45.6612 43.8473 45.0864 44.104Z" fill="#093636"/>
<path d="M83.0774 96.1966C84.0205 94.1989 85.2482 91.6989 85.4491 89.5002C86.5149 89.6007 86.7437 88.4344 86.4759 87.7312C86.208 87.0281 85.6779 87.0225 84.9469 87.1732C84.6009 87.2461 84.2764 87.3979 83.9987 87.6166C83.7209 87.8353 83.4973 88.1152 83.3453 88.4344C82.5696 89.9913 81.9056 91.7324 81.1132 93.2893C82.285 94.2937 82.5194 94.7792 83.0774 96.1966Z" fill="#FFBE9D"/>
<path d="M17.6925 31.4926C17.1225 31.0708 16.4484 30.8121 15.7426 30.7442C15.0367 30.6764 14.3257 30.802 13.6858 31.1075C12.4139 31.738 11.313 32.6665 10.4771 33.814C8.02354 36.7941 6.41612 40.379 5.82312 44.1934C5.25129 48.0251 5.98857 51.9376 7.91575 55.2983C8.60771 56.459 9.66798 57.6365 11.0184 57.5974C10.1814 56.8831 10.1646 56.1968 10.1702 55.0974C10.2733 54.005 10.2957 52.9064 10.2372 51.8106C10.0499 54.0938 10.5806 56.3784 11.755 58.3452C12.0164 58.7774 12.3734 59.144 12.7986 59.4166C13.0067 59.5301 13.236 59.5995 13.4722 59.6206C13.7083 59.6417 13.9463 59.6141 14.1713 59.5394C14.9637 59.2883 23.5686 69.9691 23.5686 69.9691C24.3945 65.7447 17.8934 55.4211 20.0697 55.4211C28.4403 55.4211 19.4113 35.2035 17.6925 31.5037V31.4926Z" fill="#093636"/>
<path d="M13.8924 58.0773C15.1951 59.9608 17.1884 61.2543 19.4392 61.6767C22.4247 62.2012 23.5798 59.4445 22.5475 56.7994C21.5765 54.3999 18.8644 51.2191 15.9794 51.9166C14.9862 52.1793 14.1365 52.8226 13.6143 53.7073C13.0921 54.592 12.9393 55.6467 13.1892 56.6432C13.3205 57.1653 13.56 57.6539 13.8924 58.0773Z" fill="#FFBE9D"/>
<path d="M20.2596 28.0547C19.3335 28.5232 18.5711 29.2614 18.073 30.1719C17.5749 31.0825 17.3645 32.1226 17.4695 33.1551C17.5475 34.0463 17.6817 34.9316 17.8712 35.8058C18.2596 37.7861 19.1842 39.6218 20.5442 41.1127C21.9393 42.5469 22.3857 44.6507 24.3779 44.4163C24.9973 43.9308 26.8668 43.1161 27.4862 42.6306C25.1592 41.3471 23.8869 38.9754 22.9103 36.4922C24.2831 39.2489 26.9784 40.4542 29.4449 41.6596C29.4449 41.6596 32.7484 40.4487 33.513 39.5167C31.3566 38.3114 29.6888 36.391 28.7976 34.0871C30.4539 36.3638 32.8611 37.9824 35.5944 38.6574C37.4471 38.0993 39.2161 37.6362 41.0743 37.0614C39.5062 34.6563 37.6926 31.9888 34.9973 30.9955C39.2105 32.0223 41.1357 34.4386 42.3076 36.7824C42.927 36.5647 54.0654 35.856 38.7529 27.8538C33.513 25.1083 25.4773 25.4654 20.2596 28.0547Z" fill="#093636"/>
<path d="M20.0306 61.1631C20.57 61.1631 21.0072 60.7259 21.0072 60.1865C21.0072 59.6472 20.57 59.21 20.0306 59.21C19.4913 59.21 19.0541 59.6472 19.0541 60.1865C19.0541 60.7259 19.4913 61.1631 20.0306 61.1631Z" fill="#FFEEF2"/>
<path d="M20.8678 62.5025C20.8678 62.5877 20.8424 62.671 20.795 62.7418C20.7475 62.8125 20.6801 62.8676 20.6012 62.9C20.5224 62.9323 20.4357 62.9405 20.3522 62.9234C20.2687 62.9064 20.1922 62.8649 20.1323 62.8043C20.0724 62.7436 20.032 62.6665 20.016 62.5828C20.0001 62.4991 20.0094 62.4126 20.0428 62.3341C20.0761 62.2557 20.1321 62.189 20.2035 62.1425C20.2749 62.0959 20.3585 62.0717 20.4437 62.0728C20.4999 62.0728 20.5555 62.0839 20.6073 62.1056C20.6591 62.1273 20.7061 62.159 20.7456 62.199C20.785 62.2389 20.8161 62.2864 20.8371 62.3385C20.8581 62.3906 20.8685 62.4463 20.8678 62.5025Z" fill="#FFEEF2"/>
<path d="M20.6724 63.6858L20.7896 71.0184L22.3018 72.2349L22.9491 70.4101L20.6724 63.6858Z" fill="#FFEEF2"/>
</svg>
