<svg width="177" height="222" viewBox="0 0 177 222" fill="none" xmlns="http://www.w3.org/2000/svg">
<path d="M111.701 127.237L77.4417 199.384L78.3797 208.856L121.14 168.245L113.688 167.763L137.478 146.135C135.102 143.999 132.878 141.7 130.82 139.256C124.769 131.992 121.414 123.654 118.847 114.866L120.593 114.417C120.216 108.816 119.213 103.274 117.603 97.8962L104.457 128.924L111.701 127.237Z" fill="#093636"/>
<path d="M169.77 161.776L83.8453 203.39C82.3079 203.097 80.7965 202.778 79.3308 202.439V202.257L126.775 164.558L119.238 163.372L145.536 143.38C147.295 145.317 149.124 147.193 151.022 149.008C153.152 151.067 155.354 153.073 157.536 155.053C159.529 156.845 161.093 158.669 163.907 159.412C165.982 159.861 167.964 160.66 169.77 161.776Z" fill="#093636"/>
<path d="M169.118 165.737C168.596 165.122 167.991 164.583 167.32 164.134L83.1287 204.146C92.6331 206.028 103.193 207.09 112.802 206.471C142.826 202.849 158.578 191.886 168.434 175.248L171.555 173.352C171.888 173.176 172.177 172.928 172.4 172.624C172.624 172.321 172.776 171.972 172.846 171.602C172.915 171.232 172.9 170.851 172.802 170.487C172.704 170.123 172.524 169.787 172.278 169.502L169.118 165.737Z" fill="#093636"/>
<path d="M23.1378 163.079L22.8902 170.134L9.86145 160.688C11.7921 166.767 14.2306 172.672 17.151 178.342C25.8998 194.739 41.4822 211.461 70.5233 214.445C73.9824 214.803 78.992 214.484 84.8159 213.552L84.0928 211.194L23.1378 163.079Z" fill="#093636"/>
<path d="M43.9317 41.5403L40.023 11.0139C36.8281 14.0092 34.2114 17.5666 32.3035 21.5086C20.6232 45.2274 24.6686 58.4972 40.8569 68.2232L41.4627 68.5749L34.6291 36.4069L43.9317 41.5403Z" fill="#6DA4CD"/>
<path d="M117.134 87.5513L140.09 30.7329V45.273L117.134 87.5513Z" fill="#093636"/>
<path d="M146.729 129.882L176.545 91.03L173.437 102.228L146.729 129.882Z" fill="#6DA4CD"/>
<path d="M15.1577 88.3723L1.90745 58.8687L0.539429 66.2625L15.1577 88.3723Z" fill="#6DA4CD"/>
<path d="M29.3395 162.389L81.3177 219.35L79.8715 208.237L40.9481 143.842L41.3716 149.529L24.2778 127.224L35.0005 128.989L16.3564 95.8833C14.3571 99.3256 13.343 103.251 13.4249 107.231C13.7767 124.208 14.363 142.409 16.6821 157.952L27.9194 169.294L29.3395 162.389Z" fill="#6DA4CD"/>
<path d="M51.9444 91.688L65.8656 180.479L74.4906 52.8623L68.315 56.8295L66.8428 5.42458C58.4132 5.24869 49.4819 7.76976 42.4464 14.0431L46.0293 44.6607L36.7463 39.2863L43.2216 71.5976C46.898 73.8365 50.7731 75.7316 54.7977 77.2586C54.5501 77.91 54.3091 78.5159 54.0681 79.1217C50.9365 78.8015 47.7894 78.658 44.6418 78.6918L47.7296 94.1308L51.9444 91.688Z" fill="#093636"/>
<path d="M25.8867 123.934L40.8698 147.536L40.974 141.836L73.8195 209.149L72.8554 181.137L50.8563 96.5152L46.863 99.2186L43.5016 81.1738C41.9772 81.2976 40.4203 81.4539 38.8113 81.6624C35.2661 82.0639 31.843 83.1978 28.7591 84.992C25.6752 86.7863 22.9978 89.2018 20.8967 92.0854L36.414 126.612L25.8867 123.934Z" fill="#093636"/>
<path d="M96.8479 61.9696L90.3335 81.9035C98.3136 81.5908 105.16 80.4899 109.531 79.148C103.805 75.8126 102.138 66.3537 102.509 56.6343L97.2387 65.3245L96.8479 61.9696Z" fill="#6DA4CD"/>
<path d="M97.8512 89.3689L97.8056 89.3363C97.4929 89.1409 97.1542 88.9454 96.848 88.763C91.1609 85.5775 85.8517 82.7047 80.4318 80.3335C79.9338 79.527 79.5645 78.6479 79.3373 77.7277C82.5294 78.2098 85.6367 78.529 88.6073 78.7179L97.1998 58.1585L97.2519 61.7805L103.434 53.0708C104.254 47.1577 105.657 41.3402 107.623 35.7035C112.365 22.3816 102.411 13.2354 97.33 14.4601C94.1836 6.57768 83.4219 0.95578 71.6113 0.604004L71.2074 47.8202L77.4351 43.9116L68.4648 175.632L73.2399 208.732L104.281 135.074L97.1151 137.061L108.887 105.459C106.659 99.2382 103.2 92.8215 97.8512 89.3689Z" fill="#093636"/>
<path d="M68.7252 113.212C63.0446 124.846 64.7449 131.55 72.1973 136.618C81.8907 143.21 95.5774 143.386 101.154 141.907C97.0236 138.572 98.3265 127.192 100.281 120.579C102.235 113.967 97.5383 109.622 95.2582 110.274C92.1769 102.671 75.2265 99.8832 68.7252 113.212Z" fill="#093636"/>
<path opacity="0.6" d="M68.7252 113.212C63.0446 124.846 64.7449 131.55 72.1973 136.618C81.8907 143.21 95.5774 143.386 101.154 141.907C97.0236 138.572 98.3265 127.192 100.281 120.579C102.235 113.967 97.5383 109.622 95.2582 110.274C92.1769 102.671 75.2265 99.8832 68.7252 113.212Z" fill="white"/>
<path d="M99.8314 152.878L100.125 154.18L100.45 155.561L101.154 158.33C101.649 160.174 102.157 162.011 102.737 163.802C103.317 165.594 103.922 167.366 104.606 169.059C105.252 170.72 106.004 172.337 106.86 173.899C107.258 174.631 107.693 175.342 108.163 176.03C108.385 176.375 108.619 176.681 108.847 176.981L109.616 177.938C110.76 179.282 111.996 180.545 113.316 181.717C114.684 182.935 116.15 184.127 117.674 185.293C118.052 185.58 118.436 185.873 118.827 186.153C119.218 186.433 119.602 186.726 119.993 187.013L122.319 188.681L122.488 188.798C123.016 189.172 123.398 189.717 123.567 190.341C123.737 190.965 123.685 191.629 123.419 192.218C123.154 192.808 122.691 193.287 122.112 193.573C121.532 193.859 120.871 193.935 120.241 193.788C119.101 193.527 118.104 193.247 117.068 192.915C116.033 192.583 115.029 192.218 114.026 191.807C112.001 190.989 110.041 190.017 108.163 188.902C106.182 187.745 104.319 186.396 102.6 184.876C102.164 184.459 101.727 184.055 101.297 183.625C100.867 183.195 100.45 182.7 100.072 182.225C99.3172 181.305 98.6105 180.346 97.9552 179.352C95.5812 175.591 93.653 171.566 92.2095 167.359C91.4995 165.327 90.8546 163.288 90.3073 161.222C90.0272 160.193 89.7667 159.157 89.5321 158.115C89.4214 157.594 89.2976 157.073 89.1999 156.539L88.8872 154.877C88.6231 153.446 88.9302 151.967 89.7427 150.759C90.5551 149.551 91.8084 148.709 93.2341 148.413C94.6598 148.118 96.1445 148.392 97.3703 149.178C98.5961 149.964 99.4655 151.198 99.7923 152.617L99.8314 152.878Z" fill="#FFBE9D"/>
<path d="M96.0531 147.77C102.541 151.529 104.124 165.209 104.124 165.209C99.2061 165.574 93.1738 167.769 88.4052 171.124C88.4052 171.124 86.2294 162.812 86.3988 158.682C86.5682 154.402 92.3399 145.627 96.0531 147.77Z" fill="white"/>
<path d="M127.309 197.39L129.863 194.745C130.008 194.595 130.122 194.418 130.199 194.223C130.275 194.029 130.312 193.821 130.308 193.612C130.304 193.403 130.258 193.197 130.174 193.006C130.09 192.815 129.968 192.642 129.817 192.498L127.902 190.661C127.15 189.96 126.202 189.506 125.185 189.358L118.886 188.4L117.134 191.918C119.739 194.654 121.602 195.442 121.602 195.442L125.361 197.657C125.669 197.838 126.028 197.909 126.381 197.861C126.735 197.813 127.061 197.647 127.309 197.39Z" fill="#FFBE9D"/>
<path d="M87.7212 186.804L65.1815 190.941C63.1295 202.732 68.2628 217.884 88.516 217.884C113.179 217.884 135.198 213.676 131.7 202.341C127.485 188.706 87.7212 186.804 87.7212 186.804Z" fill="#6DA4CD"/>
<path d="M54.4002 190.941C52.3482 202.732 57.4815 221.793 77.7347 221.793C110.958 221.793 130.364 222.321 133.061 210.771C135.758 199.221 90.8286 195.827 90.8286 195.827C90.8286 195.827 92.34 192.289 90.0795 184.446C68.1456 184.83 54.4002 190.941 54.4002 190.941Z" fill="#6DA4CD"/>
<path opacity="0.1" d="M54.4002 190.941C52.3482 202.732 57.4815 221.793 77.7347 221.793C110.958 221.793 130.364 222.321 133.061 210.771C135.758 199.221 90.8286 195.827 90.8286 195.827C90.8286 195.827 92.34 192.289 90.0795 184.446C68.1456 184.83 54.4002 190.941 54.4002 190.941Z" fill="white"/>
<path d="M96.0531 147.77C88.0013 143.047 81.6107 139.751 70.901 140.552C68.104 140.786 65.467 141.954 63.4144 143.868C61.3618 145.782 60.0132 148.332 59.5856 151.106C57.527 164.063 54.0549 179.196 54.3741 190.941C77.1744 200.374 90.4181 191.951 90.0533 184.427C84.6659 170.323 98.1833 163.502 98.8673 155.444C99.2451 151.34 98.7174 149.327 96.0531 147.77Z" fill="white"/>
<path d="M79.0571 128.566C80.3599 133.38 78.5164 137.888 77.2852 141.347C80.5537 146.037 83.4443 150.98 85.9297 156.128C92.9653 150.773 90.3595 145.705 90.3595 145.705C86.06 143.008 87.4085 138.709 89.3237 135.719L79.0571 128.566Z" fill="#FFBE9D"/>
<path opacity="0.2" d="M85.9494 130.064L89.3238 135.712C88.8659 136.401 88.4692 137.129 88.1382 137.888C85.8842 138.135 82.855 135.093 83.1286 133.015C83.2589 132.038 85.6497 130.448 85.9494 130.064Z" fill="black"/>
<path d="M74.8097 121.029C76.6337 128.195 77.246 131.289 81.6237 134.325C88.2032 138.885 96.6068 135.087 96.9911 127.504C97.3234 120.683 94.2877 110.078 86.6267 108.534C84.9395 108.186 83.1912 108.274 81.5477 108.791C79.9042 109.308 78.4202 110.237 77.2363 111.488C76.0525 112.74 75.2081 114.274 74.7834 115.943C74.3587 117.613 74.3678 119.364 74.8097 121.029Z" fill="#FFBE9D"/>
<path d="M93.3366 110.488C93.48 112.879 86.3272 113.472 82.3339 113.211C79.7607 113.042 77.5197 114.514 77.878 116.788C78.2233 118.925 80.158 120.332 81.6108 119.778C83.1091 124.338 77.0507 129.191 71.6763 125.745C66.302 122.299 75.826 98.3847 93.3366 110.488Z" fill="#093636"/>
<path opacity="0.6" d="M93.3366 110.488C93.48 112.879 86.3272 113.472 82.3339 113.211C79.7607 113.042 77.5197 114.514 77.878 116.788C78.2233 118.925 80.158 120.332 81.6108 119.778C83.1091 124.338 77.0507 129.191 71.6763 125.745C66.302 122.299 75.826 98.3847 93.3366 110.488Z" fill="white"/>
<path opacity="0.2" d="M85.8839 120.664C85.5608 120.573 85.222 120.553 84.8904 120.605C84.5588 120.656 84.2422 120.779 83.9622 120.964C84.6166 120.998 85.2709 120.896 85.8839 120.664Z" fill="black"/>
<path opacity="0.2" d="M85.8839 121.166C85.5705 121.156 85.2589 121.217 84.9725 121.345C84.686 121.472 84.4319 121.662 84.2292 121.902C84.8277 121.779 85.3923 121.528 85.8839 121.166Z" fill="black"/>
<path opacity="0.2" d="M91.1219 128.344C90.852 128.185 90.5498 128.088 90.2374 128.061C89.9251 128.034 89.6106 128.077 89.3174 128.188C89.9001 128.372 90.5162 128.425 91.1219 128.344Z" fill="black"/>
<path opacity="0.2" d="M91.3497 113.211C91.3497 113.211 87.6561 113.439 85.832 114.514C87.709 114.259 89.5569 113.823 91.3497 113.211Z" fill="black"/>
<path d="M86.7636 120.768C86.8809 121.361 87.2848 121.237 87.6691 121.165C88.0534 121.094 88.2814 121.094 88.1642 120.514C88.0469 119.934 87.6496 119.504 87.2652 119.576C86.8809 119.648 86.6529 120.175 86.7636 120.768Z" fill="#093636"/>
<path d="M93.4538 119.504C93.5645 120.091 93.8902 120.006 94.2746 119.934C94.6589 119.863 94.9651 119.83 94.8544 119.237C94.7436 118.645 94.3397 118.228 93.9554 118.299C93.571 118.371 93.343 118.912 93.4538 119.504Z" fill="#093636"/>
<path d="M93.7859 118.364L95.1344 117.713C95.1344 117.713 94.6132 118.957 93.7859 118.364Z" fill="#093636"/>
<path d="M74.1128 127.563C75.0378 128.658 76.3588 129.341 77.7869 129.465C79.6826 129.608 80.2624 127.823 79.4285 126.208C78.6728 124.768 76.7837 122.95 75.0313 123.563C73.2789 124.175 72.9923 126.214 74.1128 127.563Z" fill="#FFBE9D"/>
<path d="M86.6789 115.641C86.6051 115.654 86.5373 115.689 86.4856 115.743C86.4339 115.797 86.4011 115.867 86.3923 115.941C86.1708 117.563 84.3142 118.547 84.2946 118.547C84.2529 118.567 84.2157 118.596 84.1854 118.632C84.1551 118.667 84.1322 118.708 84.1183 118.753C84.1043 118.797 84.0994 118.844 84.104 118.89C84.1085 118.937 84.1224 118.981 84.1448 119.022C84.1661 119.063 84.1953 119.1 84.2308 119.13C84.2663 119.16 84.3073 119.182 84.3515 119.196C84.3956 119.21 84.4421 119.215 84.4883 119.211C84.5344 119.207 84.5793 119.194 84.6204 119.172C84.7116 119.127 86.8287 118 87.0893 116.019C87.0967 115.973 87.0947 115.926 87.0835 115.881C87.0722 115.836 87.052 115.794 87.0241 115.757C86.9961 115.72 86.9609 115.689 86.9206 115.665C86.8803 115.642 86.8358 115.627 86.7896 115.622L86.6789 115.641Z" fill="#093636"/>
<path d="M92.3528 114.703C92.2919 114.701 92.2316 114.715 92.1778 114.743C92.124 114.772 92.0788 114.814 92.0466 114.866C92.0218 114.906 92.0051 114.95 91.9975 114.996C91.99 115.042 91.9917 115.089 92.0026 115.135C92.0136 115.18 92.0334 115.223 92.0611 115.261C92.0888 115.299 92.1238 115.331 92.1639 115.355C92.635 115.66 93.1726 115.848 93.7316 115.903C94.2905 115.957 94.8543 115.876 95.3755 115.667C95.4182 115.648 95.4567 115.62 95.4887 115.585C95.5207 115.551 95.5456 115.51 95.5619 115.466C95.5782 115.422 95.5857 115.375 95.5839 115.328C95.5821 115.281 95.571 115.235 95.5514 115.192C95.5317 115.149 95.5038 115.111 95.4692 115.079C95.4347 115.047 95.3942 115.022 95.35 115.005C95.3059 114.989 95.2589 114.982 95.2119 114.983C95.1648 114.985 95.1186 114.996 95.0758 115.016C94.661 115.175 94.2143 115.233 93.7725 115.186C93.3307 115.138 92.9066 114.986 92.5352 114.742C92.4795 114.712 92.4161 114.698 92.3528 114.703Z" fill="#093636"/>
<path d="M87.1023 119.609L88.4443 118.957C88.4443 118.957 87.9231 120.195 87.1023 119.609Z" fill="#093636"/>
<path d="M72.6662 148.194C73.1288 150.734 73.6499 153.405 74.1711 156.011C74.6922 158.617 75.2655 161.223 75.8713 163.828C76.4772 166.434 77.1351 168.955 77.8256 171.437C78.5053 173.819 79.3409 176.154 80.3271 178.427C80.4444 178.688 80.5617 178.948 80.6854 179.183C80.8092 179.417 80.946 179.71 81.0112 179.834L81.1284 180.056L81.3043 180.31C81.4296 180.498 81.5667 180.679 81.7147 180.85C82.4238 181.701 83.2016 182.492 84.0403 183.215C85.9684 184.859 87.996 186.382 90.1117 187.775C94.4568 190.707 99.1798 193.443 103.792 196.12L103.851 196.159C104.435 196.498 104.876 197.038 105.091 197.678C105.306 198.319 105.28 199.015 105.018 199.638C104.756 200.261 104.276 200.766 103.667 201.06C103.059 201.354 102.365 201.416 101.714 201.234C98.9452 200.459 96.3199 199.553 93.6686 198.537C91.0172 197.521 88.4571 196.394 85.8513 195.136C83.184 193.841 80.6225 192.338 78.1904 190.642C76.8417 189.703 75.5795 188.645 74.4186 187.482C74.1059 187.156 73.7997 186.831 73.4936 186.459L73.031 185.899L72.5816 185.248C72.2493 184.785 72.0669 184.459 71.8519 184.101C71.637 183.743 71.435 183.391 71.2461 183.046C69.8228 180.38 68.616 177.605 67.6371 174.746C66.66 172.01 65.8457 169.268 65.1031 166.525C64.3604 163.783 63.709 161.034 63.1487 158.278C62.5885 155.523 62.0608 152.793 61.6439 149.914C61.4537 148.48 61.8281 147.029 62.6882 145.867C63.5483 144.705 64.8265 143.923 66.2528 143.686C67.679 143.449 69.1415 143.776 70.331 144.598C71.5206 145.42 72.344 146.672 72.6272 148.09L72.6662 148.194Z" fill="#FFBE9D"/>
<path d="M68.9533 142.122C76.0214 144.572 76.94 160.408 76.94 160.408C73.1877 159.581 63.8591 165.548 61.9569 168.981C61.9569 168.981 58.9212 158.936 59.0906 154.812C59.273 150.513 63.6572 140.292 68.9533 142.122Z" fill="white"/>
<path d="M108.209 205.748L111.192 203.318C111.362 203.18 111.503 203.01 111.607 202.817C111.711 202.624 111.776 202.413 111.798 202.195C111.819 201.977 111.798 201.757 111.734 201.547C111.671 201.337 111.566 201.142 111.427 200.973L109.655 198.83C108.971 197.996 108.044 197.395 107.004 197.11L100.574 195.332L98.3135 198.797C100.672 201.963 102.515 203.019 102.515 203.019L106.15 205.781C106.448 206.005 106.812 206.124 107.185 206.118C107.558 206.112 107.918 205.982 108.209 205.748Z" fill="#FFBE9D"/>
<path d="M88.7179 126.677C88.3345 126.742 87.9574 126.84 87.5909 126.97C87.5407 126.989 87.4998 127.027 87.4767 127.075C87.4536 127.124 87.4502 127.179 87.4672 127.23C87.4863 127.281 87.524 127.322 87.5726 127.345C87.6211 127.368 87.6767 127.371 87.7277 127.354C88.5315 127.045 89.3966 126.93 90.2532 127.017C91.1099 127.104 91.934 127.391 92.6591 127.856C92.7016 127.887 92.7548 127.901 92.8072 127.893C92.8596 127.886 92.907 127.859 92.9392 127.817C92.9558 127.795 92.968 127.771 92.975 127.745C92.9821 127.719 92.9838 127.692 92.9802 127.665C92.9765 127.638 92.9676 127.613 92.9538 127.59C92.9401 127.566 92.9218 127.546 92.9002 127.53C91.6703 126.712 90.1699 126.406 88.7179 126.677Z" fill="#093636"/>
<path d="M91.0612 124.937C91.0612 124.913 91.6825 124.883 92.6798 124.856C92.9329 124.856 93.1745 124.837 93.2282 124.759C93.2701 124.639 93.2299 124.516 93.1132 124.407C92.9176 124.12 92.7296 123.821 92.5033 123.506C91.6595 122.224 91.065 121.173 91.1801 121.157C91.2951 121.141 92.0661 122.17 92.9099 123.446L93.4891 124.353C93.6242 124.497 93.6459 124.658 93.5504 124.809C93.5085 124.848 93.4472 124.883 93.3714 124.91C93.2955 124.937 93.2071 124.955 93.1132 124.964C92.9718 124.976 92.8275 124.981 92.6836 124.978C91.6825 124.981 91.0612 124.964 91.0612 124.937Z" fill="#263238"/>
</svg>
