<svg width="506" height="377" viewBox="0 0 506 377" fill="none" xmlns="http://www.w3.org/2000/svg">
<path fill-rule="evenodd" clip-rule="evenodd" d="M504.569 118.188C511.337 161.454 466.342 199.529 443.966 240.969C421.369 282.819 420.93 339.268 373.03 361.795C325.032 384.368 273.52 345.466 220.415 346.104C161.155 346.815 88.6626 398.198 46.8373 365.709C4.59662 332.898 63.4462 267.446 55.6489 218.119C48.5312 173.092 -14.7411 138.919 3.96539 94.4953C22.4867 50.511 88.8096 34.8806 140.292 17.1104C183.96 2.0374 228.867 0.357645 274.622 1.07203C322.048 1.81249 370.361 1.32699 409.606 21.3153C453.394 43.6172 497.726 74.4427 504.569 118.188Z" fill="#226699"/>
</svg>
