<svg width="259" height="243" viewBox="0 0 259 243" fill="none" xmlns="http://www.w3.org/2000/svg">
<path fill-rule="evenodd" clip-rule="evenodd" d="M76.7086 239.035C51.2413 234.974 17.4403 242.969 4.57581 217.954C-8.36202 192.797 15.041 157.869 18.888 126.604C22.3384 98.5628 11.7451 68.9716 25.9133 44.5452C40.2648 19.8027 66.8394 9.62514 90.726 2.75339C112.486 -3.50653 132.569 4.02798 153.682 7.78842C178.319 12.1765 205.99 8.26718 224.257 26.5366C244.913 47.1951 259.048 78.3498 258.219 112.34C257.374 147.01 242.774 183.505 219.817 208.595C198.54 231.848 168.888 233.994 141.594 239.799C119.253 244.552 98.3526 242.486 76.7086 239.035Z" fill="#E1F0EE"/>
</svg>
