<svg width="260" height="235" viewBox="0 0 260 235" fill="none" xmlns="http://www.w3.org/2000/svg">
<path fill-rule="evenodd" clip-rule="evenodd" d="M77.9674 230.464C52.2284 226.147 18.2713 233.365 4.91892 208.968C-8.50951 184.433 14.5529 150.999 17.9542 120.811C21.0049 93.735 9.87256 64.9454 23.7844 41.5306C37.8763 17.8127 64.5142 8.37215 88.4926 2.08881C110.336 -3.63509 130.7 3.96077 152.044 7.92115C176.951 12.5425 204.79 9.18298 223.486 27.1365C244.627 47.4379 259.355 77.7942 259.038 110.665C258.715 144.194 244.552 179.278 221.789 203.2C200.692 225.371 170.828 226.995 143.398 232.195C120.946 236.451 99.8423 234.133 77.9674 230.464Z" fill="#C5CBF1"/>
</svg>
