<svg width="260" height="235" viewBox="0 0 260 235" fill="none" xmlns="http://www.w3.org/2000/svg">
<path fill-rule="evenodd" clip-rule="evenodd" d="M77.9675 230.464C52.2285 226.147 18.2714 233.365 4.91903 208.968C-8.50941 184.433 14.553 150.999 17.9543 120.811C21.005 93.735 9.87268 64.9454 23.7845 41.5306C37.8764 17.8127 64.5143 8.37215 88.4927 2.08879C110.336 -3.6351 130.7 3.96075 152.044 7.92114C176.951 12.5425 204.79 9.18295 223.486 27.1365C244.627 47.4379 259.355 77.7941 259.038 110.665C258.715 144.194 244.552 179.278 221.789 203.2C200.693 225.371 170.828 226.995 143.399 232.195C120.946 236.451 99.8424 234.133 77.9675 230.464Z" fill="#FFEEF2"/>
</svg>
