<svg width="120" height="129" viewBox="0 0 120 129" fill="none" xmlns="http://www.w3.org/2000/svg">
<path fill-rule="evenodd" clip-rule="evenodd" d="M70.838 2.45555C56.3698 1.01031 29.2744 -3.27122 17.2203 4.65562C5.05886 12.6531 2.78468 28.0242 0.439957 42.1333C-1.66562 54.8033 4.29474 66.6164 7.5755 79.0472C11.1396 92.5515 3.74397 109.959 14.0893 119.596C24.8846 129.652 51.4374 129.055 66.2198 126.963C80.1663 124.99 84.661 115.012 96.2221 107.162C108.115 99.0869 111.859 109.349 116.162 95.8643C120.469 82.3694 122.03 57.6053 116.162 44.681C111.038 33.3946 108.638 20.5876 98.863 12.7359C88.7575 4.61845 83.8683 3.75717 70.838 2.45555Z" fill="#C5CBF1"/>
</svg>
