<svg width="58" height="59" viewBox="0 0 58 59" fill="none" xmlns="http://www.w3.org/2000/svg">
<path d="M12.1389 17.7253C12.1389 16.4541 12.6439 15.2349 13.5428 14.336C14.4417 13.4371 15.6609 12.9321 16.9321 12.9321H40.8982C42.1694 12.9321 43.3886 13.4371 44.2875 14.336C45.1864 15.2349 45.6914 16.4541 45.6914 17.7253V41.6914C45.6914 42.9626 45.1864 44.1818 44.2875 45.0807C43.3886 45.9796 42.1694 46.4846 40.8982 46.4846H16.9321C15.6609 46.4846 14.4417 45.9796 13.5428 45.0807C12.6439 44.1818 12.1389 42.9626 12.1389 41.6914V17.7253Z" stroke="#00325A" stroke-width="4.79321" stroke-linecap="round" stroke-linejoin="round"/>
<path d="M21.7253 53.6746H36.105" stroke="#00325A" stroke-width="4.79321" stroke-linecap="round" stroke-linejoin="round"/>
<path d="M21.7253 5.74243H36.105" stroke="#00325A" stroke-width="4.79321" stroke-linecap="round" stroke-linejoin="round"/>
<path d="M21.7253 29.7083L27.1177 34.5015L36.105 24.915" stroke="#00325A" stroke-width="4.79321" stroke-linecap="round" stroke-linejoin="round"/>
</svg>
