<svg width="58" height="59" viewBox="0 0 58 59" fill="none" xmlns="http://www.w3.org/2000/svg">
<path d="M12.139 17.7253C12.139 16.454 12.644 15.2349 13.5429 14.336C14.4418 13.4371 15.661 12.9321 16.9323 12.9321H40.8983C42.1696 12.9321 43.3887 13.4371 44.2876 14.336C45.1865 15.2349 45.6915 16.454 45.6915 17.7253V41.6913C45.6915 42.9626 45.1865 44.1818 44.2876 45.0807C43.3887 45.9796 42.1696 46.4846 40.8983 46.4846H16.9323C15.661 46.4846 14.4418 45.9796 13.5429 45.0807C12.644 44.1818 12.139 42.9626 12.139 41.6913V17.7253Z" stroke="#00325A" stroke-width="4.79321" stroke-linecap="round" stroke-linejoin="round"/>
<path d="M21.7253 53.6744H36.105" stroke="#00325A" stroke-width="4.79321" stroke-linecap="round" stroke-linejoin="round"/>
<path d="M21.7253 5.74225H36.105" stroke="#00325A" stroke-width="4.79321" stroke-linecap="round" stroke-linejoin="round"/>
<path d="M30.1135 22.5185L25.3203 29.7083H32.5101L27.7169 36.8981" stroke="#00325A" stroke-width="4.79321" stroke-linecap="round" stroke-linejoin="round"/>
</svg>
